G04 #@! TF.GenerationSoftware,KiCad,Pcbnew,9.0.4*
G04 #@! TF.CreationDate,2026-02-15T18:41:22+03:00*
G04 #@! TF.ProjectId,DevPocket,44657650-6f63-46b6-9574-2e6b69636164,rev?*
G04 #@! TF.SameCoordinates,Original*
G04 #@! TF.FileFunction,Copper,L3,Inr*
G04 #@! TF.FilePolarity,Positive*
%FSLAX46Y46*%
G04 Gerber Fmt 4.6, Leading zero omitted, Abs format (unit mm)*
G04 Created by KiCad (PCBNEW 9.0.4) date 2026-02-15 18:41:22*
%MOMM*%
%LPD*%
G01*
G04 APERTURE LIST*
G04 #@! TA.AperFunction,ComponentPad*
%ADD10C,5.000000*%
G04 #@! TD*
G04 #@! TA.AperFunction,HeatsinkPad*
%ADD11C,0.600000*%
G04 #@! TD*
G04 #@! TA.AperFunction,ComponentPad*
%ADD12C,1.550000*%
G04 #@! TD*
G04 #@! TA.AperFunction,ComponentPad*
%ADD13C,2.000000*%
G04 #@! TD*
G04 #@! TA.AperFunction,ComponentPad*
%ADD14R,1.700000X1.700000*%
G04 #@! TD*
G04 #@! TA.AperFunction,ComponentPad*
%ADD15C,1.700000*%
G04 #@! TD*
G04 #@! TA.AperFunction,ViaPad*
%ADD16C,0.600000*%
G04 #@! TD*
G04 #@! TA.AperFunction,Conductor*
%ADD17C,0.600000*%
G04 #@! TD*
G04 #@! TA.AperFunction,Conductor*
%ADD18C,0.200000*%
G04 #@! TD*
G04 #@! TA.AperFunction,Conductor*
%ADD19C,0.500000*%
G04 #@! TD*
G04 #@! TA.AperFunction,Conductor*
%ADD20C,1.000000*%
G04 #@! TD*
G04 APERTURE END LIST*
D10*
X75600000Y-39150000D03*
D11*
X58650000Y-40150000D03*
X58650000Y-41550000D03*
X59350000Y-39450000D03*
X59350000Y-40850000D03*
X59350000Y-42250000D03*
X60050000Y-40150000D03*
X60050000Y-41550000D03*
X60750000Y-39450000D03*
X60750000Y-40850000D03*
X60750000Y-42250000D03*
X61450000Y-40150000D03*
X61450000Y-41550000D03*
D12*
X51050000Y-99250000D03*
X55550000Y-99250000D03*
D13*
X49795000Y-96760000D03*
X56805000Y-96760000D03*
D12*
X93050000Y-99250000D03*
X97550000Y-99250000D03*
D13*
X91795000Y-96760000D03*
X98805000Y-96760000D03*
D14*
X83460000Y-99200000D03*
D15*
X86000000Y-99200000D03*
X88540000Y-99200000D03*
D10*
X75600000Y-63300000D03*
X99800000Y-39150000D03*
D14*
X50420000Y-93375000D03*
D15*
X52960000Y-93375000D03*
X55500000Y-93375000D03*
X58040000Y-93375000D03*
D10*
X99800000Y-63300000D03*
D11*
X66450000Y-86450000D03*
X66450000Y-87450000D03*
X66450000Y-88450000D03*
X67750000Y-86450000D03*
X67750000Y-87450000D03*
X67750000Y-88450000D03*
D14*
X53940000Y-54160000D03*
D15*
X51400000Y-54160000D03*
X53940000Y-56700000D03*
X51400000Y-56700000D03*
X53940000Y-59240000D03*
X51400000Y-59240000D03*
X53940000Y-61780000D03*
X51400000Y-61780000D03*
X53940000Y-64320000D03*
X51400000Y-64320000D03*
X53940000Y-66860000D03*
X51400000Y-66860000D03*
X53940000Y-69400000D03*
X51400000Y-69400000D03*
X53940000Y-71940000D03*
X51400000Y-71940000D03*
X53940000Y-74480000D03*
X51400000Y-74480000D03*
X53940000Y-77020000D03*
X51400000Y-77020000D03*
X53940000Y-79560000D03*
X51400000Y-79560000D03*
X53940000Y-82100000D03*
X51400000Y-82100000D03*
X53940000Y-84640000D03*
X51400000Y-84640000D03*
X53940000Y-87180000D03*
X51400000Y-87180000D03*
X53940000Y-89720000D03*
X51400000Y-89720000D03*
D16*
X76700000Y-94425000D03*
X60900000Y-97300000D03*
X71900000Y-94427570D03*
X92550000Y-39890000D03*
X81940000Y-39320000D03*
X55850000Y-83625000D03*
X47825000Y-42900000D03*
X94910000Y-37610000D03*
X88450000Y-95100000D03*
X89190000Y-53460000D03*
X93500000Y-92800000D03*
X56675000Y-77675000D03*
X67075000Y-92200000D03*
X66975000Y-55125000D03*
X56225000Y-75575000D03*
X92300000Y-84625000D03*
X55825000Y-71975000D03*
X64625000Y-55150000D03*
X82200000Y-95100000D03*
X62750000Y-62975000D03*
X66050000Y-84100000D03*
X48475000Y-63200000D03*
X46475000Y-48650000D03*
X66450000Y-89975000D03*
X81500000Y-89800000D03*
X99830000Y-35300000D03*
X61250000Y-62950000D03*
X45550000Y-92550000D03*
X56025000Y-79900000D03*
X76100000Y-89200000D03*
X103410000Y-88310000D03*
X48575000Y-51925000D03*
X94510000Y-86720000D03*
X85900000Y-81600000D03*
X45090000Y-96460000D03*
X103130000Y-36390000D03*
X60650000Y-76700000D03*
X97450000Y-73550000D03*
X55800000Y-68375000D03*
X94770000Y-78070000D03*
X93070000Y-86760000D03*
X75900000Y-78900000D03*
X92310000Y-78060000D03*
X80800000Y-88600000D03*
X70300000Y-78800000D03*
X60000000Y-88950000D03*
X48475000Y-74575000D03*
X55775000Y-58675000D03*
X99310000Y-32160000D03*
X92410000Y-74010000D03*
X56550000Y-32200000D03*
X49675000Y-33300000D03*
X48450000Y-59600000D03*
X94700000Y-84600000D03*
X87100000Y-89800000D03*
X83500000Y-92300000D03*
X48450000Y-88975000D03*
X80490000Y-94550000D03*
X80100000Y-65500000D03*
X78125000Y-33600000D03*
X64050000Y-84075000D03*
X89100000Y-81600000D03*
X55800000Y-73500000D03*
X102100000Y-57820000D03*
X66000000Y-93025000D03*
X63130000Y-32860000D03*
X62600000Y-97250000D03*
X100040000Y-74620000D03*
X55775000Y-64325000D03*
X92700000Y-89800000D03*
X102390000Y-42180000D03*
X78800000Y-93600000D03*
X63300000Y-92400000D03*
X71100000Y-84425000D03*
X60675000Y-90975000D03*
X73400000Y-32175000D03*
X48450000Y-85375000D03*
X48610000Y-36370000D03*
X80000000Y-72030000D03*
X55850000Y-49800000D03*
X94700000Y-71010000D03*
X65800000Y-56300000D03*
X95900000Y-92800000D03*
X85250000Y-44150000D03*
X75300000Y-84200000D03*
X65050000Y-84100000D03*
X64625000Y-57475000D03*
X66130000Y-32990000D03*
X66975000Y-57475000D03*
X65050000Y-72825000D03*
X98100000Y-53910000D03*
X60550000Y-77800000D03*
X56900000Y-87925000D03*
X83240000Y-82040000D03*
X90175000Y-33700000D03*
X63050000Y-84075000D03*
X86300000Y-93700000D03*
X79100000Y-89800000D03*
X67050000Y-84075000D03*
X95000000Y-32250000D03*
X80200000Y-59840000D03*
X90300000Y-89800000D03*
X77500000Y-94400000D03*
X98380000Y-48300000D03*
X78100000Y-86800000D03*
X98700000Y-81600000D03*
X48200000Y-96700000D03*
X87450000Y-88530000D03*
X61640000Y-36820000D03*
X97420000Y-71270000D03*
X54790000Y-32240000D03*
X60650000Y-75925000D03*
X67470000Y-33230000D03*
X61180000Y-100360000D03*
X100130000Y-79660000D03*
X84000735Y-33449265D03*
X97100000Y-81370000D03*
X97620000Y-77340000D03*
X48450000Y-78175000D03*
X49550000Y-48725000D03*
X48450000Y-81775000D03*
X45780000Y-40050000D03*
X94550000Y-75130000D03*
X55825000Y-81500000D03*
X92420000Y-68990000D03*
X59100000Y-100590000D03*
X77100000Y-81600000D03*
X61950000Y-96000000D03*
X91325000Y-32100000D03*
X47825000Y-40900000D03*
X88240000Y-68570000D03*
X49525000Y-55325000D03*
X103400000Y-50570000D03*
X58960000Y-32190000D03*
X92730000Y-46810000D03*
X85910000Y-73220000D03*
X54075000Y-33300000D03*
X86240000Y-49550000D03*
X96840000Y-35300000D03*
X89500000Y-89800000D03*
X71100000Y-94400000D03*
X79400000Y-32175000D03*
X63050000Y-96375000D03*
X69050000Y-33275000D03*
X92290000Y-80980000D03*
X68330000Y-53790000D03*
X83500000Y-87100000D03*
X55775000Y-62225000D03*
X48450000Y-66800000D03*
X66700000Y-61500000D03*
X68960000Y-58820000D03*
X80960000Y-100470000D03*
X100460000Y-83410000D03*
X56775000Y-80925000D03*
X85325000Y-32100000D03*
X94740000Y-80820000D03*
X85090000Y-66300000D03*
X60950000Y-32240000D03*
X67550000Y-89950000D03*
X46125000Y-85375000D03*
X77650000Y-46450000D03*
X65050000Y-49355000D03*
X51500000Y-51150000D03*
X49525000Y-47200000D03*
X54225000Y-37100000D03*
X51600000Y-37100000D03*
X65300000Y-63975000D03*
X46375000Y-47200000D03*
X71025000Y-85550000D03*
X72200000Y-75650000D03*
X63875000Y-59525000D03*
X64425000Y-92375000D03*
X60525000Y-98525000D03*
X67600000Y-98750000D03*
X64200000Y-75650000D03*
X64200000Y-74900000D03*
X58525000Y-82525000D03*
X67600000Y-97900000D03*
X59450000Y-82525000D03*
X67600000Y-96950000D03*
X70600000Y-91150000D03*
X60350000Y-60550000D03*
X46500000Y-43400000D03*
X60000000Y-62250000D03*
X95000000Y-35525000D03*
X49400000Y-51624998D03*
X64500000Y-62975000D03*
X84300000Y-93575000D03*
X46342185Y-50467185D03*
X77000000Y-35475000D03*
X58700000Y-89250000D03*
X59600000Y-75675000D03*
X59600000Y-74850000D03*
X83000000Y-35500000D03*
X50600000Y-44050000D03*
X46550000Y-70375000D03*
X89000000Y-35500000D03*
X51650000Y-42175000D03*
X78400000Y-54825000D03*
X66861736Y-46438264D03*
X69175000Y-62250000D03*
X71863235Y-50261765D03*
X48125000Y-44950000D03*
X71387500Y-54812500D03*
X69050000Y-35825000D03*
X57175000Y-65100000D03*
X47192000Y-64167000D03*
X55750000Y-60724998D03*
X69050000Y-39625000D03*
X78250000Y-55800000D03*
X67425000Y-48425000D03*
X51650000Y-43450000D03*
X46936765Y-54238235D03*
X46025000Y-81775000D03*
X47900000Y-45750000D03*
X63175000Y-42175000D03*
X66550000Y-38500000D03*
X67400000Y-35450000D03*
X73150000Y-44425000D03*
X68875000Y-43450000D03*
X54700000Y-46600000D03*
X66550000Y-47825000D03*
X85500000Y-88600000D03*
X86300000Y-89075000D03*
X51675000Y-47250000D03*
X64885263Y-47225000D03*
X51650000Y-40900000D03*
X66847999Y-45576000D03*
X77653235Y-50696765D03*
X57025000Y-46875000D03*
X76925000Y-52900000D03*
X59125000Y-46875000D03*
X53950000Y-39650000D03*
X62738235Y-63888235D03*
X67625000Y-49250000D03*
X46125000Y-88975000D03*
X70775000Y-52400000D03*
X70625000Y-60400000D03*
X65750000Y-48150000D03*
X67600000Y-65500000D03*
X76225000Y-52275000D03*
X69175000Y-69150000D03*
X75525000Y-51375000D03*
X67600000Y-70000000D03*
X72350000Y-74200000D03*
X48255222Y-73805778D03*
X58850000Y-76380882D03*
X67600000Y-71450000D03*
X68625000Y-48900000D03*
X66875000Y-40675000D03*
X79215735Y-52259265D03*
X90350000Y-93125000D03*
X57100000Y-52699000D03*
X92800000Y-94050000D03*
X93150000Y-33575000D03*
X46550000Y-72400000D03*
X67300000Y-80225000D03*
X62125000Y-54625000D03*
X67275000Y-52750000D03*
X66170315Y-52570315D03*
X71450000Y-37100000D03*
X64475000Y-68625000D03*
X67600000Y-67000000D03*
X58700000Y-78350000D03*
X68050000Y-61475000D03*
X69825000Y-59700000D03*
X64875000Y-48550000D03*
X48375000Y-77375000D03*
X68825000Y-37350000D03*
X63550000Y-53175000D03*
X64150000Y-95250000D03*
X74550000Y-96625000D03*
X64150000Y-93350000D03*
X74025000Y-94425000D03*
X48550000Y-92100000D03*
X54125000Y-47855000D03*
X55675000Y-56125000D03*
X54900000Y-35800000D03*
X60850000Y-55925000D03*
X60025000Y-59550000D03*
X51550000Y-38375000D03*
X71025000Y-86800000D03*
X72950000Y-51575000D03*
X49475735Y-38375735D03*
X68625997Y-46176000D03*
X49614542Y-50444369D03*
X80021171Y-49666341D03*
X68000000Y-39150000D03*
X52562500Y-57912500D03*
X48450000Y-52750000D03*
X54888235Y-44045000D03*
X72250000Y-32175000D03*
X60825000Y-96025000D03*
X62210651Y-56125000D03*
X59700000Y-93350000D03*
X62210651Y-56975000D03*
X63150000Y-85550000D03*
X68725000Y-82650000D03*
D17*
X72975000Y-93375000D02*
X75650000Y-93375000D01*
X71900000Y-94427570D02*
X71922430Y-94427570D01*
X73150000Y-96300000D02*
X73150000Y-96950000D01*
X72375000Y-93975000D02*
X73150000Y-94750000D01*
X70150000Y-99950000D02*
X66000000Y-99950000D01*
X71922430Y-94427570D02*
X72375000Y-93975000D01*
X75650000Y-93375000D02*
X76700000Y-94425000D01*
X63550000Y-99950000D02*
X60900000Y-97300000D01*
X66000000Y-99950000D02*
X63550000Y-99950000D01*
X70325000Y-99775000D02*
X70150000Y-99950000D01*
X73150000Y-94750000D02*
X73150000Y-96300000D01*
X72375000Y-93975000D02*
X72975000Y-93375000D01*
X73150000Y-96950000D02*
X70325000Y-99775000D01*
D18*
X49525000Y-47850057D02*
X51500000Y-49825057D01*
X66520000Y-50825000D02*
X70825000Y-50825000D01*
X73475000Y-52175000D02*
X77650000Y-48000000D01*
X72175000Y-52175000D02*
X73475000Y-52175000D01*
X70825000Y-50825000D02*
X72175000Y-52175000D01*
X49525000Y-47200000D02*
X49525000Y-47850057D01*
X77650000Y-48000000D02*
X77650000Y-46450000D01*
X51500000Y-49825057D02*
X51500000Y-51150000D01*
X65050000Y-49355000D02*
X66520000Y-50825000D01*
X58300000Y-48625000D02*
X58300000Y-46550000D01*
X62950000Y-53275000D02*
X58300000Y-48625000D01*
X57025000Y-45275000D02*
X57025000Y-39900000D01*
X57025000Y-39900000D02*
X54225000Y-37100000D01*
X62950000Y-59775000D02*
X62950000Y-53275000D01*
X58300000Y-46550000D02*
X57025000Y-45275000D01*
X65300000Y-63975000D02*
X65300000Y-62125000D01*
X65300000Y-62125000D02*
X62950000Y-59775000D01*
X66050000Y-61700000D02*
X63875000Y-59525000D01*
D19*
X62250000Y-91150000D02*
X62925000Y-90475000D01*
D18*
X70775000Y-75650000D02*
X66050000Y-70925000D01*
D19*
X66200000Y-85550000D02*
X71025000Y-85550000D01*
X59550000Y-97550000D02*
X59550000Y-95500000D01*
X64800000Y-88600000D02*
X64800000Y-86950000D01*
X64800000Y-86950000D02*
X66200000Y-85550000D01*
D18*
X66050000Y-70925000D02*
X66050000Y-61700000D01*
D19*
X64425000Y-91975000D02*
X62925000Y-90475000D01*
X60525000Y-98525000D02*
X59550000Y-97550000D01*
X64425000Y-92375000D02*
X64425000Y-91975000D01*
D18*
X72200000Y-75650000D02*
X70775000Y-75650000D01*
D19*
X59550000Y-95500000D02*
X62250000Y-92800000D01*
X62925000Y-90475000D02*
X64800000Y-88600000D01*
X62250000Y-92800000D02*
X62250000Y-91150000D01*
D20*
X58525000Y-82525000D02*
X59450000Y-82525000D01*
X67600000Y-97900000D02*
X67600000Y-98750000D01*
X72500000Y-82650000D02*
X72500000Y-91450000D01*
X71700000Y-92250000D02*
X67600000Y-96350000D01*
X67600000Y-96950000D02*
X67600000Y-97900000D01*
X67600000Y-96350000D02*
X67600000Y-96950000D01*
D19*
X70600000Y-91150000D02*
X71700000Y-92250000D01*
D20*
X64200000Y-77775000D02*
X67625000Y-77775000D01*
X64200000Y-75650000D02*
X64200000Y-77775000D01*
X67625000Y-77775000D02*
X72500000Y-82650000D01*
X64200000Y-77775000D02*
X59450000Y-82525000D01*
X72500000Y-91450000D02*
X71700000Y-92250000D01*
D18*
X60000000Y-62250000D02*
X58850000Y-63400000D01*
D17*
X45900000Y-69725000D02*
X45900000Y-57400000D01*
D19*
X57200000Y-81600000D02*
X59600000Y-79200000D01*
D18*
X62975000Y-64500000D02*
X59600000Y-64500000D01*
D20*
X56800000Y-61700000D02*
X56800000Y-53918000D01*
D18*
X48675057Y-44600000D02*
X50600000Y-44600000D01*
X77000000Y-35475000D02*
X77000000Y-34500000D01*
X45600000Y-52475000D02*
X45600000Y-53750000D01*
X46342185Y-50467185D02*
X46350000Y-50475000D01*
D19*
X58700000Y-89250000D02*
X58700000Y-85650000D01*
X59600000Y-79200000D02*
X59600000Y-75675000D01*
D20*
X50600000Y-47718000D02*
X50600000Y-45400000D01*
D19*
X51950000Y-45400000D02*
X52750000Y-44600000D01*
X65400000Y-71950000D02*
X70250000Y-76800000D01*
D18*
X64500000Y-62975000D02*
X62975000Y-64500000D01*
D17*
X45900000Y-57400000D02*
X47575000Y-55725000D01*
D18*
X45600000Y-53750000D02*
X47575000Y-55725000D01*
X89000000Y-35500000D02*
X89000000Y-34500000D01*
D20*
X58850000Y-63750000D02*
X57225000Y-62125000D01*
D19*
X54350000Y-34500000D02*
X77000000Y-34500000D01*
D18*
X49400000Y-51624998D02*
X50024998Y-51624998D01*
D19*
X60350000Y-60550000D02*
X58800000Y-60550000D01*
X57200000Y-84150000D02*
X57200000Y-81600000D01*
X89000000Y-34500000D02*
X93975000Y-34500000D01*
D18*
X46350000Y-51725000D02*
X45600000Y-52475000D01*
D20*
X59600000Y-71950000D02*
X59600000Y-64500000D01*
X50600000Y-44600000D02*
X50600000Y-44050000D01*
D17*
X47575000Y-55725000D02*
X50850000Y-52450000D01*
D18*
X50024998Y-51624998D02*
X50850000Y-52450000D01*
D20*
X59600000Y-64500000D02*
X58850000Y-63750000D01*
D17*
X46550000Y-70375000D02*
X45900000Y-69725000D01*
D20*
X53291000Y-50409000D02*
X50600000Y-47718000D01*
X54053500Y-51171500D02*
X53291000Y-50409000D01*
X50600000Y-45400000D02*
X50600000Y-44600000D01*
D19*
X59600000Y-71950000D02*
X65400000Y-71950000D01*
D18*
X46500000Y-43400000D02*
X47475057Y-43400000D01*
D19*
X52750000Y-36100000D02*
X54350000Y-34500000D01*
D20*
X56800000Y-53918000D02*
X54053500Y-51171500D01*
D17*
X50850000Y-52450000D02*
X52775000Y-52450000D01*
D19*
X50600000Y-45400000D02*
X51950000Y-45400000D01*
D18*
X58850000Y-63400000D02*
X58850000Y-63750000D01*
D19*
X84300000Y-84700000D02*
X84300000Y-93575000D01*
X76400000Y-76800000D02*
X84300000Y-84700000D01*
X83000000Y-34500000D02*
X89000000Y-34500000D01*
D20*
X57225000Y-62125000D02*
X56800000Y-61700000D01*
D19*
X52750000Y-44600000D02*
X52750000Y-36100000D01*
X58800000Y-60550000D02*
X57225000Y-62125000D01*
X93975000Y-34500000D02*
X95000000Y-35525000D01*
D18*
X46350000Y-50475000D02*
X46350000Y-51725000D01*
D19*
X58700000Y-85650000D02*
X57200000Y-84150000D01*
D17*
X52775000Y-52450000D02*
X54053500Y-51171500D01*
D18*
X47475057Y-43400000D02*
X48675057Y-44600000D01*
X83000000Y-35500000D02*
X83000000Y-34500000D01*
D20*
X59600000Y-75675000D02*
X59600000Y-71950000D01*
D19*
X70250000Y-76800000D02*
X76400000Y-76800000D01*
X77000000Y-34500000D02*
X83000000Y-34500000D01*
D18*
X67438264Y-46438264D02*
X71261765Y-50261765D01*
X71387500Y-54812500D02*
X78387500Y-54812500D01*
X78387500Y-54812500D02*
X78400000Y-54825000D01*
X66861736Y-46438264D02*
X67438264Y-46438264D01*
X71261765Y-50261765D02*
X71863235Y-50261765D01*
X47425000Y-46225000D02*
X47900000Y-45750000D01*
X47425000Y-53750000D02*
X47425000Y-46225000D01*
X46936765Y-54238235D02*
X47425000Y-53750000D01*
X66550000Y-38500000D02*
X66550000Y-38950000D01*
X72025000Y-44425000D02*
X73150000Y-44425000D01*
X66550000Y-38950000D02*
X72025000Y-44425000D01*
X53975000Y-39650000D02*
X53950000Y-39650000D01*
X56624000Y-45441100D02*
X56624000Y-42299000D01*
X63600000Y-51350000D02*
X67000000Y-51350000D01*
X67000000Y-51350000D02*
X69275000Y-53625000D01*
X61500000Y-58225000D02*
X61500000Y-52450000D01*
X62738235Y-63888235D02*
X62050000Y-63200000D01*
X59125000Y-46875000D02*
X63600000Y-51350000D01*
X62050000Y-58775000D02*
X61500000Y-58225000D01*
X69275000Y-53625000D02*
X76200000Y-53625000D01*
X57025000Y-47975000D02*
X57025000Y-46875000D01*
X56624000Y-42299000D02*
X53975000Y-39650000D01*
X57025000Y-46875000D02*
X57025000Y-45842100D01*
X62050000Y-63200000D02*
X62050000Y-58775000D01*
X76200000Y-53625000D02*
X76925000Y-52900000D01*
X57025000Y-45842100D02*
X56624000Y-45441100D01*
X61500000Y-52450000D02*
X57025000Y-47975000D01*
X81625000Y-56325000D02*
X81625000Y-66200000D01*
X77000000Y-68625000D02*
X69700000Y-68625000D01*
X69700000Y-68625000D02*
X69175000Y-69150000D01*
X77575000Y-52275000D02*
X81625000Y-56325000D01*
X81625000Y-66200000D02*
X79200000Y-68625000D01*
X76225000Y-52275000D02*
X77575000Y-52275000D01*
X79200000Y-68625000D02*
X77000000Y-68625000D01*
X77300000Y-51375000D02*
X75525000Y-51375000D01*
X67600000Y-70000000D02*
X70850000Y-70000000D01*
X79575000Y-69300000D02*
X82175000Y-66700000D01*
X82175000Y-56250000D02*
X77300000Y-51375000D01*
X82175000Y-66700000D02*
X82175000Y-56250000D01*
X71550000Y-69300000D02*
X79575000Y-69300000D01*
X70850000Y-70000000D02*
X71550000Y-69300000D01*
X77875000Y-45700000D02*
X77975000Y-45800000D01*
X67175000Y-40675000D02*
X70000000Y-43500000D01*
X79215735Y-47040735D02*
X79215735Y-52259265D01*
X77975000Y-45800000D02*
X79215735Y-47040735D01*
X66875000Y-40675000D02*
X67175000Y-40675000D01*
X70000000Y-43500000D02*
X72200000Y-45700000D01*
X72200000Y-45700000D02*
X74875000Y-45700000D01*
X74875000Y-45700000D02*
X77875000Y-45700000D01*
D19*
X46550000Y-72400000D02*
X47504222Y-73354222D01*
X61250000Y-89175000D02*
X61250000Y-84450000D01*
X59075000Y-91350000D02*
X61250000Y-89175000D01*
X47504222Y-89204222D02*
X49650000Y-91350000D01*
X47504222Y-73354222D02*
X47504222Y-89204222D01*
X49650000Y-91350000D02*
X59075000Y-91350000D01*
X64475000Y-83050000D02*
X67300000Y-80225000D01*
X62650000Y-83050000D02*
X64475000Y-83050000D01*
X61250000Y-84450000D02*
X62650000Y-83050000D01*
D18*
X53325000Y-37075000D02*
X53325000Y-47055000D01*
X54600000Y-35800000D02*
X53325000Y-37075000D01*
X53325000Y-47055000D02*
X54125000Y-47855000D01*
X54900000Y-35800000D02*
X54600000Y-35800000D01*
X60850000Y-55925000D02*
X59500000Y-57275000D01*
X59500000Y-59025000D02*
X60025000Y-59550000D01*
X59500000Y-57275000D02*
X59500000Y-59025000D01*
X72950000Y-50075000D02*
X72950000Y-51575000D01*
X69051000Y-46176000D02*
X72950000Y-50075000D01*
X68625997Y-46176000D02*
X69051000Y-46176000D01*
X70975000Y-42550000D02*
X72225000Y-42550000D01*
X75650000Y-44850000D02*
X78075000Y-44850000D01*
X78075000Y-44850000D02*
X79625000Y-46400000D01*
X68000000Y-39575000D02*
X68800000Y-40375000D01*
X79625000Y-46400000D02*
X80021171Y-46796171D01*
X68800000Y-40375000D02*
X70975000Y-42550000D01*
X73350000Y-42550000D02*
X75175000Y-44375000D01*
X80021171Y-46796171D02*
X80021171Y-49666341D01*
X72225000Y-42550000D02*
X73350000Y-42550000D01*
X75175000Y-44375000D02*
X75650000Y-44850000D01*
X68000000Y-39150000D02*
X68000000Y-39575000D01*
M02*
