G04 #@! TF.GenerationSoftware,KiCad,Pcbnew,9.0.4*
G04 #@! TF.CreationDate,2026-02-15T18:41:22+03:00*
G04 #@! TF.ProjectId,DevPocket,44657650-6f63-46b6-9574-2e6b69636164,rev?*
G04 #@! TF.SameCoordinates,Original*
G04 #@! TF.FileFunction,Paste,Top*
G04 #@! TF.FilePolarity,Positive*
%FSLAX46Y46*%
G04 Gerber Fmt 4.6, Leading zero omitted, Abs format (unit mm)*
G04 Created by KiCad (PCBNEW 9.0.4) date 2026-02-15 18:41:22*
%MOMM*%
%LPD*%
G01*
G04 APERTURE LIST*
G04 Aperture macros list*
%AMRoundRect*
0 Rectangle with rounded corners*
0 $1 Rounding radius*
0 $2 $3 $4 $5 $6 $7 $8 $9 X,Y pos of 4 corners*
0 Add a 4 corners polygon primitive as box body*
4,1,4,$2,$3,$4,$5,$6,$7,$8,$9,$2,$3,0*
0 Add four circle primitives for the rounded corners*
1,1,$1+$1,$2,$3*
1,1,$1+$1,$4,$5*
1,1,$1+$1,$6,$7*
1,1,$1+$1,$8,$9*
0 Add four rect primitives between the rounded corners*
20,1,$1+$1,$2,$3,$4,$5,0*
20,1,$1+$1,$4,$5,$6,$7,0*
20,1,$1+$1,$6,$7,$8,$9,0*
20,1,$1+$1,$8,$9,$2,$3,0*%
G04 Aperture macros list end*
%ADD10RoundRect,0.250000X-0.475000X0.250000X-0.475000X-0.250000X0.475000X-0.250000X0.475000X0.250000X0*%
%ADD11RoundRect,0.200000X0.200000X0.275000X-0.200000X0.275000X-0.200000X-0.275000X0.200000X-0.275000X0*%
%ADD12R,0.600000X2.000000*%
%ADD13R,2.300000X3.200000*%
%ADD14R,0.700000X0.700000*%
%ADD15RoundRect,0.225000X0.250000X-0.225000X0.250000X0.225000X-0.250000X0.225000X-0.250000X-0.225000X0*%
%ADD16RoundRect,0.225000X0.225000X0.250000X-0.225000X0.250000X-0.225000X-0.250000X0.225000X-0.250000X0*%
%ADD17RoundRect,0.250000X0.250000X0.475000X-0.250000X0.475000X-0.250000X-0.475000X0.250000X-0.475000X0*%
%ADD18RoundRect,0.200000X-0.200000X-0.275000X0.200000X-0.275000X0.200000X0.275000X-0.200000X0.275000X0*%
%ADD19R,1.500000X0.900000*%
%ADD20R,0.900000X1.500000*%
%ADD21R,0.900000X0.900000*%
%ADD22RoundRect,0.200000X0.275000X-0.200000X0.275000X0.200000X-0.275000X0.200000X-0.275000X-0.200000X0*%
%ADD23R,0.600000X1.200000*%
%ADD24RoundRect,0.225000X-0.250000X0.225000X-0.250000X-0.225000X0.250000X-0.225000X0.250000X0.225000X0*%
%ADD25RoundRect,0.150000X0.587500X0.150000X-0.587500X0.150000X-0.587500X-0.150000X0.587500X-0.150000X0*%
%ADD26RoundRect,0.225000X-0.225000X-0.250000X0.225000X-0.250000X0.225000X0.250000X-0.225000X0.250000X0*%
%ADD27R,0.550000X1.088000*%
%ADD28RoundRect,0.150000X-0.150000X0.587500X-0.150000X-0.587500X0.150000X-0.587500X0.150000X0.587500X0*%
%ADD29RoundRect,0.200000X-0.275000X0.200000X-0.275000X-0.200000X0.275000X-0.200000X0.275000X0.200000X0*%
%ADD30R,0.600000X1.150000*%
%ADD31R,0.300000X1.150000*%
%ADD32R,1.500000X1.500000*%
%ADD33R,0.475000X0.300000*%
%ADD34RoundRect,0.250000X0.475000X-0.250000X0.475000X0.250000X-0.475000X0.250000X-0.475000X-0.250000X0*%
%ADD35RoundRect,0.150000X0.512500X0.150000X-0.512500X0.150000X-0.512500X-0.150000X0.512500X-0.150000X0*%
%ADD36RoundRect,0.375000X0.375000X-0.625000X0.375000X0.625000X-0.375000X0.625000X-0.375000X-0.625000X0*%
%ADD37RoundRect,0.500000X1.400000X-0.500000X1.400000X0.500000X-1.400000X0.500000X-1.400000X-0.500000X0*%
%ADD38RoundRect,0.218750X-0.218750X-0.256250X0.218750X-0.256250X0.218750X0.256250X-0.218750X0.256250X0*%
%ADD39R,1.000000X1.520000*%
%ADD40R,1.800000X2.000000*%
%ADD41RoundRect,0.250000X1.100000X-0.325000X1.100000X0.325000X-1.100000X0.325000X-1.100000X-0.325000X0*%
%ADD42R,1.000000X0.300000*%
%ADD43R,0.300000X1.000000*%
%ADD44R,3.350000X3.350000*%
%ADD45RoundRect,0.240000X-0.240000X-0.385000X0.240000X-0.385000X0.240000X0.385000X-0.240000X0.385000X0*%
%ADD46RoundRect,0.150000X-0.825000X-0.150000X0.825000X-0.150000X0.825000X0.150000X-0.825000X0.150000X0*%
%ADD47RoundRect,0.250000X-0.450000X0.262500X-0.450000X-0.262500X0.450000X-0.262500X0.450000X0.262500X0*%
%ADD48RoundRect,0.250000X-0.250000X-0.475000X0.250000X-0.475000X0.250000X0.475000X-0.250000X0.475000X0*%
%ADD49R,1.520000X1.000000*%
G04 APERTURE END LIST*
D10*
X63400000Y-81200000D03*
X63400000Y-83100000D03*
D11*
X70150000Y-71450000D03*
X68500000Y-71450000D03*
X69575000Y-73350000D03*
X67925000Y-73350000D03*
D12*
X75900000Y-91300000D03*
X76300000Y-83100000D03*
X76700000Y-91300000D03*
X77100000Y-83100000D03*
X77500000Y-91300000D03*
X77900000Y-83100000D03*
X78300000Y-91300000D03*
X78700000Y-83100000D03*
X79100000Y-91300000D03*
X79500000Y-83100000D03*
X79900000Y-91300000D03*
X80300000Y-83100000D03*
X80700000Y-91300000D03*
X81100000Y-83100000D03*
X81500000Y-91300000D03*
X81900000Y-83100000D03*
X85500000Y-91300000D03*
X85900000Y-83100000D03*
X86300000Y-91300000D03*
X86700000Y-83100000D03*
X87100000Y-91300000D03*
X87500000Y-83100000D03*
X87900000Y-91300000D03*
X88300000Y-83100000D03*
X88700000Y-91300000D03*
X89100000Y-83100000D03*
X89500000Y-91300000D03*
X89900000Y-83100000D03*
X90300000Y-91300000D03*
X90700000Y-83100000D03*
X91100000Y-91300000D03*
X91500000Y-83100000D03*
X91900000Y-91300000D03*
X92300000Y-83100000D03*
X92700000Y-91300000D03*
X93100000Y-83100000D03*
X93500000Y-91300000D03*
X93900000Y-83100000D03*
X94300000Y-91300000D03*
X94700000Y-83100000D03*
X95100000Y-91300000D03*
X95500000Y-83100000D03*
X95900000Y-91300000D03*
X96300000Y-83100000D03*
X96700000Y-91300000D03*
X97100000Y-83100000D03*
X97500000Y-91300000D03*
X97900000Y-83100000D03*
X98300000Y-91300000D03*
X98700000Y-83100000D03*
X99100000Y-91300000D03*
X99500000Y-83100000D03*
D13*
X73050000Y-90700000D03*
X102350000Y-90700000D03*
D14*
X93150000Y-32820000D03*
X92050000Y-32820000D03*
X92050000Y-34650000D03*
X93150000Y-34650000D03*
D15*
X95000000Y-34635000D03*
X95000000Y-33085000D03*
D16*
X62225000Y-91800000D03*
X60675000Y-91800000D03*
D11*
X70150000Y-68500000D03*
X68500000Y-68500000D03*
D17*
X69720000Y-91150000D03*
X67820000Y-91150000D03*
D11*
X59225000Y-62250000D03*
X57575000Y-62250000D03*
D18*
X45575000Y-44950000D03*
X47225000Y-44950000D03*
D17*
X50600000Y-42900000D03*
X48700000Y-42900000D03*
D18*
X48750000Y-49450000D03*
X50400000Y-49450000D03*
D19*
X52800000Y-33285000D03*
X52800000Y-34555000D03*
X52800000Y-35825000D03*
X52800000Y-37095000D03*
X52800000Y-38365000D03*
X52800000Y-39635000D03*
X52800000Y-40905000D03*
X52800000Y-42175000D03*
X52800000Y-43445000D03*
X52800000Y-44715000D03*
X52800000Y-45985000D03*
X52800000Y-47255000D03*
X52800000Y-48525000D03*
X52800000Y-49795000D03*
D20*
X55835000Y-50890000D03*
X57105000Y-50890000D03*
X58375000Y-50890000D03*
X59645000Y-50890000D03*
X60915000Y-50890000D03*
X62185000Y-50890000D03*
X63455000Y-50890000D03*
X64725000Y-50890000D03*
X65995000Y-50890000D03*
X67265000Y-50890000D03*
D19*
X70300000Y-49795000D03*
X70300000Y-48525000D03*
X70300000Y-47255000D03*
X70300000Y-45985000D03*
X70300000Y-44715000D03*
X70300000Y-43445000D03*
X70300000Y-42175000D03*
X70300000Y-40905000D03*
X70300000Y-39635000D03*
X70300000Y-38365000D03*
X70300000Y-37095000D03*
X70300000Y-35825000D03*
X70300000Y-34555000D03*
X70300000Y-33285000D03*
D21*
X58650000Y-39450000D03*
X58650000Y-40850000D03*
X58650000Y-42250000D03*
X60050000Y-39450000D03*
X60050000Y-40850000D03*
X60050000Y-42250000D03*
X61450000Y-39450000D03*
X61450000Y-40850000D03*
X61450000Y-42250000D03*
D18*
X45575000Y-49450000D03*
X47225000Y-49450000D03*
D11*
X50400000Y-50950000D03*
X48750000Y-50950000D03*
D18*
X60850000Y-88950000D03*
X62500000Y-88950000D03*
X67925000Y-74850000D03*
X69575000Y-74850000D03*
D22*
X66050000Y-62150000D03*
X66050000Y-60500000D03*
D11*
X70150000Y-64000000D03*
X68500000Y-64000000D03*
D23*
X69700000Y-76550000D03*
X67800000Y-76550000D03*
X68750000Y-79050000D03*
D24*
X50600000Y-33300000D03*
X50600000Y-34850000D03*
D25*
X59050000Y-59000000D03*
X59050000Y-57100000D03*
X57175000Y-58050000D03*
D26*
X48775000Y-47950000D03*
X50325000Y-47950000D03*
D15*
X61250000Y-62100000D03*
X61250000Y-60550000D03*
D27*
X88450000Y-96450000D03*
X88450000Y-94134000D03*
D14*
X87150000Y-32820000D03*
X86050000Y-32820000D03*
X86050000Y-34650000D03*
X87150000Y-34650000D03*
D15*
X62750000Y-62100000D03*
X62750000Y-60550000D03*
D28*
X66250000Y-72825000D03*
X64350000Y-72825000D03*
X65300000Y-74700000D03*
D29*
X72250000Y-32985000D03*
X72250000Y-34635000D03*
D25*
X59037500Y-55350000D03*
X59037500Y-53450000D03*
X57162500Y-54400000D03*
D30*
X71100000Y-95475000D03*
X71900000Y-95510000D03*
D31*
X73050000Y-95510000D03*
X74050000Y-95510000D03*
X74550000Y-95510000D03*
X75550000Y-95510000D03*
D30*
X76700000Y-95510000D03*
X77500000Y-95475000D03*
D31*
X76050000Y-95510000D03*
X75050000Y-95510000D03*
X73550000Y-95510000D03*
X72550000Y-95510000D03*
D32*
X69180000Y-96085000D03*
X79420000Y-96085000D03*
X69180000Y-100015000D03*
X79420000Y-100015000D03*
D33*
X60262000Y-81650000D03*
X60262000Y-82150000D03*
X60262000Y-82650000D03*
X61938000Y-82650000D03*
X61938000Y-82150000D03*
X61938000Y-81650000D03*
D18*
X64475000Y-69600000D03*
X66125000Y-69600000D03*
D34*
X86300000Y-96500000D03*
X86300000Y-94600000D03*
D11*
X65850000Y-78150000D03*
X64200000Y-78150000D03*
D15*
X83000000Y-34635000D03*
X83000000Y-33085000D03*
X77000000Y-34635000D03*
X77000000Y-33085000D03*
D11*
X59225000Y-60740000D03*
X57575000Y-60740000D03*
D35*
X63087500Y-95250000D03*
X63087500Y-94300000D03*
X63087500Y-93350000D03*
X60812500Y-93350000D03*
X60812500Y-94300000D03*
X60812500Y-95250000D03*
D18*
X45575000Y-46450000D03*
X47225000Y-46450000D03*
D36*
X57400000Y-71000000D03*
X59700000Y-71000000D03*
D37*
X59700000Y-64700000D03*
D36*
X62000000Y-71000000D03*
D22*
X60862500Y-58750000D03*
X60862500Y-57100000D03*
D38*
X68762500Y-80950000D03*
X70337500Y-80950000D03*
D17*
X50600000Y-40900000D03*
X48700000Y-40900000D03*
X59000000Y-79800000D03*
X57100000Y-79800000D03*
D39*
X56690000Y-90400000D03*
X58710000Y-90400000D03*
D40*
X57350000Y-85600000D03*
X61250000Y-85600000D03*
D14*
X81150000Y-32820000D03*
X80050000Y-32820000D03*
X80050000Y-34650000D03*
X81150000Y-34650000D03*
D11*
X70150000Y-67000000D03*
X68500000Y-67000000D03*
D29*
X45600000Y-41750000D03*
X45600000Y-43400000D03*
D22*
X64500000Y-62150000D03*
X64500000Y-60500000D03*
D24*
X67200000Y-81375000D03*
X67200000Y-82925000D03*
D41*
X65500000Y-100000000D03*
X65500000Y-97050000D03*
D42*
X63400000Y-54800000D03*
X63400000Y-55300000D03*
X63400000Y-55800000D03*
X63400000Y-56300000D03*
X63400000Y-56800000D03*
X63400000Y-57300000D03*
X63400000Y-57800000D03*
D43*
X64300000Y-58700000D03*
X64800000Y-58700000D03*
X65300000Y-58700000D03*
X65800000Y-58700000D03*
X66300000Y-58700000D03*
X66800000Y-58700000D03*
X67300000Y-58700000D03*
D42*
X68200000Y-57800000D03*
X68200000Y-57300000D03*
X68200000Y-56800000D03*
X68200000Y-56300000D03*
X68200000Y-55800000D03*
X68200000Y-55300000D03*
X68200000Y-54800000D03*
D43*
X67300000Y-53900000D03*
X66800000Y-53900000D03*
X66300000Y-53900000D03*
X65800000Y-53900000D03*
X65300000Y-53900000D03*
X64800000Y-53900000D03*
X64300000Y-53900000D03*
D44*
X65800000Y-56300000D03*
D11*
X70150000Y-70000000D03*
X68500000Y-70000000D03*
D27*
X82200000Y-96500000D03*
X82200000Y-94184000D03*
D22*
X60850000Y-55100000D03*
X60850000Y-53450000D03*
D18*
X62050000Y-79725000D03*
X63700000Y-79725000D03*
D11*
X92000000Y-94050000D03*
X90350000Y-94050000D03*
D45*
X66530000Y-86700000D03*
X66530000Y-88200000D03*
X67670000Y-86700000D03*
X67670000Y-88200000D03*
D46*
X64625000Y-85545000D03*
X64625000Y-86815000D03*
X64625000Y-88085000D03*
X64625000Y-89355000D03*
X69575000Y-89355000D03*
X69575000Y-88085000D03*
X69575000Y-86815000D03*
X69575000Y-85545000D03*
D26*
X45625000Y-47960000D03*
X47175000Y-47960000D03*
D16*
X58775000Y-75200000D03*
X57225000Y-75200000D03*
D11*
X47250000Y-50950000D03*
X45600000Y-50950000D03*
D18*
X65350000Y-95200000D03*
X67000000Y-95200000D03*
D15*
X89000000Y-34635000D03*
X89000000Y-33085000D03*
D14*
X75150000Y-32820000D03*
X74050000Y-32820000D03*
X74050000Y-34650000D03*
X75150000Y-34650000D03*
D11*
X70375000Y-83700000D03*
X68725000Y-83700000D03*
D47*
X62600000Y-98200000D03*
X62600000Y-100025000D03*
D10*
X65400000Y-81200000D03*
X65400000Y-83100000D03*
D11*
X66125000Y-71100000D03*
X64475000Y-71100000D03*
X70150000Y-65500000D03*
X68500000Y-65500000D03*
X65850000Y-76550000D03*
X64200000Y-76550000D03*
D18*
X65350000Y-93700000D03*
X67000000Y-93700000D03*
D29*
X60550000Y-78700000D03*
X60550000Y-80350000D03*
D16*
X59000000Y-81550000D03*
X57450000Y-81550000D03*
D48*
X64420000Y-91150000D03*
X66320000Y-91150000D03*
D49*
X59475000Y-97290000D03*
X59475000Y-99310000D03*
D16*
X62575000Y-73050000D03*
X61025000Y-73050000D03*
D17*
X62550000Y-74850000D03*
X60650000Y-74850000D03*
X58750000Y-73350000D03*
X56850000Y-73350000D03*
D49*
X84300000Y-96500000D03*
X84300000Y-94480000D03*
M02*
