G04 #@! TF.GenerationSoftware,KiCad,Pcbnew,9.0.4*
G04 #@! TF.CreationDate,2026-02-15T18:41:22+03:00*
G04 #@! TF.ProjectId,DevPocket,44657650-6f63-46b6-9574-2e6b69636164,rev?*
G04 #@! TF.SameCoordinates,Original*
G04 #@! TF.FileFunction,Legend,Bot*
G04 #@! TF.FilePolarity,Positive*
%FSLAX46Y46*%
G04 Gerber Fmt 4.6, Leading zero omitted, Abs format (unit mm)*
G04 Created by KiCad (PCBNEW 9.0.4) date 2026-02-15 18:41:22*
%MOMM*%
%LPD*%
G01*
G04 APERTURE LIST*
%ADD10C,0.120000*%
%ADD11C,0.200000*%
%ADD12C,0.100000*%
G04 APERTURE END LIST*
D10*
X56662258Y-62777500D02*
X56187742Y-62777500D01*
X56662258Y-63822500D02*
X56187742Y-63822500D01*
X48612742Y-75852500D02*
X49087258Y-75852500D01*
X48612742Y-76897500D02*
X49087258Y-76897500D01*
D11*
X57820000Y-84963000D02*
X56180000Y-84963000D01*
X58701000Y-83687000D02*
X56180000Y-83687000D01*
D10*
X56712258Y-70427500D02*
X56237742Y-70427500D01*
X56712258Y-71472500D02*
X56237742Y-71472500D01*
D11*
X57770000Y-69788000D02*
X56130000Y-69788000D01*
X58651000Y-68512000D02*
X56130000Y-68512000D01*
X57745000Y-62138000D02*
X56105000Y-62138000D01*
X58626000Y-60862000D02*
X56105000Y-60862000D01*
D10*
X48587742Y-90227500D02*
X49062258Y-90227500D01*
X48587742Y-91272500D02*
X49062258Y-91272500D01*
D11*
X57745000Y-58538000D02*
X56105000Y-58538000D01*
X58626000Y-57262000D02*
X56105000Y-57262000D01*
D10*
X48587742Y-83052500D02*
X49062258Y-83052500D01*
X48587742Y-84097500D02*
X49062258Y-84097500D01*
X48587742Y-86652500D02*
X49062258Y-86652500D01*
X48587742Y-87697500D02*
X49062258Y-87697500D01*
D11*
X46641000Y-60238000D02*
X49162000Y-60238000D01*
X47522000Y-58962000D02*
X49162000Y-58962000D01*
X46649000Y-63838000D02*
X49170000Y-63838000D01*
X47530000Y-62562000D02*
X49170000Y-62562000D01*
X48565000Y-71825000D02*
X48565000Y-72975000D01*
X46649000Y-53038000D02*
X49170000Y-53038000D01*
X47530000Y-51762000D02*
X49170000Y-51762000D01*
D10*
X56712258Y-78402500D02*
X56237742Y-78402500D01*
X56712258Y-79447500D02*
X56237742Y-79447500D01*
D11*
X46624000Y-89613000D02*
X49145000Y-89613000D01*
X47505000Y-88337000D02*
X49145000Y-88337000D01*
X48575000Y-69800000D02*
X48575000Y-70950000D01*
X46624000Y-86013000D02*
X49145000Y-86013000D01*
X47505000Y-84737000D02*
X49145000Y-84737000D01*
X46649000Y-56638000D02*
X49170000Y-56638000D01*
X47530000Y-55362000D02*
X49170000Y-55362000D01*
D10*
X48612742Y-68077500D02*
X49087258Y-68077500D01*
X48612742Y-69122500D02*
X49087258Y-69122500D01*
D11*
X57745000Y-65738000D02*
X56105000Y-65738000D01*
X58626000Y-64462000D02*
X56105000Y-64462000D01*
X46649000Y-67438000D02*
X49170000Y-67438000D01*
X47530000Y-66162000D02*
X49170000Y-66162000D01*
D10*
X56662258Y-59177500D02*
X56187742Y-59177500D01*
X56662258Y-60222500D02*
X56187742Y-60222500D01*
D11*
X57795000Y-77763000D02*
X56155000Y-77763000D01*
X58676000Y-76487000D02*
X56155000Y-76487000D01*
D10*
X48612742Y-64477500D02*
X49087258Y-64477500D01*
X48612742Y-65522500D02*
X49087258Y-65522500D01*
X56737258Y-85602500D02*
X56262742Y-85602500D01*
X56737258Y-86647500D02*
X56262742Y-86647500D01*
X56662258Y-66377500D02*
X56187742Y-66377500D01*
X56662258Y-67422500D02*
X56187742Y-67422500D01*
X48612742Y-60877500D02*
X49087258Y-60877500D01*
X48612742Y-61922500D02*
X49087258Y-61922500D01*
X48587742Y-79452500D02*
X49062258Y-79452500D01*
X48587742Y-80497500D02*
X49062258Y-80497500D01*
X56737258Y-82002500D02*
X56262742Y-82002500D01*
X56737258Y-83047500D02*
X56262742Y-83047500D01*
D11*
X46649000Y-75213000D02*
X49170000Y-75213000D01*
X47530000Y-73937000D02*
X49170000Y-73937000D01*
X46624000Y-82413000D02*
X49145000Y-82413000D01*
X47505000Y-81137000D02*
X49145000Y-81137000D01*
D10*
X56762258Y-89202500D02*
X56287742Y-89202500D01*
X56762258Y-90247500D02*
X56287742Y-90247500D01*
X56712258Y-74027500D02*
X56237742Y-74027500D01*
X56712258Y-75072500D02*
X56237742Y-75072500D01*
X48612742Y-53677500D02*
X49087258Y-53677500D01*
X48612742Y-54722500D02*
X49087258Y-54722500D01*
D12*
X61200000Y-94200000D02*
X61200000Y-98400000D01*
X61200000Y-98400000D02*
X63150000Y-98400000D01*
X62950000Y-90800000D02*
X67150000Y-90800000D01*
X64050000Y-99800000D02*
X64050000Y-99800000D01*
X64150000Y-99800000D02*
X64150000Y-99800000D01*
X67150000Y-98400000D02*
X69100000Y-98400000D01*
X69100000Y-98400000D02*
X69100000Y-94200000D01*
X64050000Y-99800000D02*
G75*
G02*
X64150000Y-99800000I50000J0D01*
G01*
X64150000Y-99800000D02*
G75*
G02*
X64050000Y-99800000I-50000J0D01*
G01*
D11*
X57803000Y-73388000D02*
X56163000Y-73388000D01*
X58684000Y-72112000D02*
X56163000Y-72112000D01*
D10*
X48612742Y-57277500D02*
X49087258Y-57277500D01*
X48612742Y-58322500D02*
X49087258Y-58322500D01*
D11*
X57803000Y-81363000D02*
X56163000Y-81363000D01*
X58684000Y-80087000D02*
X56163000Y-80087000D01*
X46641000Y-78813000D02*
X49162000Y-78813000D01*
X47522000Y-77537000D02*
X49162000Y-77537000D01*
X57837000Y-88563000D02*
X56197000Y-88563000D01*
X58718000Y-87287000D02*
X56197000Y-87287000D01*
M02*
