G04 #@! TF.GenerationSoftware,KiCad,Pcbnew,9.0.4*
G04 #@! TF.CreationDate,2026-02-15T18:41:22+03:00*
G04 #@! TF.ProjectId,DevPocket,44657650-6f63-46b6-9574-2e6b69636164,rev?*
G04 #@! TF.SameCoordinates,Original*
G04 #@! TF.FileFunction,Profile,NP*
%FSLAX46Y46*%
G04 Gerber Fmt 4.6, Leading zero omitted, Abs format (unit mm)*
G04 Created by KiCad (PCBNEW 9.0.4) date 2026-02-15 18:41:22*
%MOMM*%
%LPD*%
G01*
G04 APERTURE LIST*
G04 #@! TA.AperFunction,Profile*
%ADD10C,0.200000*%
G04 #@! TD*
G04 APERTURE END LIST*
D10*
X45300000Y-35300000D02*
X47300000Y-35300000D01*
X48300000Y-34300000D02*
G75*
G02*
X47300000Y-35300000I-1000000J0D01*
G01*
X100300000Y-32300000D02*
X100300000Y-34300000D01*
X44300000Y-96300000D02*
X44300000Y-36300000D01*
X49300000Y-101300000D02*
G75*
G02*
X48300000Y-100300000I0J1000000D01*
G01*
X103300000Y-97300000D02*
X101300000Y-97300000D01*
X47300000Y-97300000D02*
G75*
G02*
X48300000Y-98300000I0J-1000000D01*
G01*
X103300000Y-35300000D02*
G75*
G02*
X104300000Y-36300000I0J-1000000D01*
G01*
X101300000Y-35300000D02*
X103300000Y-35300000D01*
X100300000Y-98300000D02*
X100300000Y-100300000D01*
X104300000Y-36300000D02*
X104300000Y-96300000D01*
X48300000Y-32300000D02*
G75*
G02*
X49300000Y-31300000I1000000J0D01*
G01*
X101300000Y-35300000D02*
G75*
G02*
X100300000Y-34300000I0J1000000D01*
G01*
X47300000Y-97300000D02*
X45300000Y-97300000D01*
X100300000Y-98300000D02*
G75*
G02*
X101300000Y-97300000I1000000J0D01*
G01*
X48300000Y-34300000D02*
X48300000Y-32300000D01*
X44300000Y-36300000D02*
G75*
G02*
X45300000Y-35300000I1000000J0D01*
G01*
X99300000Y-101300000D02*
X49300000Y-101300000D01*
X100300000Y-100300000D02*
G75*
G02*
X99300000Y-101300000I-1000000J0D01*
G01*
X48300000Y-100300000D02*
X48300000Y-98300000D01*
X99300000Y-31300000D02*
G75*
G02*
X100300000Y-32300000I0J-1000000D01*
G01*
X45300000Y-97300000D02*
G75*
G02*
X44300000Y-96300000I0J1000000D01*
G01*
X49300000Y-31300000D02*
X99300000Y-31300000D01*
X104300000Y-96300000D02*
G75*
G02*
X103300000Y-97300000I-1000000J0D01*
G01*
M02*
