G04 #@! TF.GenerationSoftware,KiCad,Pcbnew,9.0.4*
G04 #@! TF.CreationDate,2026-02-15T18:41:22+03:00*
G04 #@! TF.ProjectId,DevPocket,44657650-6f63-46b6-9574-2e6b69636164,rev?*
G04 #@! TF.SameCoordinates,Original*
G04 #@! TF.FileFunction,Soldermask,Bot*
G04 #@! TF.FilePolarity,Negative*
%FSLAX46Y46*%
G04 Gerber Fmt 4.6, Leading zero omitted, Abs format (unit mm)*
G04 Created by KiCad (PCBNEW 9.0.4) date 2026-02-15 18:41:22*
%MOMM*%
%LPD*%
G01*
G04 APERTURE LIST*
G04 Aperture macros list*
%AMRoundRect*
0 Rectangle with rounded corners*
0 $1 Rounding radius*
0 $2 $3 $4 $5 $6 $7 $8 $9 X,Y pos of 4 corners*
0 Add a 4 corners polygon primitive as box body*
4,1,4,$2,$3,$4,$5,$6,$7,$8,$9,$2,$3,0*
0 Add four circle primitives for the rounded corners*
1,1,$1+$1,$2,$3*
1,1,$1+$1,$4,$5*
1,1,$1+$1,$6,$7*
1,1,$1+$1,$8,$9*
0 Add four rect primitives between the rounded corners*
20,1,$1+$1,$2,$3,$4,$5,0*
20,1,$1+$1,$4,$5,$6,$7,0*
20,1,$1+$1,$6,$7,$8,$9,0*
20,1,$1+$1,$8,$9,$2,$3,0*%
G04 Aperture macros list end*
%ADD10C,0.100000*%
%ADD11C,5.100000*%
%ADD12C,2.300000*%
%ADD13C,1.700000*%
%ADD14C,1.200000*%
%ADD15C,1.650000*%
%ADD16C,2.100000*%
%ADD17RoundRect,0.050000X0.850000X-0.850000X0.850000X0.850000X-0.850000X0.850000X-0.850000X-0.850000X0*%
%ADD18C,1.800000*%
%ADD19C,0.750000*%
%ADD20RoundRect,0.050000X-0.850000X-0.850000X0.850000X-0.850000X0.850000X0.850000X-0.850000X0.850000X0*%
%ADD21RoundRect,0.225000X0.225000X0.300000X-0.225000X0.300000X-0.225000X-0.300000X0.225000X-0.300000X0*%
%ADD22RoundRect,0.225000X-0.225000X-0.300000X0.225000X-0.300000X0.225000X0.300000X-0.225000X0.300000X0*%
%ADD23RoundRect,0.050000X0.544000X-0.275000X0.544000X0.275000X-0.544000X0.275000X-0.544000X-0.275000X0*%
%ADD24RoundRect,0.050000X-0.544000X0.275000X-0.544000X-0.275000X0.544000X-0.275000X0.544000X0.275000X0*%
%ADD25RoundRect,0.050000X0.500000X0.760000X-0.500000X0.760000X-0.500000X-0.760000X0.500000X-0.760000X0*%
%ADD26C,1.000000*%
%ADD27RoundRect,0.050000X0.500000X1.750000X-0.500000X1.750000X-0.500000X-1.750000X0.500000X-1.750000X0*%
%ADD28RoundRect,0.050000X0.750000X1.700000X-0.750000X1.700000X-0.750000X-1.700000X0.750000X-1.700000X0*%
G04 APERTURE END LIST*
D10*
X65950000Y-86000000D02*
X68300000Y-86000000D01*
X68300000Y-88975000D01*
X65950000Y-88975000D01*
X65950000Y-86000000D01*
G36*
X65950000Y-86000000D02*
G01*
X68300000Y-86000000D01*
X68300000Y-88975000D01*
X65950000Y-88975000D01*
X65950000Y-86000000D01*
G37*
X58175000Y-38975000D02*
X61975000Y-38975000D01*
X61975000Y-42725000D01*
X58175000Y-42725000D01*
X58175000Y-38975000D01*
G36*
X58175000Y-38975000D02*
G01*
X61975000Y-38975000D01*
X61975000Y-42725000D01*
X58175000Y-42725000D01*
X58175000Y-38975000D01*
G37*
D11*
X75600000Y-39150000D03*
D12*
X46400000Y-95200000D03*
D13*
X75200000Y-87200000D03*
D14*
X100200000Y-87200000D03*
D15*
X51050000Y-99250000D03*
X55550000Y-99250000D03*
D16*
X49795000Y-96760000D03*
X56805000Y-96760000D03*
D15*
X93050000Y-99250000D03*
X97550000Y-99250000D03*
D16*
X91795000Y-96760000D03*
X98805000Y-96760000D03*
D12*
X98000000Y-33600000D03*
D17*
X83460000Y-99200000D03*
D18*
X86000000Y-99200000D03*
X88540000Y-99200000D03*
D12*
X46600000Y-37600000D03*
D19*
X71410000Y-96585000D03*
X77190000Y-96585000D03*
D12*
X102200000Y-95200000D03*
D11*
X75600000Y-63300000D03*
X99800000Y-39150000D03*
D17*
X50420000Y-93375000D03*
D18*
X52960000Y-93375000D03*
X55500000Y-93375000D03*
X58040000Y-93375000D03*
D11*
X99800000Y-63300000D03*
D20*
X53940000Y-54160000D03*
D18*
X51400000Y-54160000D03*
X53940000Y-56700000D03*
X51400000Y-56700000D03*
X53940000Y-59240000D03*
X51400000Y-59240000D03*
X53940000Y-61780000D03*
X51400000Y-61780000D03*
X53940000Y-64320000D03*
X51400000Y-64320000D03*
X53940000Y-66860000D03*
X51400000Y-66860000D03*
X53940000Y-69400000D03*
X51400000Y-69400000D03*
X53940000Y-71940000D03*
X51400000Y-71940000D03*
X53940000Y-74480000D03*
X51400000Y-74480000D03*
X53940000Y-77020000D03*
X51400000Y-77020000D03*
X53940000Y-79560000D03*
X51400000Y-79560000D03*
X53940000Y-82100000D03*
X51400000Y-82100000D03*
X53940000Y-84640000D03*
X51400000Y-84640000D03*
X53940000Y-87180000D03*
X51400000Y-87180000D03*
X53940000Y-89720000D03*
X51400000Y-89720000D03*
D21*
X57250000Y-63300000D03*
X55600000Y-63300000D03*
D22*
X48025000Y-76375000D03*
X49675000Y-76375000D03*
D23*
X58158000Y-84325000D03*
X55842000Y-84325000D03*
D21*
X57300000Y-70950000D03*
X55650000Y-70950000D03*
D23*
X58108000Y-69150000D03*
X55792000Y-69150000D03*
X58083000Y-61500000D03*
X55767000Y-61500000D03*
D22*
X48000000Y-90750000D03*
X49650000Y-90750000D03*
D23*
X58083000Y-57900000D03*
X55767000Y-57900000D03*
D22*
X48000000Y-83575000D03*
X49650000Y-83575000D03*
X48000000Y-87175000D03*
X49650000Y-87175000D03*
D24*
X47184000Y-59600000D03*
X49500000Y-59600000D03*
X47192000Y-63200000D03*
X49508000Y-63200000D03*
D25*
X49575000Y-72400000D03*
X47555000Y-72400000D03*
D26*
X50000000Y-35500000D03*
D24*
X47192000Y-52400000D03*
X49508000Y-52400000D03*
D21*
X57300000Y-78925000D03*
X55650000Y-78925000D03*
D24*
X47167000Y-88975000D03*
X49483000Y-88975000D03*
D25*
X49585000Y-70375000D03*
X47565000Y-70375000D03*
D24*
X47167000Y-85375000D03*
X49483000Y-85375000D03*
X47192000Y-56000000D03*
X49508000Y-56000000D03*
D26*
X99500000Y-44500000D03*
D22*
X48025000Y-68600000D03*
X49675000Y-68600000D03*
D23*
X58083000Y-65100000D03*
X55767000Y-65100000D03*
D24*
X47192000Y-66800000D03*
X49508000Y-66800000D03*
D21*
X57250000Y-59700000D03*
X55600000Y-59700000D03*
D23*
X58133000Y-77125000D03*
X55817000Y-77125000D03*
D22*
X48025000Y-65000000D03*
X49675000Y-65000000D03*
D21*
X57325000Y-86125000D03*
X55675000Y-86125000D03*
X57250000Y-66900000D03*
X55600000Y-66900000D03*
D22*
X48025000Y-61400000D03*
X49675000Y-61400000D03*
D26*
X79500000Y-98500000D03*
D22*
X48000000Y-79975000D03*
X49650000Y-79975000D03*
D21*
X57325000Y-82525000D03*
X55675000Y-82525000D03*
D24*
X47192000Y-74575000D03*
X49508000Y-74575000D03*
X47167000Y-81775000D03*
X49483000Y-81775000D03*
D21*
X57350000Y-89725000D03*
X55700000Y-89725000D03*
X57300000Y-74550000D03*
X55650000Y-74550000D03*
D22*
X48025000Y-54200000D03*
X49675000Y-54200000D03*
D27*
X64150000Y-97850000D03*
X66150000Y-97850000D03*
D28*
X61800000Y-92100000D03*
X68500000Y-92100000D03*
D23*
X58141000Y-72750000D03*
X55825000Y-72750000D03*
D22*
X48025000Y-57800000D03*
X49675000Y-57800000D03*
D23*
X58141000Y-80725000D03*
X55825000Y-80725000D03*
D24*
X47184000Y-78175000D03*
X49500000Y-78175000D03*
D23*
X58175000Y-87925000D03*
X55859000Y-87925000D03*
M02*
