G04 #@! TF.GenerationSoftware,KiCad,Pcbnew,9.0.4*
G04 #@! TF.CreationDate,2026-03-12T15:02:46+03:00*
G04 #@! TF.ProjectId,mPCIe_Sens,6d504349-655f-4536-956e-732e6b696361,rev?*
G04 #@! TF.SameCoordinates,Original*
G04 #@! TF.FileFunction,Copper,L2,Bot*
G04 #@! TF.FilePolarity,Positive*
%FSLAX46Y46*%
G04 Gerber Fmt 4.6, Leading zero omitted, Abs format (unit mm)*
G04 Created by KiCad (PCBNEW 9.0.4) date 2026-03-12 15:02:46*
%MOMM*%
%LPD*%
G01*
G04 APERTURE LIST*
G04 Aperture macros list*
%AMRoundRect*
0 Rectangle with rounded corners*
0 $1 Rounding radius*
0 $2 $3 $4 $5 $6 $7 $8 $9 X,Y pos of 4 corners*
0 Add a 4 corners polygon primitive as box body*
4,1,4,$2,$3,$4,$5,$6,$7,$8,$9,$2,$3,0*
0 Add four circle primitives for the rounded corners*
1,1,$1+$1,$2,$3*
1,1,$1+$1,$4,$5*
1,1,$1+$1,$6,$7*
1,1,$1+$1,$8,$9*
0 Add four rect primitives between the rounded corners*
20,1,$1+$1,$2,$3,$4,$5,0*
20,1,$1+$1,$4,$5,$6,$7,0*
20,1,$1+$1,$6,$7,$8,$9,0*
20,1,$1+$1,$8,$9,$2,$3,0*%
G04 Aperture macros list end*
G04 #@! TA.AperFunction,ComponentPad*
%ADD10C,4.000000*%
G04 #@! TD*
G04 #@! TA.AperFunction,SMDPad,CuDef*
%ADD11R,0.600000X2.000000*%
G04 #@! TD*
G04 #@! TA.AperFunction,SMDPad,CuDef*
%ADD12RoundRect,0.225000X0.250000X-0.225000X0.250000X0.225000X-0.250000X0.225000X-0.250000X-0.225000X0*%
G04 #@! TD*
G04 #@! TA.AperFunction,SMDPad,CuDef*
%ADD13R,0.400000X2.000000*%
G04 #@! TD*
G04 #@! TA.AperFunction,SMDPad,CuDef*
%ADD14RoundRect,0.125000X0.125000X-0.125000X0.125000X0.125000X-0.125000X0.125000X-0.125000X-0.125000X0*%
G04 #@! TD*
G04 #@! TA.AperFunction,SMDPad,CuDef*
%ADD15RoundRect,0.200000X0.275000X-0.200000X0.275000X0.200000X-0.275000X0.200000X-0.275000X-0.200000X0*%
G04 #@! TD*
G04 #@! TA.AperFunction,ComponentPad*
%ADD16R,1.700000X1.700000*%
G04 #@! TD*
G04 #@! TA.AperFunction,ComponentPad*
%ADD17C,1.700000*%
G04 #@! TD*
G04 #@! TA.AperFunction,SMDPad,CuDef*
%ADD18RoundRect,0.200000X-0.275000X0.200000X-0.275000X-0.200000X0.275000X-0.200000X0.275000X0.200000X0*%
G04 #@! TD*
G04 #@! TA.AperFunction,SMDPad,CuDef*
%ADD19RoundRect,0.225000X-0.250000X0.225000X-0.250000X-0.225000X0.250000X-0.225000X0.250000X0.225000X0*%
G04 #@! TD*
G04 #@! TA.AperFunction,ViaPad*
%ADD20C,0.600000*%
G04 #@! TD*
G04 #@! TA.AperFunction,ViaPad*
%ADD21C,0.900000*%
G04 #@! TD*
G04 #@! TA.AperFunction,Conductor*
%ADD22C,0.500000*%
G04 #@! TD*
G04 #@! TA.AperFunction,Conductor*
%ADD23C,0.200000*%
G04 #@! TD*
G04 #@! TA.AperFunction,Conductor*
%ADD24C,0.300000*%
G04 #@! TD*
G04 APERTURE END LIST*
D10*
X102635000Y-61340000D03*
X126835000Y-61340000D03*
D11*
X103435000Y-83690000D03*
X104235000Y-83690000D03*
X105035000Y-83690000D03*
X105835000Y-83690000D03*
X106635000Y-83690000D03*
X107435000Y-83690000D03*
X108235000Y-83690000D03*
X109035000Y-83690000D03*
X113035000Y-83690000D03*
X113835000Y-83690000D03*
X114635000Y-83690000D03*
X115435000Y-83690000D03*
X116235000Y-83690000D03*
X117035000Y-83690000D03*
X117835000Y-83690000D03*
X118635000Y-83690000D03*
X119435000Y-83690000D03*
X120235000Y-83690000D03*
X121035000Y-83690000D03*
X121835000Y-83690000D03*
X122635000Y-83690000D03*
X123435000Y-83690000D03*
X124235000Y-83690000D03*
X125035000Y-83690000D03*
X125835000Y-83690000D03*
X126635000Y-83690000D03*
D12*
X152050000Y-72012580D03*
X152050000Y-70462580D03*
X147610000Y-72052580D03*
X147610000Y-70502580D03*
D13*
X156430000Y-67587580D03*
X155730000Y-67587580D03*
X155030000Y-67587580D03*
X154330000Y-67587580D03*
X153630000Y-67587580D03*
X152930000Y-67587580D03*
X152230000Y-67587580D03*
X151530000Y-67587580D03*
X150830000Y-67587580D03*
X150130000Y-67587580D03*
X149430000Y-67587580D03*
X148730000Y-67587580D03*
X148030000Y-67587580D03*
X147330000Y-67587580D03*
X146630000Y-67587580D03*
X145930000Y-67587580D03*
X145230000Y-67587580D03*
X144530000Y-67587580D03*
X143830000Y-67587580D03*
X143130000Y-67587580D03*
X142430000Y-67587580D03*
X141730000Y-67587580D03*
X141030000Y-67587580D03*
X140330000Y-67587580D03*
X139630000Y-67587580D03*
X138930000Y-67587580D03*
X138230000Y-67587580D03*
X137530000Y-67587580D03*
X136830000Y-67587580D03*
X136130000Y-67587580D03*
D12*
X136610000Y-72342580D03*
X136610000Y-70792580D03*
D14*
X144050000Y-72692580D03*
X144050000Y-70492580D03*
D12*
X150190000Y-72032580D03*
X150190000Y-70482580D03*
D15*
X145910000Y-72152580D03*
X145910000Y-70502580D03*
D16*
X136577321Y-101542580D03*
D17*
X139117321Y-101542580D03*
X141657321Y-101542580D03*
X144197321Y-101542580D03*
D18*
X141460000Y-70742580D03*
X141460000Y-72392580D03*
D19*
X138235000Y-70792580D03*
X138235000Y-72342580D03*
D15*
X137970000Y-76922580D03*
X137970000Y-75272580D03*
D18*
X139970000Y-75272580D03*
X139970000Y-76922580D03*
D12*
X155760000Y-72022580D03*
X155760000Y-70472580D03*
X154010000Y-72012580D03*
X154010000Y-70462580D03*
D15*
X139860000Y-72392580D03*
X139860000Y-70742580D03*
D20*
X103620000Y-76270000D03*
X106640000Y-67590000D03*
X118280000Y-76270000D03*
X111635000Y-64340000D03*
X111635000Y-74340000D03*
X119635000Y-66340000D03*
X111635000Y-62340000D03*
X117420000Y-81580000D03*
X103635000Y-64340000D03*
X117635000Y-70340000D03*
X113635000Y-68340000D03*
X101635000Y-68340000D03*
X114720000Y-61180000D03*
X105635000Y-60340000D03*
X101635000Y-66340000D03*
X117635000Y-68340000D03*
X125510000Y-73610000D03*
X108520000Y-77220000D03*
X116240000Y-81760000D03*
X125470000Y-81790000D03*
X121635000Y-64340000D03*
X103370000Y-73350000D03*
X123660000Y-69020000D03*
X112550000Y-76290000D03*
X120820000Y-81790000D03*
X101635000Y-72340000D03*
X108860000Y-72340000D03*
X124140000Y-76260000D03*
X123635000Y-60340000D03*
X116720000Y-76260000D03*
X117635000Y-72340000D03*
X127635000Y-64340000D03*
X121140000Y-71100000D03*
X113040000Y-81740000D03*
X103635000Y-68340000D03*
X107635000Y-60340000D03*
X111635000Y-68340000D03*
X111635000Y-66340000D03*
X101635000Y-70340000D03*
X117635000Y-66340000D03*
X105635000Y-62340000D03*
X117635000Y-64340000D03*
X105070000Y-73940000D03*
X109635000Y-64340000D03*
X106230000Y-81620000D03*
X110990000Y-76270000D03*
X107570000Y-77230000D03*
X119635000Y-64340000D03*
X101635000Y-74340000D03*
X105160000Y-76270000D03*
X101635000Y-80340000D03*
X125690000Y-76270000D03*
X103635000Y-66340000D03*
X101635000Y-64340000D03*
X106620000Y-77240000D03*
X113160000Y-65310000D03*
X108630000Y-81600000D03*
X109480000Y-78980000D03*
X121610000Y-78150000D03*
X109470000Y-75470000D03*
X125710000Y-79730000D03*
X114275000Y-80795000D03*
X123790000Y-80920000D03*
X122610000Y-75470000D03*
X151100000Y-69932580D03*
X137970000Y-77812580D03*
X149240000Y-70482580D03*
X145910000Y-73102580D03*
X119410000Y-81700000D03*
X111900000Y-71970000D03*
X109010000Y-69400000D03*
X120480000Y-79825000D03*
X126085000Y-69345000D03*
X125660000Y-66240000D03*
X110800000Y-59780000D03*
X116790000Y-62275000D03*
X118620000Y-81330000D03*
X135810000Y-78342580D03*
X150190000Y-72982580D03*
X153810000Y-78342580D03*
X147810000Y-74342580D03*
X139810000Y-90342580D03*
X155810000Y-80342580D03*
X147810000Y-82342580D03*
X141810000Y-82342580D03*
X135810000Y-92342580D03*
X141810000Y-86342580D03*
X151810000Y-88342580D03*
X157810000Y-66342580D03*
X141810000Y-84342580D03*
X155810000Y-86342580D03*
X133810000Y-62342580D03*
X145810000Y-96342580D03*
X135810000Y-96342580D03*
X145810000Y-80342580D03*
X149810000Y-82342580D03*
X152050000Y-72952580D03*
X145810000Y-100342580D03*
X145810000Y-86342580D03*
X139810000Y-64342580D03*
X147810000Y-88342580D03*
X145810000Y-94342580D03*
X155810000Y-78342580D03*
X135810000Y-98342580D03*
X157810000Y-72342580D03*
X151810000Y-82342580D03*
X145810000Y-78342580D03*
X133810000Y-70342580D03*
X153810000Y-76342580D03*
X157810000Y-68342580D03*
X137810000Y-90342580D03*
X137810000Y-98342580D03*
X145810000Y-92342580D03*
X139810000Y-96342580D03*
X153810000Y-84342580D03*
X153810000Y-88342580D03*
X133810000Y-94342580D03*
X139860000Y-73242580D03*
X133810000Y-96342580D03*
X139810000Y-86342580D03*
X141810000Y-90342580D03*
X157810000Y-82342580D03*
X147610000Y-73002580D03*
X141810000Y-64342580D03*
X141810000Y-80342580D03*
X133810000Y-98342580D03*
X133810000Y-64342580D03*
X139810000Y-82342580D03*
X145810000Y-64342580D03*
X141810000Y-92342580D03*
X133810000Y-100342580D03*
X151810000Y-84342580D03*
X153810000Y-82342580D03*
X155810000Y-74342580D03*
X133810000Y-72342580D03*
X137810000Y-88342580D03*
X133810000Y-92342580D03*
X139810000Y-92342580D03*
X151810000Y-64342580D03*
X143810000Y-64342580D03*
X137810000Y-96342580D03*
X137810000Y-86342580D03*
X151810000Y-78342580D03*
X141810000Y-94342580D03*
X137810000Y-80342580D03*
X139970000Y-77832580D03*
X155810000Y-76342580D03*
X149810000Y-86342580D03*
X151810000Y-74342580D03*
X153810000Y-74342580D03*
X133810000Y-80342580D03*
X147810000Y-84342580D03*
X133810000Y-76342580D03*
X137810000Y-94342580D03*
X145810000Y-84342580D03*
X157810000Y-64342580D03*
X157810000Y-84342580D03*
X149810000Y-80342580D03*
X149810000Y-64342580D03*
X133810000Y-86342580D03*
X151810000Y-76342580D03*
X151810000Y-80342580D03*
X137810000Y-84342580D03*
X133810000Y-88342580D03*
X153810000Y-86342580D03*
X145810000Y-82342580D03*
X149810000Y-84342580D03*
X135810000Y-80342580D03*
X147810000Y-64342580D03*
X133810000Y-68342580D03*
X157810000Y-76342580D03*
X133810000Y-82342580D03*
X135810000Y-64342580D03*
X147810000Y-86342580D03*
X155810000Y-64342580D03*
D21*
X138280000Y-63837580D03*
D20*
X155810000Y-84342580D03*
X133810000Y-66342580D03*
X157810000Y-88342580D03*
X149810000Y-76342580D03*
X145810000Y-90342580D03*
X135810000Y-84342580D03*
X157810000Y-86342580D03*
X145810000Y-98342580D03*
X147810000Y-78342580D03*
X139810000Y-94342580D03*
X157810000Y-70342580D03*
X139810000Y-98342580D03*
X145810000Y-88342580D03*
X153810000Y-80342580D03*
X135810000Y-74342580D03*
X151810000Y-86342580D03*
X133810000Y-74342580D03*
X135810000Y-86342580D03*
D21*
X154280000Y-63837580D03*
D20*
X141810000Y-88342580D03*
X139810000Y-80342580D03*
X141810000Y-78342580D03*
X141810000Y-96342580D03*
X133810000Y-84342580D03*
X157810000Y-78342580D03*
X137810000Y-82342580D03*
X137810000Y-92342580D03*
X157810000Y-74342580D03*
X147810000Y-80342580D03*
X135810000Y-88342580D03*
X139810000Y-88342580D03*
X135810000Y-76342580D03*
X139810000Y-84342580D03*
X149810000Y-78342580D03*
X157810000Y-80342580D03*
X135810000Y-94342580D03*
X133810000Y-90342580D03*
X133810000Y-60342580D03*
X155810000Y-88342580D03*
X149810000Y-88342580D03*
X135810000Y-82342580D03*
X138240000Y-73242580D03*
X135810000Y-90342580D03*
X133810000Y-78342580D03*
X155810000Y-82342580D03*
X136610000Y-73232580D03*
X142210000Y-74362580D03*
X145990000Y-69302580D03*
X143170000Y-77292580D03*
X143170000Y-75122580D03*
X144550000Y-69302580D03*
X144290000Y-77262580D03*
D22*
X120820000Y-81790000D02*
X121370000Y-81790000D01*
X125835000Y-82155000D02*
X125470000Y-81790000D01*
X121835000Y-82255000D02*
X121835000Y-83690000D01*
X116235000Y-81765000D02*
X116240000Y-81760000D01*
X104235000Y-83690000D02*
X104235000Y-82395000D01*
X120276009Y-81790000D02*
X120820000Y-81790000D01*
X116235000Y-83690000D02*
X116235000Y-81765000D01*
X121370000Y-81790000D02*
X121835000Y-82255000D01*
X113035000Y-81745000D02*
X113040000Y-81740000D01*
X125835000Y-83690000D02*
X125835000Y-82155000D01*
X104910000Y-81720000D02*
X105150000Y-81720000D01*
X104235000Y-82395000D02*
X104910000Y-81720000D01*
X119435000Y-82631009D02*
X120276009Y-81790000D01*
X113035000Y-83690000D02*
X113035000Y-81745000D01*
X119435000Y-83690000D02*
X119435000Y-82631009D01*
D23*
X121610000Y-78150000D02*
X122610000Y-77150000D01*
D22*
X103435000Y-83690000D02*
X103435000Y-82095000D01*
X126635000Y-80655000D02*
X125710000Y-79730000D01*
X126635000Y-83690000D02*
X126635000Y-80655000D01*
X113720000Y-80240000D02*
X114275000Y-80795000D01*
X123790000Y-80920000D02*
X123790000Y-79190000D01*
X123790000Y-79190000D02*
X123750000Y-79150000D01*
X115435000Y-83690000D02*
X115435000Y-81955000D01*
X115435000Y-81955000D02*
X114275000Y-80795000D01*
X103435000Y-82095000D02*
X105290000Y-80240000D01*
X114275000Y-80795000D02*
X115920000Y-79150000D01*
D23*
X109470000Y-78970000D02*
X109470000Y-75470000D01*
D22*
X115920000Y-79150000D02*
X123750000Y-79150000D01*
X105290000Y-80240000D02*
X113720000Y-80240000D01*
X125130000Y-79150000D02*
X125710000Y-79730000D01*
D23*
X109480000Y-78980000D02*
X109470000Y-78970000D01*
D22*
X123750000Y-79150000D02*
X125130000Y-79150000D01*
D23*
X122610000Y-77150000D02*
X122610000Y-75470000D01*
D24*
X152050000Y-69472580D02*
X152050000Y-70462580D01*
X150830000Y-67587580D02*
X150830000Y-68907580D01*
D22*
X144330000Y-72412580D02*
X144330000Y-72402580D01*
D24*
X150830000Y-68907580D02*
X150190000Y-69547580D01*
D23*
X137970000Y-76922580D02*
X137970000Y-77812580D01*
D22*
X145910000Y-72152580D02*
X145910000Y-73102580D01*
D24*
X149430000Y-68787580D02*
X150190000Y-69547580D01*
X151630000Y-70462580D02*
X151100000Y-69932580D01*
X152050000Y-70462580D02*
X151630000Y-70462580D01*
X149430000Y-67587580D02*
X149430000Y-68787580D01*
X152930000Y-68592580D02*
X152050000Y-69472580D01*
X150190000Y-69547580D02*
X150190000Y-70482580D01*
D22*
X144050000Y-72692580D02*
X144330000Y-72412580D01*
X144330000Y-72402580D02*
X144580000Y-72152580D01*
D24*
X150190000Y-70482580D02*
X149240000Y-70482580D01*
X152930000Y-67587580D02*
X152930000Y-68592580D01*
D22*
X144580000Y-72152580D02*
X145910000Y-72152580D01*
D23*
X118635000Y-82475000D02*
X118635000Y-83690000D01*
X119410000Y-81700000D02*
X118635000Y-82475000D01*
X109330000Y-69400000D02*
X109010000Y-69400000D01*
X120480000Y-79825000D02*
X121525000Y-79825000D01*
X120450000Y-79855000D02*
X120480000Y-79825000D01*
X121525000Y-79825000D02*
X122635000Y-80935000D01*
X122635000Y-80935000D02*
X122635000Y-83690000D01*
X111900000Y-71970000D02*
X109330000Y-69400000D01*
X126085000Y-66665000D02*
X126085000Y-69345000D01*
X116790000Y-61610000D02*
X116790000Y-62275000D01*
X114960000Y-59780000D02*
X116790000Y-61610000D01*
X110800000Y-59780000D02*
X114960000Y-59780000D01*
X118620000Y-81330000D02*
X117835000Y-82115000D01*
X125660000Y-66240000D02*
X126085000Y-66665000D01*
X117835000Y-82115000D02*
X117835000Y-83690000D01*
X138235000Y-73237580D02*
X138240000Y-73242580D01*
X139970000Y-76922580D02*
X139970000Y-77832580D01*
X138235000Y-72342580D02*
X138235000Y-73237580D01*
X152050000Y-72012580D02*
X152050000Y-72952580D01*
X136610000Y-72342580D02*
X136610000Y-73232580D01*
X139860000Y-72392580D02*
X139860000Y-73242580D01*
X147610000Y-72052580D02*
X147610000Y-73002580D01*
X150190000Y-72032580D02*
X150190000Y-72982580D01*
X137530000Y-69892580D02*
X136630000Y-70792580D01*
X137530000Y-67587580D02*
X137530000Y-69892580D01*
X136630000Y-70792580D02*
X136610000Y-70792580D01*
X138235000Y-67592580D02*
X138230000Y-67587580D01*
X138235000Y-70792580D02*
X138235000Y-67592580D01*
D24*
X156590000Y-69762580D02*
X156590000Y-71192580D01*
X155730000Y-67587580D02*
X155730000Y-68902580D01*
X156590000Y-71192580D02*
X155760000Y-72022580D01*
X155730000Y-68902580D02*
X156590000Y-69762580D01*
X155030000Y-69742580D02*
X155760000Y-70472580D01*
X155030000Y-67587580D02*
X155030000Y-69742580D01*
X153630000Y-68852580D02*
X153140000Y-69342580D01*
X153630000Y-67587580D02*
X153630000Y-68852580D01*
X153140000Y-71142580D02*
X154010000Y-72012580D01*
X153140000Y-69342580D02*
X153140000Y-71142580D01*
X154010000Y-69482580D02*
X154010000Y-70462580D01*
X154330000Y-69162580D02*
X154010000Y-69482580D01*
X154330000Y-67587580D02*
X154330000Y-69162580D01*
D23*
X147330000Y-69082580D02*
X145910000Y-70502580D01*
X147330000Y-67587580D02*
X147330000Y-69082580D01*
X144050000Y-70492580D02*
X147600000Y-70492580D01*
X147600000Y-70492580D02*
X147610000Y-70502580D01*
X138930000Y-67587580D02*
X138930000Y-69812580D01*
X138930000Y-69812580D02*
X139860000Y-70742580D01*
X141300000Y-75272580D02*
X142210000Y-74362580D01*
X146630000Y-67587580D02*
X146630000Y-68662580D01*
X137970000Y-75272580D02*
X139970000Y-75272580D01*
X139970000Y-75272580D02*
X141300000Y-75272580D01*
X146630000Y-68662580D02*
X145990000Y-69302580D01*
X143130000Y-69072580D02*
X143130000Y-67587580D01*
X141460000Y-70742580D02*
X143130000Y-69072580D01*
X144530000Y-69282580D02*
X144550000Y-69302580D01*
X143170000Y-77292580D02*
X143170000Y-75122580D01*
X144530000Y-67587580D02*
X144530000Y-69282580D01*
X141460000Y-72392580D02*
X141460000Y-71992580D01*
X141460000Y-71992580D02*
X143830000Y-69622580D01*
X143830000Y-69622580D02*
X143830000Y-67587580D01*
X144290000Y-75222580D02*
X141460000Y-72392580D01*
X144290000Y-77262580D02*
X144290000Y-75222580D01*
G04 #@! TA.AperFunction,Conductor*
G36*
X110275474Y-58960185D02*
G01*
X110321229Y-59012989D01*
X110331173Y-59082147D01*
X110302148Y-59145703D01*
X110293873Y-59153758D01*
X110294018Y-59153903D01*
X110178213Y-59269707D01*
X110178210Y-59269711D01*
X110090609Y-59400814D01*
X110090602Y-59400827D01*
X110030264Y-59546498D01*
X110030261Y-59546510D01*
X109999500Y-59701153D01*
X109999500Y-59858846D01*
X110030261Y-60013489D01*
X110030264Y-60013501D01*
X110090602Y-60159172D01*
X110090609Y-60159185D01*
X110178210Y-60290288D01*
X110178213Y-60290292D01*
X110289707Y-60401786D01*
X110289711Y-60401789D01*
X110420814Y-60489390D01*
X110420827Y-60489397D01*
X110566498Y-60549735D01*
X110566503Y-60549737D01*
X110721153Y-60580499D01*
X110721156Y-60580500D01*
X110721158Y-60580500D01*
X110878844Y-60580500D01*
X110878845Y-60580499D01*
X111033497Y-60549737D01*
X111179179Y-60489394D01*
X111179185Y-60489390D01*
X111310875Y-60401398D01*
X111377553Y-60380520D01*
X111379766Y-60380500D01*
X114659903Y-60380500D01*
X114726942Y-60400185D01*
X114747584Y-60416819D01*
X116067119Y-61736354D01*
X116100604Y-61797677D01*
X116095620Y-61867369D01*
X116082542Y-61892922D01*
X116080613Y-61895808D01*
X116080602Y-61895828D01*
X116020264Y-62041498D01*
X116020261Y-62041510D01*
X115989500Y-62196153D01*
X115989500Y-62353846D01*
X116020261Y-62508489D01*
X116020264Y-62508501D01*
X116080602Y-62654172D01*
X116080609Y-62654185D01*
X116168210Y-62785288D01*
X116168213Y-62785292D01*
X116279707Y-62896786D01*
X116279711Y-62896789D01*
X116410814Y-62984390D01*
X116410827Y-62984397D01*
X116556498Y-63044735D01*
X116556503Y-63044737D01*
X116711153Y-63075499D01*
X116711156Y-63075500D01*
X116711158Y-63075500D01*
X116868844Y-63075500D01*
X116868845Y-63075499D01*
X117023497Y-63044737D01*
X117169179Y-62984394D01*
X117300289Y-62896789D01*
X117411789Y-62785289D01*
X117499394Y-62654179D01*
X117559737Y-62508497D01*
X117590500Y-62353842D01*
X117590500Y-62196158D01*
X117590500Y-62196155D01*
X117590499Y-62196153D01*
X117559738Y-62041510D01*
X117559737Y-62041503D01*
X117499397Y-61895828D01*
X117499397Y-61895827D01*
X117499390Y-61895814D01*
X117411399Y-61764126D01*
X117390521Y-61697448D01*
X117390501Y-61695235D01*
X117390501Y-61530945D01*
X117390501Y-61530943D01*
X117349577Y-61378215D01*
X117320639Y-61328095D01*
X117270520Y-61241284D01*
X117158716Y-61129480D01*
X117158715Y-61129479D01*
X117154385Y-61125149D01*
X117154374Y-61125139D01*
X115447590Y-59418355D01*
X115447588Y-59418352D01*
X115328717Y-59299481D01*
X115328716Y-59299480D01*
X115277147Y-59269707D01*
X115251466Y-59254880D01*
X115251463Y-59254879D01*
X115241904Y-59249360D01*
X115191785Y-59220423D01*
X115051836Y-59182923D01*
X115046925Y-59181153D01*
X115022773Y-59163486D01*
X114997219Y-59147910D01*
X114994870Y-59143075D01*
X114990532Y-59139902D01*
X114979764Y-59111977D01*
X114966690Y-59085063D01*
X114967328Y-59079726D01*
X114965394Y-59074711D01*
X114971432Y-59045395D01*
X114974985Y-59015687D01*
X114978406Y-59011543D01*
X114979491Y-59006278D01*
X115000416Y-58984885D01*
X115019470Y-58961809D01*
X115024590Y-58960172D01*
X115028348Y-58956331D01*
X115057510Y-58949648D01*
X115086022Y-58940535D01*
X115088973Y-58940500D01*
X125523463Y-58940500D01*
X125590502Y-58960185D01*
X125636257Y-59012989D01*
X125646201Y-59082147D01*
X125617176Y-59145703D01*
X125589435Y-59169494D01*
X125385753Y-59297476D01*
X125166175Y-59472583D01*
X124967583Y-59671175D01*
X124792476Y-59890753D01*
X124643053Y-60128557D01*
X124521200Y-60381588D01*
X124428443Y-60646670D01*
X124428439Y-60646682D01*
X124365945Y-60920487D01*
X124365942Y-60920505D01*
X124334500Y-61199568D01*
X124334500Y-61480431D01*
X124365942Y-61759494D01*
X124365945Y-61759512D01*
X124428439Y-62033317D01*
X124428443Y-62033329D01*
X124521200Y-62298411D01*
X124643053Y-62551442D01*
X124663823Y-62584497D01*
X124792477Y-62789248D01*
X124967584Y-63008825D01*
X125166175Y-63207416D01*
X125385752Y-63382523D01*
X125623555Y-63531945D01*
X125876592Y-63653801D01*
X126075680Y-63723465D01*
X126141670Y-63746556D01*
X126141682Y-63746560D01*
X126415491Y-63809055D01*
X126415497Y-63809055D01*
X126415505Y-63809057D01*
X126601547Y-63830018D01*
X126694569Y-63840499D01*
X126694572Y-63840500D01*
X126694575Y-63840500D01*
X126975428Y-63840500D01*
X126975429Y-63840499D01*
X127118055Y-63824429D01*
X127254494Y-63809057D01*
X127254499Y-63809056D01*
X127254509Y-63809055D01*
X127528318Y-63746560D01*
X127793408Y-63653801D01*
X128046445Y-63531945D01*
X128284248Y-63382523D01*
X128503825Y-63207416D01*
X128702416Y-63008825D01*
X128877523Y-62789248D01*
X129005507Y-62585562D01*
X129057841Y-62539273D01*
X129126894Y-62528625D01*
X129190743Y-62557000D01*
X129229115Y-62615389D01*
X129234500Y-62651536D01*
X129234500Y-64535891D01*
X129245775Y-64577970D01*
X129250000Y-64610063D01*
X129250000Y-67348596D01*
X129245775Y-67380688D01*
X129239500Y-67404106D01*
X129239500Y-75285891D01*
X129245775Y-75309310D01*
X129250000Y-75341403D01*
X129250000Y-78079935D01*
X129245775Y-78112027D01*
X129234500Y-78154106D01*
X129234500Y-81415500D01*
X129214815Y-81482539D01*
X129162011Y-81528294D01*
X129110500Y-81539500D01*
X128450892Y-81539500D01*
X128385000Y-81539500D01*
X128282648Y-81539500D01*
X128268215Y-81541786D01*
X128080465Y-81571522D01*
X127885776Y-81634781D01*
X127703390Y-81727712D01*
X127582385Y-81815627D01*
X127516578Y-81839106D01*
X127448524Y-81823280D01*
X127399830Y-81773174D01*
X127385500Y-81715308D01*
X127385500Y-80581080D01*
X127379308Y-80549956D01*
X127376213Y-80534394D01*
X127356659Y-80436088D01*
X127312830Y-80330276D01*
X127300084Y-80299505D01*
X127300082Y-80299502D01*
X127300080Y-80299498D01*
X127217952Y-80176585D01*
X127217951Y-80176584D01*
X127113416Y-80072049D01*
X126456072Y-79414705D01*
X126429191Y-79374473D01*
X126419397Y-79350828D01*
X126419396Y-79350826D01*
X126419394Y-79350821D01*
X126390324Y-79307315D01*
X126331789Y-79219710D01*
X126220292Y-79108213D01*
X126220288Y-79108210D01*
X126089185Y-79020609D01*
X126089175Y-79020604D01*
X126065523Y-79010807D01*
X126025295Y-78983927D01*
X125608421Y-78567052D01*
X125608414Y-78567046D01*
X125534729Y-78517812D01*
X125534729Y-78517813D01*
X125485491Y-78484913D01*
X125348917Y-78428343D01*
X125348907Y-78428340D01*
X125203920Y-78399500D01*
X125203918Y-78399500D01*
X123823918Y-78399500D01*
X122527649Y-78399500D01*
X122507437Y-78393565D01*
X122486399Y-78392438D01*
X122474583Y-78383918D01*
X122460610Y-78379815D01*
X122446816Y-78363896D01*
X122429726Y-78351573D01*
X122424392Y-78338017D01*
X122414855Y-78327011D01*
X122411856Y-78306159D01*
X122404143Y-78286555D01*
X122405471Y-78261752D01*
X122404911Y-78257853D01*
X122406031Y-78251312D01*
X122410637Y-78228153D01*
X122443021Y-78166241D01*
X122444515Y-78164719D01*
X123090520Y-77518716D01*
X123169577Y-77381784D01*
X123210501Y-77229057D01*
X123210501Y-77070942D01*
X123210501Y-77063347D01*
X123210500Y-77063329D01*
X123210500Y-76049765D01*
X123230185Y-75982726D01*
X123231398Y-75980874D01*
X123319390Y-75849185D01*
X123319390Y-75849184D01*
X123319394Y-75849179D01*
X123379737Y-75703497D01*
X123410500Y-75548842D01*
X123410500Y-75391158D01*
X123410500Y-75391155D01*
X123410499Y-75391153D01*
X123379738Y-75236510D01*
X123379737Y-75236503D01*
X123379735Y-75236498D01*
X123319397Y-75090827D01*
X123319390Y-75090814D01*
X123231789Y-74959711D01*
X123231786Y-74959707D01*
X123120292Y-74848213D01*
X123120288Y-74848210D01*
X122989185Y-74760609D01*
X122989172Y-74760602D01*
X122843501Y-74700264D01*
X122843489Y-74700261D01*
X122688845Y-74669500D01*
X122688842Y-74669500D01*
X122531158Y-74669500D01*
X122531155Y-74669500D01*
X122376510Y-74700261D01*
X122376498Y-74700264D01*
X122230827Y-74760602D01*
X122230814Y-74760609D01*
X122099711Y-74848210D01*
X122099707Y-74848213D01*
X121988213Y-74959707D01*
X121988210Y-74959711D01*
X121900609Y-75090814D01*
X121900602Y-75090827D01*
X121840264Y-75236498D01*
X121840261Y-75236510D01*
X121809500Y-75391153D01*
X121809500Y-75548846D01*
X121840261Y-75703489D01*
X121840264Y-75703501D01*
X121900602Y-75849172D01*
X121900609Y-75849185D01*
X121988602Y-75980874D01*
X122009480Y-76047551D01*
X122009500Y-76049765D01*
X122009500Y-76849902D01*
X121989815Y-76916941D01*
X121973181Y-76937583D01*
X121595339Y-77315425D01*
X121534016Y-77348910D01*
X121531850Y-77349361D01*
X121376508Y-77380261D01*
X121376498Y-77380264D01*
X121230827Y-77440602D01*
X121230814Y-77440609D01*
X121099711Y-77528210D01*
X121099707Y-77528213D01*
X120988213Y-77639707D01*
X120988210Y-77639711D01*
X120900609Y-77770814D01*
X120900602Y-77770827D01*
X120840264Y-77916498D01*
X120840261Y-77916510D01*
X120809500Y-78071153D01*
X120809500Y-78228841D01*
X120813969Y-78251310D01*
X120807740Y-78320901D01*
X120764877Y-78376078D01*
X120698987Y-78399322D01*
X120692351Y-78399500D01*
X115846080Y-78399500D01*
X115701092Y-78428340D01*
X115701082Y-78428343D01*
X115564511Y-78484912D01*
X115564498Y-78484919D01*
X115441584Y-78567048D01*
X115441580Y-78567051D01*
X114362012Y-79646619D01*
X114300689Y-79680104D01*
X114230997Y-79675120D01*
X114204032Y-79659607D01*
X114203481Y-79660433D01*
X114198418Y-79657050D01*
X114198416Y-79657048D01*
X114100319Y-79591503D01*
X114100319Y-79591502D01*
X114075495Y-79574916D01*
X114075490Y-79574913D01*
X113938917Y-79518343D01*
X113938907Y-79518340D01*
X113793920Y-79489500D01*
X113793918Y-79489500D01*
X110320992Y-79489500D01*
X110253953Y-79469815D01*
X110208198Y-79417011D01*
X110198254Y-79347853D01*
X110206431Y-79318047D01*
X110249737Y-79213497D01*
X110280500Y-79058842D01*
X110280500Y-78901158D01*
X110280500Y-78901155D01*
X110280499Y-78901153D01*
X110249738Y-78746510D01*
X110249737Y-78746503D01*
X110238966Y-78720500D01*
X110189397Y-78600827D01*
X110189390Y-78600814D01*
X110101791Y-78469713D01*
X110098642Y-78465876D01*
X110071333Y-78401564D01*
X110070500Y-78387216D01*
X110070500Y-76049765D01*
X110090185Y-75982726D01*
X110091398Y-75980874D01*
X110179390Y-75849185D01*
X110179390Y-75849184D01*
X110179394Y-75849179D01*
X110239737Y-75703497D01*
X110270500Y-75548842D01*
X110270500Y-75391158D01*
X110270500Y-75391155D01*
X110270499Y-75391153D01*
X110239738Y-75236510D01*
X110239737Y-75236503D01*
X110239735Y-75236498D01*
X110179397Y-75090827D01*
X110179390Y-75090814D01*
X110091789Y-74959711D01*
X110091786Y-74959707D01*
X109980292Y-74848213D01*
X109980288Y-74848210D01*
X109849185Y-74760609D01*
X109849172Y-74760602D01*
X109703501Y-74700264D01*
X109703489Y-74700261D01*
X109548845Y-74669500D01*
X109548842Y-74669500D01*
X109391158Y-74669500D01*
X109391155Y-74669500D01*
X109236510Y-74700261D01*
X109236498Y-74700264D01*
X109090827Y-74760602D01*
X109090814Y-74760609D01*
X108959711Y-74848210D01*
X108959707Y-74848213D01*
X108848213Y-74959707D01*
X108848210Y-74959711D01*
X108760609Y-75090814D01*
X108760602Y-75090827D01*
X108700264Y-75236498D01*
X108700261Y-75236510D01*
X108669500Y-75391153D01*
X108669500Y-75548846D01*
X108700261Y-75703489D01*
X108700264Y-75703501D01*
X108760602Y-75849172D01*
X108760609Y-75849185D01*
X108848602Y-75980874D01*
X108869480Y-76047551D01*
X108869500Y-76049765D01*
X108869500Y-78415200D01*
X108849815Y-78482239D01*
X108848602Y-78484091D01*
X108770609Y-78600814D01*
X108770602Y-78600827D01*
X108710264Y-78746498D01*
X108710261Y-78746510D01*
X108679500Y-78901153D01*
X108679500Y-79058846D01*
X108710261Y-79213489D01*
X108710263Y-79213497D01*
X108712836Y-79219710D01*
X108753569Y-79318047D01*
X108761038Y-79387517D01*
X108729763Y-79449996D01*
X108669674Y-79485648D01*
X108639008Y-79489500D01*
X105216080Y-79489500D01*
X105071092Y-79518340D01*
X105071082Y-79518343D01*
X104934511Y-79574912D01*
X104934498Y-79574919D01*
X104811584Y-79657048D01*
X104811580Y-79657051D01*
X102852047Y-81616584D01*
X102852043Y-81616589D01*
X102808362Y-81681966D01*
X102808361Y-81681968D01*
X102769919Y-81739499D01*
X102769912Y-81739511D01*
X102713343Y-81876082D01*
X102713340Y-81876092D01*
X102700590Y-81940192D01*
X102668205Y-82002103D01*
X102607489Y-82036677D01*
X102578973Y-82040000D01*
X102174454Y-82040000D01*
X102107415Y-82020315D01*
X102081149Y-81995618D01*
X102080132Y-81996488D01*
X102076964Y-81992779D01*
X101932213Y-81848028D01*
X101766613Y-81727715D01*
X101766612Y-81727714D01*
X101766610Y-81727713D01*
X101676825Y-81681965D01*
X101584223Y-81634781D01*
X101389534Y-81571522D01*
X101214995Y-81543878D01*
X101187352Y-81539500D01*
X101187351Y-81539500D01*
X100359500Y-81539500D01*
X100292461Y-81519815D01*
X100246706Y-81467011D01*
X100235500Y-81415500D01*
X100235500Y-69321153D01*
X108209500Y-69321153D01*
X108209500Y-69478846D01*
X108240261Y-69633489D01*
X108240264Y-69633501D01*
X108300602Y-69779172D01*
X108300609Y-69779185D01*
X108388210Y-69910288D01*
X108388213Y-69910292D01*
X108499707Y-70021786D01*
X108499711Y-70021789D01*
X108630814Y-70109390D01*
X108630827Y-70109397D01*
X108717989Y-70145500D01*
X108776503Y-70169737D01*
X108931153Y-70200499D01*
X108931156Y-70200500D01*
X108931158Y-70200500D01*
X109088843Y-70200500D01*
X109109296Y-70196431D01*
X109184334Y-70181505D01*
X109253924Y-70187732D01*
X109296206Y-70215441D01*
X111065425Y-71984660D01*
X111098910Y-72045983D01*
X111099361Y-72048149D01*
X111130261Y-72203491D01*
X111130264Y-72203501D01*
X111190602Y-72349172D01*
X111190609Y-72349185D01*
X111278210Y-72480288D01*
X111278213Y-72480292D01*
X111389707Y-72591786D01*
X111389711Y-72591789D01*
X111520814Y-72679390D01*
X111520827Y-72679397D01*
X111666498Y-72739735D01*
X111666503Y-72739737D01*
X111821153Y-72770499D01*
X111821156Y-72770500D01*
X111821158Y-72770500D01*
X111978844Y-72770500D01*
X111978845Y-72770499D01*
X112133497Y-72739737D01*
X112279179Y-72679394D01*
X112410289Y-72591789D01*
X112521789Y-72480289D01*
X112609394Y-72349179D01*
X112669737Y-72203497D01*
X112700500Y-72048842D01*
X112700500Y-71891158D01*
X112700500Y-71891155D01*
X112700499Y-71891153D01*
X112669738Y-71736510D01*
X112669737Y-71736503D01*
X112669735Y-71736498D01*
X112609397Y-71590827D01*
X112609390Y-71590814D01*
X112521789Y-71459711D01*
X112521786Y-71459707D01*
X112410292Y-71348213D01*
X112410288Y-71348210D01*
X112279185Y-71260609D01*
X112279172Y-71260602D01*
X112133501Y-71200264D01*
X112133491Y-71200261D01*
X111978149Y-71169361D01*
X111916238Y-71136976D01*
X111914660Y-71135425D01*
X109817590Y-69038355D01*
X109817588Y-69038352D01*
X109698717Y-68919481D01*
X109698716Y-68919480D01*
X109624938Y-68876885D01*
X109599259Y-68857181D01*
X109520289Y-68778211D01*
X109520288Y-68778210D01*
X109520287Y-68778209D01*
X109389185Y-68690609D01*
X109389172Y-68690602D01*
X109243501Y-68630264D01*
X109243489Y-68630261D01*
X109088845Y-68599500D01*
X109088842Y-68599500D01*
X108931158Y-68599500D01*
X108931155Y-68599500D01*
X108776510Y-68630261D01*
X108776498Y-68630264D01*
X108630827Y-68690602D01*
X108630814Y-68690609D01*
X108499711Y-68778210D01*
X108499707Y-68778213D01*
X108388213Y-68889707D01*
X108388210Y-68889711D01*
X108300609Y-69020814D01*
X108300602Y-69020827D01*
X108240264Y-69166498D01*
X108240261Y-69166510D01*
X108209500Y-69321153D01*
X100235500Y-69321153D01*
X100235500Y-66161153D01*
X124859500Y-66161153D01*
X124859500Y-66318846D01*
X124890261Y-66473489D01*
X124890264Y-66473501D01*
X124950602Y-66619172D01*
X124950609Y-66619185D01*
X125038210Y-66750288D01*
X125038213Y-66750292D01*
X125149707Y-66861786D01*
X125149711Y-66861789D01*
X125280814Y-66949390D01*
X125280821Y-66949394D01*
X125407955Y-67002054D01*
X125462355Y-67045892D01*
X125484421Y-67112186D01*
X125484500Y-67116613D01*
X125484500Y-68765234D01*
X125464815Y-68832273D01*
X125463602Y-68834125D01*
X125375609Y-68965814D01*
X125375602Y-68965827D01*
X125315264Y-69111498D01*
X125315261Y-69111510D01*
X125284500Y-69266153D01*
X125284500Y-69423846D01*
X125315261Y-69578489D01*
X125315264Y-69578501D01*
X125375602Y-69724172D01*
X125375609Y-69724185D01*
X125463210Y-69855288D01*
X125463213Y-69855292D01*
X125574707Y-69966786D01*
X125574711Y-69966789D01*
X125705814Y-70054390D01*
X125705827Y-70054397D01*
X125838611Y-70109397D01*
X125851503Y-70114737D01*
X126006153Y-70145499D01*
X126006156Y-70145500D01*
X126006158Y-70145500D01*
X126163844Y-70145500D01*
X126163845Y-70145499D01*
X126318497Y-70114737D01*
X126464179Y-70054394D01*
X126595289Y-69966789D01*
X126706789Y-69855289D01*
X126794394Y-69724179D01*
X126854737Y-69578497D01*
X126885500Y-69423842D01*
X126885500Y-69266158D01*
X126885500Y-69266155D01*
X126885499Y-69266153D01*
X126854737Y-69111503D01*
X126854735Y-69111498D01*
X126794397Y-68965827D01*
X126794390Y-68965814D01*
X126706398Y-68834125D01*
X126685520Y-68767447D01*
X126685500Y-68765234D01*
X126685500Y-66754060D01*
X126685501Y-66754047D01*
X126685501Y-66585944D01*
X126685501Y-66585943D01*
X126644577Y-66433216D01*
X126644573Y-66433209D01*
X126565524Y-66296290D01*
X126565518Y-66296282D01*
X126494573Y-66225337D01*
X126461088Y-66164014D01*
X126460637Y-66161847D01*
X126429738Y-66006510D01*
X126429737Y-66006503D01*
X126429735Y-66006498D01*
X126369397Y-65860827D01*
X126369390Y-65860814D01*
X126281789Y-65729711D01*
X126281786Y-65729707D01*
X126170292Y-65618213D01*
X126170288Y-65618210D01*
X126039185Y-65530609D01*
X126039172Y-65530602D01*
X125893501Y-65470264D01*
X125893489Y-65470261D01*
X125738845Y-65439500D01*
X125738842Y-65439500D01*
X125581158Y-65439500D01*
X125581155Y-65439500D01*
X125426510Y-65470261D01*
X125426498Y-65470264D01*
X125280827Y-65530602D01*
X125280814Y-65530609D01*
X125149711Y-65618210D01*
X125149707Y-65618213D01*
X125038213Y-65729707D01*
X125038210Y-65729711D01*
X124950609Y-65860814D01*
X124950602Y-65860827D01*
X124890264Y-66006498D01*
X124890261Y-66006510D01*
X124859500Y-66161153D01*
X100235500Y-66161153D01*
X100235500Y-62651536D01*
X100255185Y-62584497D01*
X100307989Y-62538742D01*
X100377147Y-62528798D01*
X100440703Y-62557823D01*
X100464491Y-62585561D01*
X100592477Y-62789248D01*
X100767584Y-63008825D01*
X100966175Y-63207416D01*
X101185752Y-63382523D01*
X101423555Y-63531945D01*
X101676592Y-63653801D01*
X101875680Y-63723465D01*
X101941670Y-63746556D01*
X101941682Y-63746560D01*
X102215491Y-63809055D01*
X102215497Y-63809055D01*
X102215505Y-63809057D01*
X102401547Y-63830018D01*
X102494569Y-63840499D01*
X102494572Y-63840500D01*
X102494575Y-63840500D01*
X102775428Y-63840500D01*
X102775429Y-63840499D01*
X102918055Y-63824429D01*
X103054494Y-63809057D01*
X103054499Y-63809056D01*
X103054509Y-63809055D01*
X103328318Y-63746560D01*
X103593408Y-63653801D01*
X103846445Y-63531945D01*
X104084248Y-63382523D01*
X104303825Y-63207416D01*
X104502416Y-63008825D01*
X104677523Y-62789248D01*
X104826945Y-62551445D01*
X104948801Y-62298408D01*
X105041560Y-62033318D01*
X105104055Y-61759509D01*
X105135500Y-61480425D01*
X105135500Y-61199575D01*
X105104055Y-60920491D01*
X105041560Y-60646682D01*
X104948801Y-60381592D01*
X104826945Y-60128555D01*
X104677523Y-59890752D01*
X104502416Y-59671175D01*
X104303825Y-59472584D01*
X104084248Y-59297477D01*
X103880565Y-59169494D01*
X103834274Y-59117159D01*
X103823626Y-59048106D01*
X103852001Y-58984257D01*
X103910391Y-58945885D01*
X103946537Y-58940500D01*
X110208435Y-58940500D01*
X110275474Y-58960185D01*
G37*
G04 #@! TD.AperFunction*
G04 #@! TA.AperFunction,Conductor*
G36*
X109938688Y-80994618D02*
G01*
X109953291Y-80993850D01*
X109971541Y-81004265D01*
X109991700Y-81010185D01*
X110001274Y-81021234D01*
X110013974Y-81028482D01*
X110023696Y-81047110D01*
X110037455Y-81062989D01*
X110039535Y-81077460D01*
X110046301Y-81090423D01*
X110044408Y-81111349D01*
X110047399Y-81132147D01*
X110041212Y-81146695D01*
X110040008Y-81160009D01*
X110022515Y-81190660D01*
X109987929Y-81235097D01*
X109934534Y-81303698D01*
X109835900Y-81485956D01*
X109835898Y-81485962D01*
X109768610Y-81681965D01*
X109734500Y-81886381D01*
X109734500Y-81916000D01*
X109714815Y-81983039D01*
X109662011Y-82028794D01*
X109610500Y-82040000D01*
X104850729Y-82040000D01*
X104783690Y-82020315D01*
X104737935Y-81967511D01*
X104727991Y-81898353D01*
X104757016Y-81834797D01*
X104763048Y-81828319D01*
X105564548Y-81026819D01*
X105625871Y-80993334D01*
X105652229Y-80990500D01*
X109924661Y-80990500D01*
X109938688Y-80994618D01*
G37*
G04 #@! TD.AperFunction*
G04 #@! TA.AperFunction,Conductor*
G36*
X113424809Y-81010185D02*
G01*
X113445451Y-81026819D01*
X113528927Y-81110295D01*
X113555806Y-81150521D01*
X113565606Y-81174179D01*
X113565607Y-81174181D01*
X113653207Y-81305284D01*
X113653213Y-81305292D01*
X113764710Y-81416789D01*
X113885620Y-81497578D01*
X113895821Y-81504394D01*
X113919475Y-81514191D01*
X113959703Y-81541071D01*
X114246951Y-81828319D01*
X114280436Y-81889642D01*
X114275452Y-81959334D01*
X114233580Y-82015267D01*
X114168116Y-82039684D01*
X114159270Y-82040000D01*
X112359500Y-82040000D01*
X112292461Y-82020315D01*
X112246706Y-81967511D01*
X112235500Y-81916000D01*
X112235500Y-81886381D01*
X112223693Y-81815627D01*
X112201390Y-81681968D01*
X112134100Y-81485958D01*
X112035465Y-81303697D01*
X111947485Y-81190661D01*
X111921843Y-81125669D01*
X111935409Y-81057129D01*
X111983878Y-81006804D01*
X112045339Y-80990500D01*
X113357770Y-80990500D01*
X113424809Y-81010185D01*
G37*
G04 #@! TD.AperFunction*
G04 #@! TA.AperFunction,Conductor*
G36*
X119607532Y-79909444D02*
G01*
X119638431Y-79916746D01*
X119640816Y-79919217D01*
X119644110Y-79920185D01*
X119664895Y-79944173D01*
X119686946Y-79967025D01*
X119688490Y-79971402D01*
X119689865Y-79972989D01*
X119698688Y-80000308D01*
X119710261Y-80058491D01*
X119710264Y-80058501D01*
X119770602Y-80204172D01*
X119770609Y-80204185D01*
X119858210Y-80335288D01*
X119858213Y-80335292D01*
X119969707Y-80446786D01*
X119969711Y-80446789D01*
X120100814Y-80534390D01*
X120100827Y-80534397D01*
X120246498Y-80594735D01*
X120246503Y-80594737D01*
X120401153Y-80625499D01*
X120401156Y-80625500D01*
X120401158Y-80625500D01*
X120558844Y-80625500D01*
X120558845Y-80625499D01*
X120713497Y-80594737D01*
X120859179Y-80534394D01*
X120866503Y-80529500D01*
X120990875Y-80446398D01*
X121008921Y-80440747D01*
X121024831Y-80430523D01*
X121055792Y-80426071D01*
X121057553Y-80425520D01*
X121059766Y-80425500D01*
X121224903Y-80425500D01*
X121291942Y-80445185D01*
X121312584Y-80461819D01*
X121998181Y-81147416D01*
X122031666Y-81208739D01*
X122034500Y-81235097D01*
X122034500Y-81916000D01*
X122014815Y-81983039D01*
X121962011Y-82028794D01*
X121910500Y-82040000D01*
X120309647Y-82040000D01*
X120242608Y-82020315D01*
X120196853Y-81967511D01*
X120186909Y-81898353D01*
X120188030Y-81891809D01*
X120210500Y-81778843D01*
X120210500Y-81621155D01*
X120210499Y-81621153D01*
X120200627Y-81571522D01*
X120179737Y-81466503D01*
X120164737Y-81430289D01*
X120119397Y-81320827D01*
X120119390Y-81320814D01*
X120031789Y-81189711D01*
X120031786Y-81189707D01*
X119920292Y-81078213D01*
X119920288Y-81078210D01*
X119789185Y-80990609D01*
X119789172Y-80990602D01*
X119643501Y-80930264D01*
X119643489Y-80930261D01*
X119488845Y-80899500D01*
X119488842Y-80899500D01*
X119361382Y-80899500D01*
X119294343Y-80879815D01*
X119258280Y-80844391D01*
X119241789Y-80819711D01*
X119241786Y-80819707D01*
X119130292Y-80708213D01*
X119130288Y-80708210D01*
X118999185Y-80620609D01*
X118999172Y-80620602D01*
X118853501Y-80560264D01*
X118853489Y-80560261D01*
X118698845Y-80529500D01*
X118698842Y-80529500D01*
X118541158Y-80529500D01*
X118541155Y-80529500D01*
X118386510Y-80560261D01*
X118386498Y-80560264D01*
X118240827Y-80620602D01*
X118240814Y-80620609D01*
X118109711Y-80708210D01*
X118109707Y-80708213D01*
X117998213Y-80819707D01*
X117998210Y-80819711D01*
X117910609Y-80950814D01*
X117910602Y-80950827D01*
X117850264Y-81096498D01*
X117850261Y-81096508D01*
X117819362Y-81251848D01*
X117786977Y-81313759D01*
X117785426Y-81315337D01*
X117468991Y-81631772D01*
X117468983Y-81631780D01*
X117466286Y-81634478D01*
X117466284Y-81634480D01*
X117354480Y-81746284D01*
X117335683Y-81778842D01*
X117275423Y-81883215D01*
X117258038Y-81948095D01*
X117221674Y-82007754D01*
X117158826Y-82038283D01*
X117138264Y-82040000D01*
X116309500Y-82040000D01*
X116307149Y-82039309D01*
X116304775Y-82039910D01*
X116273800Y-82029517D01*
X116242461Y-82020315D01*
X116240857Y-82018464D01*
X116238535Y-82017685D01*
X116218095Y-81992196D01*
X116196706Y-81967511D01*
X116195882Y-81964494D01*
X116194825Y-81963176D01*
X116192996Y-81953926D01*
X116186179Y-81928958D01*
X116185500Y-81922496D01*
X116185500Y-81881082D01*
X116177386Y-81840289D01*
X116156659Y-81736088D01*
X116100084Y-81599506D01*
X116100084Y-81599505D01*
X116063999Y-81545500D01*
X116062699Y-81543554D01*
X116017956Y-81476589D01*
X116017952Y-81476584D01*
X115424048Y-80882680D01*
X115390563Y-80821357D01*
X115395547Y-80751665D01*
X115424048Y-80707318D01*
X115796075Y-80335292D01*
X116194548Y-79936819D01*
X116255871Y-79903334D01*
X116282229Y-79900500D01*
X119577071Y-79900500D01*
X119607532Y-79909444D01*
G37*
G04 #@! TD.AperFunction*
G04 #@! TA.AperFunction,Conductor*
G36*
X124834809Y-79920185D02*
G01*
X124855451Y-79936819D01*
X124963927Y-80045295D01*
X124990807Y-80085523D01*
X125000604Y-80109175D01*
X125000609Y-80109185D01*
X125088210Y-80240288D01*
X125088213Y-80240292D01*
X125199710Y-80351789D01*
X125287315Y-80410324D01*
X125330821Y-80439394D01*
X125330826Y-80439396D01*
X125330828Y-80439397D01*
X125354473Y-80449191D01*
X125394705Y-80476072D01*
X125848181Y-80929548D01*
X125881666Y-80990871D01*
X125884500Y-81017229D01*
X125884500Y-81916000D01*
X125864815Y-81983039D01*
X125812011Y-82028794D01*
X125760500Y-82040000D01*
X123359500Y-82040000D01*
X123292461Y-82020315D01*
X123246706Y-81967511D01*
X123235500Y-81916000D01*
X123235500Y-81742353D01*
X123255185Y-81675314D01*
X123307989Y-81629559D01*
X123377147Y-81619615D01*
X123406952Y-81627792D01*
X123537742Y-81681966D01*
X123556503Y-81689737D01*
X123711153Y-81720499D01*
X123711156Y-81720500D01*
X123711158Y-81720500D01*
X123868844Y-81720500D01*
X123868845Y-81720499D01*
X124023497Y-81689737D01*
X124169179Y-81629394D01*
X124300289Y-81541789D01*
X124411789Y-81430289D01*
X124499394Y-81299179D01*
X124559737Y-81153497D01*
X124590500Y-80998842D01*
X124590500Y-80841158D01*
X124590500Y-80841155D01*
X124590499Y-80841153D01*
X124559739Y-80686511D01*
X124559738Y-80686508D01*
X124559737Y-80686503D01*
X124549937Y-80662844D01*
X124540500Y-80615396D01*
X124540500Y-80024500D01*
X124543050Y-80015814D01*
X124541762Y-80006853D01*
X124552740Y-79982812D01*
X124560185Y-79957461D01*
X124567025Y-79951533D01*
X124570787Y-79943297D01*
X124593021Y-79929007D01*
X124612989Y-79911706D01*
X124623503Y-79909418D01*
X124629565Y-79905523D01*
X124664500Y-79900500D01*
X124767770Y-79900500D01*
X124834809Y-79920185D01*
G37*
G04 #@! TD.AperFunction*
G04 #@! TA.AperFunction,Conductor*
G36*
X134868691Y-58961987D02*
G01*
X134904655Y-59011487D01*
X134909500Y-59042080D01*
X134909500Y-62526688D01*
X134909500Y-62658472D01*
X134939579Y-62770731D01*
X134943609Y-62785770D01*
X135009496Y-62899889D01*
X135009498Y-62899891D01*
X135009500Y-62899894D01*
X135102686Y-62993080D01*
X135102688Y-62993081D01*
X135102690Y-62993083D01*
X135216810Y-63058970D01*
X135216808Y-63058970D01*
X135216812Y-63058971D01*
X135216814Y-63058972D01*
X135344108Y-63093080D01*
X135344110Y-63093080D01*
X156975890Y-63093080D01*
X156975892Y-63093080D01*
X157103186Y-63058972D01*
X157103188Y-63058970D01*
X157103190Y-63058970D01*
X157217309Y-62993083D01*
X157217309Y-62993082D01*
X157217314Y-62993080D01*
X157310500Y-62899894D01*
X157376392Y-62785766D01*
X157410500Y-62658472D01*
X157410500Y-59042080D01*
X157429407Y-58983889D01*
X157478907Y-58947925D01*
X157509500Y-58943080D01*
X159863179Y-58943080D01*
X159921370Y-58961987D01*
X159957334Y-59011487D01*
X159962179Y-59042080D01*
X159962179Y-89493080D01*
X159943272Y-89551271D01*
X159893772Y-89587235D01*
X159863179Y-89592080D01*
X147975892Y-89592080D01*
X147844108Y-89592080D01*
X147766200Y-89612955D01*
X147716809Y-89626189D01*
X147602690Y-89692076D01*
X147509496Y-89785270D01*
X147443609Y-89899389D01*
X147409500Y-90026689D01*
X147409500Y-102493080D01*
X147390593Y-102551271D01*
X147341093Y-102587235D01*
X147310500Y-102592080D01*
X144842945Y-102592080D01*
X144784754Y-102573173D01*
X144748790Y-102523673D01*
X144748790Y-102462487D01*
X144784754Y-102412987D01*
X144787943Y-102410765D01*
X144866653Y-102358172D01*
X144869071Y-102355753D01*
X144473687Y-101960369D01*
X144504328Y-101942679D01*
X144597420Y-101849587D01*
X144615110Y-101818946D01*
X145010494Y-102214330D01*
X145012912Y-102211913D01*
X145127816Y-102039946D01*
X145127819Y-102039940D01*
X145206971Y-101848852D01*
X145247320Y-101645998D01*
X145247321Y-101645993D01*
X145247321Y-101439166D01*
X145247320Y-101439161D01*
X145206971Y-101236307D01*
X145127819Y-101045219D01*
X145127812Y-101045205D01*
X145012915Y-100873250D01*
X145010494Y-100870829D01*
X144615109Y-101266212D01*
X144597420Y-101235573D01*
X144504328Y-101142481D01*
X144473686Y-101124790D01*
X144869071Y-100729406D01*
X144866650Y-100726985D01*
X144694695Y-100612088D01*
X144694681Y-100612081D01*
X144503593Y-100532929D01*
X144300739Y-100492580D01*
X144093902Y-100492580D01*
X143891048Y-100532929D01*
X143699960Y-100612081D01*
X143699951Y-100612085D01*
X143527986Y-100726990D01*
X143525569Y-100729405D01*
X143920954Y-101124790D01*
X143890314Y-101142481D01*
X143797222Y-101235573D01*
X143779531Y-101266213D01*
X143384146Y-100870828D01*
X143381731Y-100873245D01*
X143266826Y-101045210D01*
X143266822Y-101045219D01*
X143187670Y-101236307D01*
X143147321Y-101439161D01*
X143147321Y-101645998D01*
X143187670Y-101848852D01*
X143266822Y-102039940D01*
X143266829Y-102039954D01*
X143381726Y-102211909D01*
X143384147Y-102214330D01*
X143779531Y-101818945D01*
X143797222Y-101849587D01*
X143890314Y-101942679D01*
X143920953Y-101960368D01*
X143525570Y-102355753D01*
X143527988Y-102358171D01*
X143606699Y-102410764D01*
X143644579Y-102458814D01*
X143646981Y-102519953D01*
X143612988Y-102570826D01*
X143555585Y-102592004D01*
X143551698Y-102592080D01*
X142303843Y-102592080D01*
X142245652Y-102573173D01*
X142209688Y-102523673D01*
X142209688Y-102462487D01*
X142245652Y-102412987D01*
X142248842Y-102410764D01*
X142326976Y-102358557D01*
X142473298Y-102212235D01*
X142588262Y-102040178D01*
X142667451Y-101849000D01*
X142707821Y-101646045D01*
X142707821Y-101439115D01*
X142667451Y-101236160D01*
X142588262Y-101044982D01*
X142473298Y-100872925D01*
X142326976Y-100726603D01*
X142246503Y-100672833D01*
X142154918Y-100611638D01*
X141963739Y-100532449D01*
X141760788Y-100492080D01*
X141760786Y-100492080D01*
X141553856Y-100492080D01*
X141553853Y-100492080D01*
X141350902Y-100532449D01*
X141159723Y-100611638D01*
X140987669Y-100726600D01*
X140841341Y-100872928D01*
X140726379Y-101044982D01*
X140647190Y-101236161D01*
X140606821Y-101439112D01*
X140606821Y-101646047D01*
X140647190Y-101848998D01*
X140726379Y-102040177D01*
X140726380Y-102040178D01*
X140841344Y-102212235D01*
X140987666Y-102358557D01*
X140987669Y-102358559D01*
X141065800Y-102410764D01*
X141103680Y-102458814D01*
X141106082Y-102519952D01*
X141072090Y-102570826D01*
X141014686Y-102592004D01*
X141010799Y-102592080D01*
X139763843Y-102592080D01*
X139705652Y-102573173D01*
X139669688Y-102523673D01*
X139669688Y-102462487D01*
X139705652Y-102412987D01*
X139708842Y-102410764D01*
X139786976Y-102358557D01*
X139933298Y-102212235D01*
X140048262Y-102040178D01*
X140127451Y-101849000D01*
X140167821Y-101646045D01*
X140167821Y-101439115D01*
X140127451Y-101236160D01*
X140048262Y-101044982D01*
X139933298Y-100872925D01*
X139786976Y-100726603D01*
X139706503Y-100672833D01*
X139614918Y-100611638D01*
X139423739Y-100532449D01*
X139220788Y-100492080D01*
X139220786Y-100492080D01*
X139013856Y-100492080D01*
X139013853Y-100492080D01*
X138810902Y-100532449D01*
X138619723Y-100611638D01*
X138447669Y-100726600D01*
X138301341Y-100872928D01*
X138186379Y-101044982D01*
X138107190Y-101236161D01*
X138066821Y-101439112D01*
X138066821Y-101646047D01*
X138107190Y-101848998D01*
X138186379Y-102040177D01*
X138186380Y-102040178D01*
X138301344Y-102212235D01*
X138447666Y-102358557D01*
X138447669Y-102358559D01*
X138525800Y-102410764D01*
X138563680Y-102458814D01*
X138566082Y-102519952D01*
X138532090Y-102570826D01*
X138474686Y-102592004D01*
X138470799Y-102592080D01*
X137712698Y-102592080D01*
X137654507Y-102573173D01*
X137618543Y-102523673D01*
X137615600Y-102473765D01*
X137616188Y-102470811D01*
X137627821Y-102412328D01*
X137627821Y-100672832D01*
X137616188Y-100614349D01*
X137571873Y-100548028D01*
X137571869Y-100548025D01*
X137505554Y-100503714D01*
X137505552Y-100503713D01*
X137505549Y-100503712D01*
X137505548Y-100503712D01*
X137447079Y-100492081D01*
X137447069Y-100492080D01*
X135707573Y-100492080D01*
X135707572Y-100492080D01*
X135707562Y-100492081D01*
X135649093Y-100503712D01*
X135649087Y-100503714D01*
X135582772Y-100548025D01*
X135582766Y-100548031D01*
X135538455Y-100614346D01*
X135538453Y-100614352D01*
X135526822Y-100672821D01*
X135526821Y-100672831D01*
X135526821Y-100672832D01*
X135526821Y-102412328D01*
X135536798Y-102462487D01*
X135539042Y-102473765D01*
X135531850Y-102534527D01*
X135490318Y-102579457D01*
X135441944Y-102592080D01*
X132549000Y-102592080D01*
X132490809Y-102573173D01*
X132454845Y-102523673D01*
X132450000Y-102493080D01*
X132450000Y-76691057D01*
X137294500Y-76691057D01*
X137294500Y-77154100D01*
X137294501Y-77154103D01*
X137309352Y-77247879D01*
X137309354Y-77247884D01*
X137366950Y-77360922D01*
X137456658Y-77450630D01*
X137475270Y-77460113D01*
X137518534Y-77503376D01*
X137528106Y-77563808D01*
X137516063Y-77597820D01*
X137503609Y-77619391D01*
X137503608Y-77619393D01*
X137503608Y-77619394D01*
X137469500Y-77746688D01*
X137469500Y-77878472D01*
X137478668Y-77912686D01*
X137503609Y-78005770D01*
X137569496Y-78119889D01*
X137569498Y-78119891D01*
X137569500Y-78119894D01*
X137662686Y-78213080D01*
X137662688Y-78213081D01*
X137662690Y-78213083D01*
X137776810Y-78278970D01*
X137776808Y-78278970D01*
X137776812Y-78278971D01*
X137776814Y-78278972D01*
X137904108Y-78313080D01*
X137904110Y-78313080D01*
X138035890Y-78313080D01*
X138035892Y-78313080D01*
X138163186Y-78278972D01*
X138163188Y-78278970D01*
X138163190Y-78278970D01*
X138277309Y-78213083D01*
X138277309Y-78213082D01*
X138277314Y-78213080D01*
X138370500Y-78119894D01*
X138436392Y-78005766D01*
X138470500Y-77878472D01*
X138470500Y-77746688D01*
X138436392Y-77619394D01*
X138429783Y-77607948D01*
X138423938Y-77597823D01*
X138411216Y-77537974D01*
X138436102Y-77482079D01*
X138464724Y-77460116D01*
X138483342Y-77450630D01*
X138573050Y-77360922D01*
X138630646Y-77247884D01*
X138641926Y-77176661D01*
X138645500Y-77154101D01*
X138645500Y-77022581D01*
X139295001Y-77022581D01*
X139295001Y-77154065D01*
X139309833Y-77247721D01*
X139309836Y-77247731D01*
X139367358Y-77360623D01*
X139456956Y-77450221D01*
X139569848Y-77507743D01*
X139569852Y-77507744D01*
X139663515Y-77522579D01*
X139869998Y-77522579D01*
X139870000Y-77522578D01*
X139870000Y-77022581D01*
X140070000Y-77022581D01*
X140070000Y-77522578D01*
X140070001Y-77522579D01*
X140276483Y-77522579D01*
X140276485Y-77522578D01*
X140370141Y-77507746D01*
X140370151Y-77507743D01*
X140483043Y-77450221D01*
X140572641Y-77360623D01*
X140630163Y-77247731D01*
X140630164Y-77247727D01*
X140645000Y-77154064D01*
X140645000Y-77022581D01*
X140644999Y-77022580D01*
X140070001Y-77022580D01*
X140070000Y-77022581D01*
X139870000Y-77022581D01*
X139869999Y-77022580D01*
X139295002Y-77022580D01*
X139295001Y-77022581D01*
X138645500Y-77022581D01*
X138645500Y-76981573D01*
X138645499Y-76691095D01*
X139295000Y-76691095D01*
X139295000Y-76822579D01*
X139295001Y-76822580D01*
X139869999Y-76822580D01*
X139870000Y-76822579D01*
X139870000Y-76322581D01*
X140070000Y-76322581D01*
X140070000Y-76822579D01*
X140070001Y-76822580D01*
X140644998Y-76822580D01*
X140644999Y-76822579D01*
X140644999Y-76691096D01*
X140644998Y-76691094D01*
X140630166Y-76597438D01*
X140630163Y-76597428D01*
X140572641Y-76484536D01*
X140483043Y-76394938D01*
X140370151Y-76337416D01*
X140370147Y-76337415D01*
X140276484Y-76322580D01*
X140070001Y-76322580D01*
X140070000Y-76322581D01*
X139870000Y-76322581D01*
X139869999Y-76322580D01*
X139663517Y-76322580D01*
X139663514Y-76322581D01*
X139569858Y-76337413D01*
X139569848Y-76337416D01*
X139456956Y-76394938D01*
X139367358Y-76484536D01*
X139309836Y-76597428D01*
X139309835Y-76597432D01*
X139295000Y-76691095D01*
X138645499Y-76691095D01*
X138645499Y-76691059D01*
X138645498Y-76691056D01*
X138630647Y-76597280D01*
X138630646Y-76597278D01*
X138630646Y-76597276D01*
X138573050Y-76484238D01*
X138483342Y-76394530D01*
X138370304Y-76336934D01*
X138370305Y-76336934D01*
X138276522Y-76322080D01*
X137663479Y-76322080D01*
X137663476Y-76322081D01*
X137569700Y-76336932D01*
X137569695Y-76336934D01*
X137456659Y-76394529D01*
X137366949Y-76484239D01*
X137309354Y-76597275D01*
X137294500Y-76691057D01*
X132450000Y-76691057D01*
X132450000Y-75041057D01*
X137294500Y-75041057D01*
X137294500Y-75504100D01*
X137294501Y-75504103D01*
X137309352Y-75597879D01*
X137309354Y-75597884D01*
X137366950Y-75710922D01*
X137456658Y-75800630D01*
X137569696Y-75858226D01*
X137663481Y-75873080D01*
X138276518Y-75873079D01*
X138276520Y-75873079D01*
X138276521Y-75873078D01*
X138323411Y-75865652D01*
X138370299Y-75858227D01*
X138370299Y-75858226D01*
X138370304Y-75858226D01*
X138483342Y-75800630D01*
X138573050Y-75710922D01*
X138615742Y-75627133D01*
X138659006Y-75583870D01*
X138703951Y-75573080D01*
X139236049Y-75573080D01*
X139294240Y-75591987D01*
X139324257Y-75627132D01*
X139366950Y-75710922D01*
X139456658Y-75800630D01*
X139569696Y-75858226D01*
X139663481Y-75873080D01*
X140276518Y-75873079D01*
X140276520Y-75873079D01*
X140276521Y-75873078D01*
X140323411Y-75865652D01*
X140370299Y-75858227D01*
X140370299Y-75858226D01*
X140370304Y-75858226D01*
X140483342Y-75800630D01*
X140573050Y-75710922D01*
X140615742Y-75627133D01*
X140659006Y-75583870D01*
X140703951Y-75573080D01*
X141339563Y-75573080D01*
X141339563Y-75573079D01*
X141415989Y-75552601D01*
X141484511Y-75513040D01*
X141540460Y-75457091D01*
X142105474Y-74892075D01*
X142159991Y-74864299D01*
X142175478Y-74863080D01*
X142275890Y-74863080D01*
X142275892Y-74863080D01*
X142403186Y-74828972D01*
X142403188Y-74828970D01*
X142403190Y-74828970D01*
X142517309Y-74763083D01*
X142517309Y-74763082D01*
X142517314Y-74763080D01*
X142610500Y-74669894D01*
X142636337Y-74625143D01*
X142676390Y-74555770D01*
X142676390Y-74555768D01*
X142676392Y-74555766D01*
X142710500Y-74428472D01*
X142710500Y-74307059D01*
X142729407Y-74248868D01*
X142778907Y-74212904D01*
X142840093Y-74212904D01*
X142879504Y-74237055D01*
X143109378Y-74466929D01*
X143137155Y-74521446D01*
X143127584Y-74581878D01*
X143084319Y-74625143D01*
X143064999Y-74632558D01*
X143020961Y-74644358D01*
X142976809Y-74656189D01*
X142862690Y-74722076D01*
X142769496Y-74815270D01*
X142703609Y-74929389D01*
X142689480Y-74982120D01*
X142669500Y-75056688D01*
X142669500Y-75188472D01*
X142679980Y-75227583D01*
X142703609Y-75315770D01*
X142769496Y-75429889D01*
X142769498Y-75429891D01*
X142769500Y-75429894D01*
X142840505Y-75500899D01*
X142868281Y-75555414D01*
X142869500Y-75570901D01*
X142869500Y-76844259D01*
X142850593Y-76902450D01*
X142840509Y-76914256D01*
X142799500Y-76955266D01*
X142769497Y-76985269D01*
X142769496Y-76985270D01*
X142703609Y-77099389D01*
X142703608Y-77099394D01*
X142669500Y-77226688D01*
X142669500Y-77358472D01*
X142695570Y-77455766D01*
X142703609Y-77485770D01*
X142769496Y-77599889D01*
X142769498Y-77599891D01*
X142769500Y-77599894D01*
X142862686Y-77693080D01*
X142862688Y-77693081D01*
X142862690Y-77693083D01*
X142976810Y-77758970D01*
X142976808Y-77758970D01*
X142976812Y-77758971D01*
X142976814Y-77758972D01*
X143104108Y-77793080D01*
X143104110Y-77793080D01*
X143235890Y-77793080D01*
X143235892Y-77793080D01*
X143363186Y-77758972D01*
X143363188Y-77758970D01*
X143363190Y-77758970D01*
X143477309Y-77693083D01*
X143477309Y-77693082D01*
X143477314Y-77693080D01*
X143570500Y-77599894D01*
X143571698Y-77597820D01*
X143615138Y-77522579D01*
X143636392Y-77485766D01*
X143639367Y-77474661D01*
X143672690Y-77423347D01*
X143729811Y-77401419D01*
X143788912Y-77417254D01*
X143820730Y-77450783D01*
X143889496Y-77569889D01*
X143889498Y-77569891D01*
X143889500Y-77569894D01*
X143982686Y-77663080D01*
X143982688Y-77663081D01*
X143982690Y-77663083D01*
X144096810Y-77728970D01*
X144096808Y-77728970D01*
X144096812Y-77728971D01*
X144096814Y-77728972D01*
X144224108Y-77763080D01*
X144224110Y-77763080D01*
X144355890Y-77763080D01*
X144355892Y-77763080D01*
X144483186Y-77728972D01*
X144483188Y-77728970D01*
X144483190Y-77728970D01*
X144597309Y-77663083D01*
X144597309Y-77663082D01*
X144597314Y-77663080D01*
X144690500Y-77569894D01*
X144708929Y-77537974D01*
X144756390Y-77455770D01*
X144756390Y-77455768D01*
X144756392Y-77455766D01*
X144790500Y-77328472D01*
X144790500Y-77196688D01*
X144756392Y-77069394D01*
X144756390Y-77069390D01*
X144756390Y-77069389D01*
X144690503Y-76955270D01*
X144690501Y-76955268D01*
X144690500Y-76955266D01*
X144619494Y-76884260D01*
X144591719Y-76829746D01*
X144590500Y-76814259D01*
X144590500Y-75183017D01*
X144590499Y-75183015D01*
X144570021Y-75106591D01*
X144570019Y-75106587D01*
X144530460Y-75038069D01*
X144474511Y-74982119D01*
X144474511Y-74982120D01*
X142164495Y-72672104D01*
X142160868Y-72664986D01*
X142154406Y-72660291D01*
X142147242Y-72638242D01*
X142136718Y-72617587D01*
X142135499Y-72602112D01*
X142135499Y-72529442D01*
X143599500Y-72529442D01*
X143599500Y-72855713D01*
X143599501Y-72855725D01*
X143605740Y-72903124D01*
X143605740Y-72903126D01*
X143654251Y-73007156D01*
X143654252Y-73007157D01*
X143654253Y-73007159D01*
X143735421Y-73088327D01*
X143839455Y-73136839D01*
X143886861Y-73143080D01*
X144213138Y-73143079D01*
X144260545Y-73136839D01*
X144260546Y-73136839D01*
X144316611Y-73110694D01*
X144364579Y-73088327D01*
X144445747Y-73007159D01*
X144468114Y-72959191D01*
X144494259Y-72903126D01*
X144494440Y-72902505D01*
X144494953Y-72901638D01*
X144497461Y-72896260D01*
X144497990Y-72896506D01*
X144519483Y-72860199D01*
X144524341Y-72855341D01*
X144690490Y-72689194D01*
X144697634Y-72676819D01*
X144713366Y-72656315D01*
X144737609Y-72632074D01*
X144792127Y-72604298D01*
X144807610Y-72603080D01*
X145278100Y-72603080D01*
X145336291Y-72621987D01*
X145348103Y-72632076D01*
X145396658Y-72680630D01*
X145396659Y-72680631D01*
X145405444Y-72685107D01*
X145421835Y-72701498D01*
X145440593Y-72715126D01*
X145443061Y-72722722D01*
X145448709Y-72728370D01*
X145459500Y-72773317D01*
X145459500Y-72855341D01*
X145446238Y-72904839D01*
X145443608Y-72909393D01*
X145443608Y-72909394D01*
X145409500Y-73036688D01*
X145409500Y-73168472D01*
X145439579Y-73280731D01*
X145443609Y-73295770D01*
X145509496Y-73409889D01*
X145509498Y-73409891D01*
X145509500Y-73409894D01*
X145602686Y-73503080D01*
X145602688Y-73503081D01*
X145602690Y-73503083D01*
X145716810Y-73568970D01*
X145716808Y-73568970D01*
X145716812Y-73568971D01*
X145716814Y-73568972D01*
X145844108Y-73603080D01*
X145844110Y-73603080D01*
X145975890Y-73603080D01*
X145975892Y-73603080D01*
X146103186Y-73568972D01*
X146103188Y-73568970D01*
X146103190Y-73568970D01*
X146217309Y-73503083D01*
X146217309Y-73503082D01*
X146217314Y-73503080D01*
X146310500Y-73409894D01*
X146376392Y-73295766D01*
X146410500Y-73168472D01*
X146410500Y-73036688D01*
X146376392Y-72909394D01*
X146373761Y-72904838D01*
X146360500Y-72855341D01*
X146360500Y-72773317D01*
X146379407Y-72715126D01*
X146414556Y-72685107D01*
X146423338Y-72680632D01*
X146423337Y-72680632D01*
X146423342Y-72680630D01*
X146513050Y-72590922D01*
X146570646Y-72477884D01*
X146585500Y-72384099D01*
X146585500Y-72311033D01*
X146935000Y-72311033D01*
X146950760Y-72410545D01*
X146950762Y-72410549D01*
X147011881Y-72530501D01*
X147107078Y-72625698D01*
X147227030Y-72686817D01*
X147227029Y-72686817D01*
X147326545Y-72702579D01*
X147510000Y-72702579D01*
X147510000Y-72152581D01*
X147710000Y-72152581D01*
X147710000Y-72702578D01*
X147710001Y-72702579D01*
X147893453Y-72702579D01*
X147992965Y-72686819D01*
X147992969Y-72686817D01*
X148112921Y-72625698D01*
X148208118Y-72530501D01*
X148269237Y-72410549D01*
X148285000Y-72311033D01*
X148285000Y-72291033D01*
X149515000Y-72291033D01*
X149530760Y-72390545D01*
X149530762Y-72390549D01*
X149591881Y-72510501D01*
X149687078Y-72605698D01*
X149807030Y-72666817D01*
X149807029Y-72666817D01*
X149906545Y-72682579D01*
X150090000Y-72682579D01*
X150090000Y-72132581D01*
X150290000Y-72132581D01*
X150290000Y-72682578D01*
X150290001Y-72682579D01*
X150473453Y-72682579D01*
X150572965Y-72666819D01*
X150572969Y-72666817D01*
X150692921Y-72605698D01*
X150788118Y-72510501D01*
X150849237Y-72390549D01*
X150865000Y-72291033D01*
X150865000Y-72271033D01*
X151375000Y-72271033D01*
X151390760Y-72370545D01*
X151390762Y-72370549D01*
X151451881Y-72490501D01*
X151547078Y-72585698D01*
X151667030Y-72646817D01*
X151667029Y-72646817D01*
X151766545Y-72662579D01*
X151950000Y-72662579D01*
X151950000Y-72112581D01*
X152150000Y-72112581D01*
X152150000Y-72662578D01*
X152150001Y-72662579D01*
X152333453Y-72662579D01*
X152432965Y-72646819D01*
X152432969Y-72646817D01*
X152552921Y-72585698D01*
X152648118Y-72490501D01*
X152709237Y-72370549D01*
X152725000Y-72271033D01*
X152725000Y-72112581D01*
X152724999Y-72112580D01*
X152150001Y-72112580D01*
X152150000Y-72112581D01*
X151950000Y-72112581D01*
X151949999Y-72112580D01*
X151375002Y-72112580D01*
X151375001Y-72112581D01*
X151375001Y-72271033D01*
X151375000Y-72271033D01*
X150865000Y-72271033D01*
X150865000Y-72132581D01*
X150864999Y-72132580D01*
X150290001Y-72132580D01*
X150290000Y-72132581D01*
X150090000Y-72132581D01*
X150089999Y-72132580D01*
X149515002Y-72132580D01*
X149515001Y-72132581D01*
X149515001Y-72291033D01*
X149515000Y-72291033D01*
X148285000Y-72291033D01*
X148285000Y-72152581D01*
X148284999Y-72152580D01*
X147710001Y-72152580D01*
X147710000Y-72152581D01*
X147510000Y-72152581D01*
X147509999Y-72152580D01*
X146935002Y-72152580D01*
X146935001Y-72152581D01*
X146935001Y-72311033D01*
X146935000Y-72311033D01*
X146585500Y-72311033D01*
X146585499Y-71921062D01*
X146576611Y-71864938D01*
X146570647Y-71827278D01*
X146570647Y-71827277D01*
X146553756Y-71794126D01*
X146935000Y-71794126D01*
X146935000Y-71952579D01*
X146935001Y-71952580D01*
X147509999Y-71952580D01*
X147510000Y-71952579D01*
X147510000Y-71402581D01*
X147710000Y-71402581D01*
X147710000Y-71952579D01*
X147710001Y-71952580D01*
X148284998Y-71952580D01*
X148284999Y-71952579D01*
X148284999Y-71794130D01*
X148283668Y-71785728D01*
X148283668Y-71785724D01*
X148281831Y-71774126D01*
X149515000Y-71774126D01*
X149515000Y-71932579D01*
X149515001Y-71932580D01*
X150089999Y-71932580D01*
X150090000Y-71932579D01*
X150090000Y-71382581D01*
X150290000Y-71382581D01*
X150290000Y-71932579D01*
X150290001Y-71932580D01*
X150864998Y-71932580D01*
X150864999Y-71932579D01*
X150864999Y-71774130D01*
X150863668Y-71765728D01*
X150863668Y-71765724D01*
X150861831Y-71754126D01*
X151375000Y-71754126D01*
X151375000Y-71912579D01*
X151375001Y-71912580D01*
X151949999Y-71912580D01*
X151950000Y-71912579D01*
X151950000Y-71362581D01*
X152150000Y-71362581D01*
X152150000Y-71912579D01*
X152150001Y-71912580D01*
X152724998Y-71912580D01*
X152724999Y-71912579D01*
X152724999Y-71754126D01*
X152709239Y-71654614D01*
X152709237Y-71654610D01*
X152648118Y-71534658D01*
X152552921Y-71439461D01*
X152432969Y-71378342D01*
X152432970Y-71378342D01*
X152333454Y-71362580D01*
X152150001Y-71362580D01*
X152150000Y-71362581D01*
X151950000Y-71362581D01*
X151949999Y-71362580D01*
X151766547Y-71362580D01*
X151766546Y-71362581D01*
X151667034Y-71378340D01*
X151667030Y-71378342D01*
X151547078Y-71439461D01*
X151451881Y-71534658D01*
X151390762Y-71654610D01*
X151375000Y-71754126D01*
X150861831Y-71754126D01*
X150849239Y-71674615D01*
X150849237Y-71674610D01*
X150788118Y-71554658D01*
X150692921Y-71459461D01*
X150572969Y-71398342D01*
X150572970Y-71398342D01*
X150473454Y-71382580D01*
X150290001Y-71382580D01*
X150290000Y-71382581D01*
X150090000Y-71382581D01*
X150089999Y-71382580D01*
X149906547Y-71382580D01*
X149906546Y-71382581D01*
X149807034Y-71398340D01*
X149807030Y-71398342D01*
X149687078Y-71459461D01*
X149591881Y-71554658D01*
X149530762Y-71674610D01*
X149515000Y-71774126D01*
X148281831Y-71774126D01*
X148269239Y-71694615D01*
X148269237Y-71694610D01*
X148208118Y-71574658D01*
X148112921Y-71479461D01*
X147992969Y-71418342D01*
X147992970Y-71418342D01*
X147893454Y-71402580D01*
X147710001Y-71402580D01*
X147710000Y-71402581D01*
X147510000Y-71402581D01*
X147509999Y-71402580D01*
X147326547Y-71402580D01*
X147326546Y-71402581D01*
X147227034Y-71418340D01*
X147227030Y-71418342D01*
X147107078Y-71479461D01*
X147011881Y-71574658D01*
X146950762Y-71694610D01*
X146935000Y-71794126D01*
X146553756Y-71794126D01*
X146539286Y-71765728D01*
X146513050Y-71714238D01*
X146423342Y-71624530D01*
X146310304Y-71566934D01*
X146310305Y-71566934D01*
X146216522Y-71552080D01*
X145603479Y-71552080D01*
X145603476Y-71552081D01*
X145509700Y-71566932D01*
X145509695Y-71566934D01*
X145396658Y-71624530D01*
X145396656Y-71624531D01*
X145348103Y-71673084D01*
X145293586Y-71700861D01*
X145278100Y-71702080D01*
X144520691Y-71702080D01*
X144463402Y-71717430D01*
X144406112Y-71732781D01*
X144372618Y-71752120D01*
X144372617Y-71752119D01*
X144303387Y-71792090D01*
X143969508Y-72125969D01*
X143962366Y-72138339D01*
X143946637Y-72158837D01*
X143882375Y-72223099D01*
X143846072Y-72244592D01*
X143846319Y-72245121D01*
X143840952Y-72247623D01*
X143840085Y-72248137D01*
X143839460Y-72248318D01*
X143735421Y-72296833D01*
X143654253Y-72378001D01*
X143605741Y-72482035D01*
X143601994Y-72510501D01*
X143599500Y-72529442D01*
X142135499Y-72529442D01*
X142135499Y-72161062D01*
X142131900Y-72138339D01*
X142120647Y-72067280D01*
X142120646Y-72067278D01*
X142120646Y-72067276D01*
X142063050Y-71954238D01*
X142063046Y-71954234D01*
X142058469Y-71947933D01*
X142059515Y-71947172D01*
X142035407Y-71899856D01*
X142044978Y-71839424D01*
X142063181Y-71814368D01*
X143430498Y-70447051D01*
X143485013Y-70419276D01*
X143545445Y-70428847D01*
X143588710Y-70472112D01*
X143599500Y-70517056D01*
X143599500Y-70655713D01*
X143599501Y-70655725D01*
X143605740Y-70703124D01*
X143605740Y-70703126D01*
X143654251Y-70807156D01*
X143654252Y-70807157D01*
X143654253Y-70807159D01*
X143735421Y-70888327D01*
X143839455Y-70936839D01*
X143886861Y-70943080D01*
X144213138Y-70943079D01*
X144260545Y-70936839D01*
X144260546Y-70936839D01*
X144356468Y-70892109D01*
X144364579Y-70888327D01*
X144430831Y-70822074D01*
X144485346Y-70794299D01*
X144500833Y-70793080D01*
X145170953Y-70793080D01*
X145229144Y-70811987D01*
X145259162Y-70847134D01*
X145302739Y-70932657D01*
X145306950Y-70940922D01*
X145396658Y-71030630D01*
X145509696Y-71088226D01*
X145603481Y-71103080D01*
X146216518Y-71103079D01*
X146216520Y-71103079D01*
X146216521Y-71103078D01*
X146263411Y-71095652D01*
X146310299Y-71088227D01*
X146310299Y-71088226D01*
X146310304Y-71088226D01*
X146423342Y-71030630D01*
X146513050Y-70940922D01*
X146557115Y-70854440D01*
X146560838Y-70847134D01*
X146604103Y-70803870D01*
X146649047Y-70793080D01*
X146856380Y-70793080D01*
X146914571Y-70811987D01*
X146945415Y-70854440D01*
X146946743Y-70853764D01*
X147011470Y-70980797D01*
X147011472Y-70980800D01*
X147106780Y-71076108D01*
X147106782Y-71076109D01*
X147226867Y-71137296D01*
X147226869Y-71137296D01*
X147226874Y-71137299D01*
X147302541Y-71149283D01*
X147326510Y-71153080D01*
X147326512Y-71153080D01*
X147893490Y-71153080D01*
X147914885Y-71149691D01*
X147993126Y-71137299D01*
X148113220Y-71076108D01*
X148208528Y-70980800D01*
X148269719Y-70860706D01*
X148285500Y-70761068D01*
X148285500Y-70416688D01*
X148739500Y-70416688D01*
X148739500Y-70548472D01*
X148754126Y-70603058D01*
X148773609Y-70675770D01*
X148839496Y-70789889D01*
X148839498Y-70789891D01*
X148839500Y-70789894D01*
X148932686Y-70883080D01*
X148932688Y-70883081D01*
X148932690Y-70883083D01*
X149046810Y-70948970D01*
X149046808Y-70948970D01*
X149046812Y-70948971D01*
X149046814Y-70948972D01*
X149174108Y-70983080D01*
X149174110Y-70983080D01*
X149305890Y-70983080D01*
X149305892Y-70983080D01*
X149433186Y-70948972D01*
X149461444Y-70932656D01*
X149521292Y-70919935D01*
X149577188Y-70944821D01*
X149591037Y-70960201D01*
X149591470Y-70960797D01*
X149591472Y-70960800D01*
X149686780Y-71056108D01*
X149686782Y-71056109D01*
X149806867Y-71117296D01*
X149806869Y-71117296D01*
X149806874Y-71117299D01*
X149882541Y-71129283D01*
X149906510Y-71133080D01*
X149906512Y-71133080D01*
X150473490Y-71133080D01*
X150494885Y-71129691D01*
X150573126Y-71117299D01*
X150693220Y-71056108D01*
X150788528Y-70960800D01*
X150849719Y-70840706D01*
X150865500Y-70741068D01*
X150865500Y-70516920D01*
X150872581Y-70495124D01*
X150876040Y-70472469D01*
X150881852Y-70466591D01*
X150884407Y-70458729D01*
X150902948Y-70445257D01*
X150919062Y-70428963D01*
X150926477Y-70428162D01*
X150933907Y-70422765D01*
X150979440Y-70419054D01*
X150984835Y-70419877D01*
X151034108Y-70433080D01*
X151071321Y-70433080D01*
X151078750Y-70434214D01*
X151099698Y-70444740D01*
X151122001Y-70451987D01*
X151133266Y-70461608D01*
X151133421Y-70461686D01*
X151133471Y-70461783D01*
X151133814Y-70462076D01*
X151348309Y-70676571D01*
X151376086Y-70731087D01*
X151390281Y-70820705D01*
X151390283Y-70820712D01*
X151451470Y-70940797D01*
X151451472Y-70940800D01*
X151546780Y-71036108D01*
X151546782Y-71036109D01*
X151666867Y-71097296D01*
X151666869Y-71097296D01*
X151666874Y-71097299D01*
X151742541Y-71109283D01*
X151766510Y-71113080D01*
X151766512Y-71113080D01*
X152333490Y-71113080D01*
X152354885Y-71109691D01*
X152433126Y-71097299D01*
X152553220Y-71036108D01*
X152620498Y-70968829D01*
X152675013Y-70941054D01*
X152735445Y-70950625D01*
X152778710Y-70993890D01*
X152789500Y-71038835D01*
X152789500Y-71188724D01*
X152802898Y-71238724D01*
X152811447Y-71270630D01*
X152811448Y-71270636D01*
X152813384Y-71277864D01*
X152813387Y-71277871D01*
X152855225Y-71350336D01*
X152859530Y-71357792D01*
X153305505Y-71803767D01*
X153333281Y-71858282D01*
X153334500Y-71873769D01*
X153334500Y-72271069D01*
X153350281Y-72370705D01*
X153350283Y-72370712D01*
X153411470Y-72490797D01*
X153411472Y-72490800D01*
X153506780Y-72586108D01*
X153506782Y-72586109D01*
X153626867Y-72647296D01*
X153626869Y-72647296D01*
X153626874Y-72647299D01*
X153702541Y-72659283D01*
X153726510Y-72663080D01*
X153726512Y-72663080D01*
X154293490Y-72663080D01*
X154314885Y-72659691D01*
X154393126Y-72647299D01*
X154513220Y-72586108D01*
X154608528Y-72490800D01*
X154669719Y-72370706D01*
X154685500Y-72271068D01*
X154685500Y-71754092D01*
X154669719Y-71654454D01*
X154669716Y-71654449D01*
X154669716Y-71654447D01*
X154608529Y-71534362D01*
X154608528Y-71534360D01*
X154513220Y-71439052D01*
X154513217Y-71439050D01*
X154393132Y-71377863D01*
X154393127Y-71377861D01*
X154393126Y-71377861D01*
X154356626Y-71372080D01*
X154293490Y-71362080D01*
X154293488Y-71362080D01*
X153896190Y-71362080D01*
X153888592Y-71359611D01*
X153880703Y-71360861D01*
X153860047Y-71350336D01*
X153837999Y-71343173D01*
X153826186Y-71333084D01*
X153775186Y-71282084D01*
X153747409Y-71227567D01*
X153756980Y-71167135D01*
X153800245Y-71123870D01*
X153845190Y-71113080D01*
X154293490Y-71113080D01*
X154314885Y-71109691D01*
X154393126Y-71097299D01*
X154513220Y-71036108D01*
X154608528Y-70940800D01*
X154669719Y-70820706D01*
X154684890Y-70724919D01*
X154685500Y-70721069D01*
X154685500Y-70204091D01*
X154683597Y-70192080D01*
X154674762Y-70136298D01*
X154684333Y-70075869D01*
X154727596Y-70032604D01*
X154788028Y-70023032D01*
X154842545Y-70050808D01*
X154842546Y-70050809D01*
X155055503Y-70263765D01*
X155083281Y-70318282D01*
X155084500Y-70333769D01*
X155084500Y-70731069D01*
X155100281Y-70830705D01*
X155100283Y-70830712D01*
X155161470Y-70950797D01*
X155161472Y-70950800D01*
X155256780Y-71046108D01*
X155256782Y-71046109D01*
X155376867Y-71107296D01*
X155376869Y-71107296D01*
X155376874Y-71107299D01*
X155452541Y-71119283D01*
X155476510Y-71123080D01*
X155924810Y-71123080D01*
X155946857Y-71130243D01*
X155969755Y-71133870D01*
X155975403Y-71139518D01*
X155983001Y-71141987D01*
X155996628Y-71160743D01*
X156013020Y-71177135D01*
X156014269Y-71185024D01*
X156018965Y-71191487D01*
X156018965Y-71214672D01*
X156022591Y-71237567D01*
X156018965Y-71244683D01*
X156018965Y-71252673D01*
X155994814Y-71292084D01*
X155943814Y-71343084D01*
X155889297Y-71370861D01*
X155873810Y-71372080D01*
X155476510Y-71372080D01*
X155376874Y-71387861D01*
X155376867Y-71387863D01*
X155256782Y-71449050D01*
X155161470Y-71544362D01*
X155100283Y-71664447D01*
X155100281Y-71664454D01*
X155084500Y-71764090D01*
X155084500Y-72281069D01*
X155100281Y-72380705D01*
X155100283Y-72380712D01*
X155157284Y-72492581D01*
X155161472Y-72500800D01*
X155256780Y-72596108D01*
X155256782Y-72596109D01*
X155376867Y-72657296D01*
X155376869Y-72657296D01*
X155376874Y-72657299D01*
X155452541Y-72669283D01*
X155476510Y-72673080D01*
X155476512Y-72673080D01*
X156043490Y-72673080D01*
X156064885Y-72669691D01*
X156143126Y-72657299D01*
X156263220Y-72596108D01*
X156358528Y-72500800D01*
X156419719Y-72380706D01*
X156435500Y-72281068D01*
X156435500Y-71883768D01*
X156454407Y-71825577D01*
X156464490Y-71813770D01*
X156870469Y-71407792D01*
X156916614Y-71327868D01*
X156931905Y-71270800D01*
X156940500Y-71238724D01*
X156940500Y-69716436D01*
X156916614Y-69627292D01*
X156906569Y-69609894D01*
X156906569Y-69609893D01*
X156870471Y-69547370D01*
X156870470Y-69547368D01*
X156279685Y-68956583D01*
X156251909Y-68902067D01*
X156261480Y-68841635D01*
X156304745Y-68798370D01*
X156323778Y-68793800D01*
X156330000Y-68787579D01*
X156330000Y-67687581D01*
X156530000Y-67687581D01*
X156530000Y-68787579D01*
X156530001Y-68787580D01*
X156649697Y-68787580D01*
X156649700Y-68787579D01*
X156708036Y-68775976D01*
X156774189Y-68731773D01*
X156774193Y-68731769D01*
X156818396Y-68665616D01*
X156829999Y-68607280D01*
X156830000Y-68607277D01*
X156830000Y-67687581D01*
X156829999Y-67687580D01*
X156530001Y-67687580D01*
X156530000Y-67687581D01*
X156330000Y-67687581D01*
X156330000Y-66387581D01*
X156530000Y-66387581D01*
X156530000Y-67487579D01*
X156530001Y-67487580D01*
X156829999Y-67487580D01*
X156830000Y-67487579D01*
X156830000Y-66567882D01*
X156829999Y-66567879D01*
X156818396Y-66509543D01*
X156774193Y-66443390D01*
X156774189Y-66443386D01*
X156708036Y-66399183D01*
X156649700Y-66387580D01*
X156530001Y-66387580D01*
X156530000Y-66387581D01*
X156330000Y-66387581D01*
X156329999Y-66387580D01*
X156210299Y-66387580D01*
X156151964Y-66399183D01*
X156135450Y-66410218D01*
X156076562Y-66426826D01*
X156025446Y-66410216D01*
X156008234Y-66398715D01*
X156008233Y-66398714D01*
X156008231Y-66398713D01*
X156008227Y-66398712D01*
X155949758Y-66387081D01*
X155949748Y-66387080D01*
X155510252Y-66387080D01*
X155510251Y-66387080D01*
X155510241Y-66387081D01*
X155451772Y-66398712D01*
X155451767Y-66398714D01*
X155435001Y-66409917D01*
X155376113Y-66426525D01*
X155324999Y-66409917D01*
X155308934Y-66399183D01*
X155308231Y-66398713D01*
X155308228Y-66398712D01*
X155308227Y-66398712D01*
X155249758Y-66387081D01*
X155249748Y-66387080D01*
X154810252Y-66387080D01*
X154810251Y-66387080D01*
X154810241Y-66387081D01*
X154751772Y-66398712D01*
X154751767Y-66398714D01*
X154735001Y-66409917D01*
X154676113Y-66426525D01*
X154624999Y-66409917D01*
X154608934Y-66399183D01*
X154608231Y-66398713D01*
X154608228Y-66398712D01*
X154608227Y-66398712D01*
X154549758Y-66387081D01*
X154549748Y-66387080D01*
X154110252Y-66387080D01*
X154110251Y-66387080D01*
X154110241Y-66387081D01*
X154051772Y-66398712D01*
X154051767Y-66398714D01*
X154035001Y-66409917D01*
X153976113Y-66426525D01*
X153924999Y-66409917D01*
X153908934Y-66399183D01*
X153908231Y-66398713D01*
X153908228Y-66398712D01*
X153908227Y-66398712D01*
X153849758Y-66387081D01*
X153849748Y-66387080D01*
X153410252Y-66387080D01*
X153410251Y-66387080D01*
X153410241Y-66387081D01*
X153351772Y-66398712D01*
X153351767Y-66398714D01*
X153335001Y-66409917D01*
X153276113Y-66426525D01*
X153224999Y-66409917D01*
X153208934Y-66399183D01*
X153208231Y-66398713D01*
X153208228Y-66398712D01*
X153208227Y-66398712D01*
X153149758Y-66387081D01*
X153149748Y-66387080D01*
X152710252Y-66387080D01*
X152710251Y-66387080D01*
X152710241Y-66387081D01*
X152651772Y-66398712D01*
X152651767Y-66398714D01*
X152635001Y-66409917D01*
X152576113Y-66426525D01*
X152524999Y-66409917D01*
X152508934Y-66399183D01*
X152508231Y-66398713D01*
X152508228Y-66398712D01*
X152508227Y-66398712D01*
X152449758Y-66387081D01*
X152449748Y-66387080D01*
X152010252Y-66387080D01*
X152010251Y-66387080D01*
X152010241Y-66387081D01*
X151951772Y-66398712D01*
X151951766Y-66398714D01*
X151934552Y-66410217D01*
X151875663Y-66426826D01*
X151824548Y-66410217D01*
X151808035Y-66399183D01*
X151808036Y-66399183D01*
X151749700Y-66387580D01*
X151630001Y-66387580D01*
X151630000Y-66387581D01*
X151630000Y-68787579D01*
X151630001Y-68787580D01*
X151749697Y-68787580D01*
X151749700Y-68787579D01*
X151808036Y-68775976D01*
X151824548Y-68764943D01*
X151883435Y-68748334D01*
X151910202Y-68753123D01*
X151923193Y-68757353D01*
X151951769Y-68776447D01*
X152010252Y-68788080D01*
X152017557Y-68788080D01*
X152030962Y-68792445D01*
X152047419Y-68804417D01*
X152066067Y-68812573D01*
X152071596Y-68822006D01*
X152080440Y-68828440D01*
X152086716Y-68847800D01*
X152097009Y-68865358D01*
X152095937Y-68876241D01*
X152099310Y-68886643D01*
X152093008Y-68905994D01*
X152091015Y-68926249D01*
X152082214Y-68939144D01*
X152080366Y-68944822D01*
X152076353Y-68947733D01*
X152070314Y-68956583D01*
X151769530Y-69257367D01*
X151726231Y-69332361D01*
X151726232Y-69332362D01*
X151723388Y-69337287D01*
X151723386Y-69337290D01*
X151723386Y-69337292D01*
X151714626Y-69369987D01*
X151699500Y-69426437D01*
X151699500Y-69600470D01*
X151680593Y-69658661D01*
X151631093Y-69694625D01*
X151569907Y-69694625D01*
X151520407Y-69658661D01*
X151514764Y-69649971D01*
X151500501Y-69625268D01*
X151500500Y-69625266D01*
X151407314Y-69532080D01*
X151407311Y-69532078D01*
X151407309Y-69532076D01*
X151293189Y-69466189D01*
X151293191Y-69466189D01*
X151232722Y-69449987D01*
X151165892Y-69432080D01*
X151040189Y-69432080D01*
X150981998Y-69413173D01*
X150946034Y-69363673D01*
X150946034Y-69302487D01*
X150970183Y-69263078D01*
X151110470Y-69122792D01*
X151156614Y-69042868D01*
X151163439Y-69017398D01*
X151169370Y-68995265D01*
X151174235Y-68977104D01*
X151180500Y-68953724D01*
X151180500Y-68882393D01*
X151199407Y-68824202D01*
X151248907Y-68788238D01*
X151298814Y-68785295D01*
X151310299Y-68787579D01*
X151310303Y-68787580D01*
X151429999Y-68787580D01*
X151430000Y-68787579D01*
X151430000Y-66387581D01*
X151429999Y-66387580D01*
X151310299Y-66387580D01*
X151251964Y-66399183D01*
X151235450Y-66410218D01*
X151176562Y-66426826D01*
X151125446Y-66410216D01*
X151108234Y-66398715D01*
X151108233Y-66398714D01*
X151108231Y-66398713D01*
X151108227Y-66398712D01*
X151049758Y-66387081D01*
X151049748Y-66387080D01*
X150610252Y-66387080D01*
X150610251Y-66387080D01*
X150610241Y-66387081D01*
X150551772Y-66398712D01*
X150551766Y-66398714D01*
X150534552Y-66410217D01*
X150475663Y-66426826D01*
X150424548Y-66410217D01*
X150408035Y-66399183D01*
X150408036Y-66399183D01*
X150349700Y-66387580D01*
X150230001Y-66387580D01*
X150230000Y-66387581D01*
X150230000Y-68783799D01*
X150258194Y-68797350D01*
X150302452Y-68839598D01*
X150313424Y-68899792D01*
X150286921Y-68954939D01*
X150285312Y-68956585D01*
X150260001Y-68981895D01*
X150205484Y-69009671D01*
X150145052Y-69000099D01*
X150119996Y-68981894D01*
X150047844Y-68909743D01*
X150041235Y-68896773D01*
X150030705Y-68886721D01*
X150027692Y-68870194D01*
X150020066Y-68855227D01*
X150022343Y-68840847D01*
X150019733Y-68826527D01*
X150027009Y-68811386D01*
X150029637Y-68794795D01*
X150030000Y-68794295D01*
X150030000Y-66387581D01*
X150029999Y-66387580D01*
X149910299Y-66387580D01*
X149851964Y-66399183D01*
X149835450Y-66410218D01*
X149776562Y-66426826D01*
X149725446Y-66410216D01*
X149708234Y-66398715D01*
X149708233Y-66398714D01*
X149708231Y-66398713D01*
X149708227Y-66398712D01*
X149649758Y-66387081D01*
X149649748Y-66387080D01*
X149210252Y-66387080D01*
X149210251Y-66387080D01*
X149210241Y-66387081D01*
X149151772Y-66398712D01*
X149151766Y-66398714D01*
X149134552Y-66410217D01*
X149075663Y-66426826D01*
X149024548Y-66410217D01*
X149008035Y-66399183D01*
X149008036Y-66399183D01*
X148949700Y-66387580D01*
X148830001Y-66387580D01*
X148830000Y-66387581D01*
X148830000Y-68787579D01*
X148830001Y-68787580D01*
X148949697Y-68787580D01*
X148949702Y-68787579D01*
X148970248Y-68783492D01*
X148982667Y-68784961D01*
X148994746Y-68781725D01*
X149012316Y-68788469D01*
X149031009Y-68790681D01*
X149040192Y-68799169D01*
X149051868Y-68803651D01*
X149062119Y-68819437D01*
X149075940Y-68832212D01*
X149085191Y-68854965D01*
X149089272Y-68870194D01*
X149096917Y-68898724D01*
X149096916Y-68898725D01*
X149096917Y-68898726D01*
X149103383Y-68922862D01*
X149103384Y-68922864D01*
X149103385Y-68922867D01*
X149103386Y-68922868D01*
X149149530Y-69002792D01*
X149510412Y-69363673D01*
X149810504Y-69663765D01*
X149814130Y-69670882D01*
X149820593Y-69675578D01*
X149827756Y-69697626D01*
X149838281Y-69718282D01*
X149839500Y-69733769D01*
X149839500Y-69770569D01*
X149820593Y-69828760D01*
X149785446Y-69858778D01*
X149686781Y-69909051D01*
X149591466Y-70004366D01*
X149591033Y-70004963D01*
X149590437Y-70005395D01*
X149585963Y-70009870D01*
X149585253Y-70009160D01*
X149541530Y-70040923D01*
X149480345Y-70040918D01*
X149461446Y-70032503D01*
X149433189Y-70016189D01*
X149433186Y-70016188D01*
X149305892Y-69982080D01*
X149174108Y-69982080D01*
X149118086Y-69997091D01*
X149046809Y-70016189D01*
X148932690Y-70082076D01*
X148839496Y-70175270D01*
X148773609Y-70289389D01*
X148761718Y-70333769D01*
X148739500Y-70416688D01*
X148285500Y-70416688D01*
X148285500Y-70244092D01*
X148269719Y-70144454D01*
X148269716Y-70144449D01*
X148269716Y-70144447D01*
X148208529Y-70024362D01*
X148208528Y-70024360D01*
X148113220Y-69929052D01*
X148113217Y-69929050D01*
X147993132Y-69867863D01*
X147993127Y-69867861D01*
X147993126Y-69867861D01*
X147955780Y-69861946D01*
X147893490Y-69852080D01*
X147893488Y-69852080D01*
X147326512Y-69852080D01*
X147326509Y-69852080D01*
X147222230Y-69868596D01*
X147161798Y-69859025D01*
X147118533Y-69815760D01*
X147108962Y-69755328D01*
X147136740Y-69700811D01*
X147570457Y-69267094D01*
X147570460Y-69267091D01*
X147575662Y-69258080D01*
X147610021Y-69198569D01*
X147630500Y-69122142D01*
X147630500Y-68872447D01*
X147649407Y-68814256D01*
X147698907Y-68778292D01*
X147748815Y-68775349D01*
X147810301Y-68787579D01*
X147810303Y-68787580D01*
X147929999Y-68787580D01*
X147930000Y-68787579D01*
X147930000Y-67687581D01*
X148130000Y-67687581D01*
X148130000Y-68787579D01*
X148130001Y-68787580D01*
X148249697Y-68787580D01*
X148249700Y-68787579D01*
X148308036Y-68775976D01*
X148308036Y-68775975D01*
X148324997Y-68764643D01*
X148383885Y-68748033D01*
X148435003Y-68764643D01*
X148451963Y-68775975D01*
X148451963Y-68775976D01*
X148510299Y-68787579D01*
X148510303Y-68787580D01*
X148629999Y-68787580D01*
X148630000Y-68787579D01*
X148630000Y-67687581D01*
X148629999Y-67687580D01*
X148130001Y-67687580D01*
X148130000Y-67687581D01*
X147930000Y-67687581D01*
X147930000Y-66387581D01*
X148130000Y-66387581D01*
X148130000Y-67487579D01*
X148130001Y-67487580D01*
X148629999Y-67487580D01*
X148630000Y-67487579D01*
X148630000Y-66387581D01*
X148629999Y-66387580D01*
X148510299Y-66387580D01*
X148451964Y-66399183D01*
X148435001Y-66410518D01*
X148376113Y-66427126D01*
X148324999Y-66410518D01*
X148308035Y-66399183D01*
X148308036Y-66399183D01*
X148249700Y-66387580D01*
X148130001Y-66387580D01*
X148130000Y-66387581D01*
X147930000Y-66387581D01*
X147929999Y-66387580D01*
X147810299Y-66387580D01*
X147751964Y-66399183D01*
X147735450Y-66410218D01*
X147676562Y-66426826D01*
X147625446Y-66410216D01*
X147608234Y-66398715D01*
X147608233Y-66398714D01*
X147608231Y-66398713D01*
X147608227Y-66398712D01*
X147549758Y-66387081D01*
X147549748Y-66387080D01*
X147110252Y-66387080D01*
X147110251Y-66387080D01*
X147110241Y-66387081D01*
X147051772Y-66398712D01*
X147051767Y-66398714D01*
X147035001Y-66409917D01*
X146976113Y-66426525D01*
X146924999Y-66409917D01*
X146908934Y-66399183D01*
X146908231Y-66398713D01*
X146908228Y-66398712D01*
X146908227Y-66398712D01*
X146849758Y-66387081D01*
X146849748Y-66387080D01*
X146410252Y-66387080D01*
X146410251Y-66387080D01*
X146410241Y-66387081D01*
X146351772Y-66398712D01*
X146351766Y-66398714D01*
X146334552Y-66410217D01*
X146275663Y-66426826D01*
X146224548Y-66410217D01*
X146208035Y-66399183D01*
X146208036Y-66399183D01*
X146149700Y-66387580D01*
X146030001Y-66387580D01*
X146030000Y-66387581D01*
X146030000Y-67488580D01*
X146025155Y-67503491D01*
X146025155Y-67519173D01*
X146015938Y-67531858D01*
X146011093Y-67546771D01*
X145998407Y-67555987D01*
X145989191Y-67568673D01*
X145974278Y-67573518D01*
X145961593Y-67582735D01*
X145931000Y-67587580D01*
X145930000Y-67587580D01*
X145930000Y-67588580D01*
X145911093Y-67646771D01*
X145861593Y-67682735D01*
X145831000Y-67687580D01*
X145330001Y-67687580D01*
X145330000Y-67687581D01*
X145330000Y-68787579D01*
X145330001Y-68787580D01*
X145449697Y-68787580D01*
X145449700Y-68787579D01*
X145508036Y-68775976D01*
X145508036Y-68775975D01*
X145524997Y-68764643D01*
X145550874Y-68757343D01*
X145576112Y-68748033D01*
X145579998Y-68749129D01*
X145583885Y-68748033D01*
X145635001Y-68764641D01*
X145645672Y-68771771D01*
X145683552Y-68819821D01*
X145685954Y-68880959D01*
X145660675Y-68924090D01*
X145589500Y-68995265D01*
X145589499Y-68995267D01*
X145523609Y-69109389D01*
X145520018Y-69122791D01*
X145489500Y-69236688D01*
X145489500Y-69368472D01*
X145505032Y-69426437D01*
X145523609Y-69495770D01*
X145589496Y-69609889D01*
X145589498Y-69609891D01*
X145589500Y-69609894D01*
X145682686Y-69703080D01*
X145682688Y-69703081D01*
X145682690Y-69703083D01*
X145707390Y-69717343D01*
X145748332Y-69762811D01*
X145754729Y-69823662D01*
X145724137Y-69876650D01*
X145668242Y-69901537D01*
X145657894Y-69902080D01*
X145603479Y-69902080D01*
X145603476Y-69902081D01*
X145509700Y-69916932D01*
X145509695Y-69916934D01*
X145396659Y-69974529D01*
X145306949Y-70064239D01*
X145269353Y-70138026D01*
X145226089Y-70181290D01*
X145181144Y-70192080D01*
X144500833Y-70192080D01*
X144442642Y-70173173D01*
X144430835Y-70163089D01*
X144364579Y-70096833D01*
X144260545Y-70048321D01*
X144213139Y-70042080D01*
X144213138Y-70042080D01*
X144074477Y-70042080D01*
X144055296Y-70035847D01*
X144035218Y-70033963D01*
X144026868Y-70026611D01*
X144016286Y-70023173D01*
X144004430Y-70006855D01*
X143989296Y-69993530D01*
X143986862Y-69982674D01*
X143980322Y-69973673D01*
X143980322Y-69953504D01*
X143975910Y-69933827D01*
X143980322Y-69924443D01*
X143980322Y-69912487D01*
X144000174Y-69877658D01*
X144002245Y-69875305D01*
X144070460Y-69807091D01*
X144081064Y-69788724D01*
X144109054Y-69740244D01*
X144154523Y-69699302D01*
X144215373Y-69692906D01*
X144244291Y-69704007D01*
X144356810Y-69768970D01*
X144356808Y-69768970D01*
X144356812Y-69768971D01*
X144356814Y-69768972D01*
X144484108Y-69803080D01*
X144484110Y-69803080D01*
X144615890Y-69803080D01*
X144615892Y-69803080D01*
X144743186Y-69768972D01*
X144743188Y-69768970D01*
X144743190Y-69768970D01*
X144857309Y-69703083D01*
X144857309Y-69703082D01*
X144857314Y-69703080D01*
X144950500Y-69609894D01*
X144957715Y-69597398D01*
X145016390Y-69495770D01*
X145016390Y-69495768D01*
X145016392Y-69495766D01*
X145050500Y-69368472D01*
X145050500Y-69236688D01*
X145016392Y-69109394D01*
X145016390Y-69109391D01*
X145016390Y-69109389D01*
X144950503Y-68995270D01*
X144950501Y-68995268D01*
X144950500Y-68995266D01*
X144907164Y-68951930D01*
X144879389Y-68897416D01*
X144888960Y-68836984D01*
X144932225Y-68793719D01*
X144992657Y-68784148D01*
X144996487Y-68784832D01*
X145010297Y-68787579D01*
X145010303Y-68787580D01*
X145129999Y-68787580D01*
X145130000Y-68787579D01*
X145130000Y-66387581D01*
X145330000Y-66387581D01*
X145330000Y-67487579D01*
X145330001Y-67487580D01*
X145830000Y-67487580D01*
X145830000Y-66387581D01*
X145829999Y-66387580D01*
X145710299Y-66387580D01*
X145651964Y-66399183D01*
X145635001Y-66410518D01*
X145576113Y-66427126D01*
X145524999Y-66410518D01*
X145508035Y-66399183D01*
X145508036Y-66399183D01*
X145449700Y-66387580D01*
X145330001Y-66387580D01*
X145330000Y-66387581D01*
X145130000Y-66387581D01*
X145129999Y-66387580D01*
X145010299Y-66387580D01*
X144951964Y-66399183D01*
X144935450Y-66410218D01*
X144876562Y-66426826D01*
X144825446Y-66410216D01*
X144808234Y-66398715D01*
X144808233Y-66398714D01*
X144808231Y-66398713D01*
X144808227Y-66398712D01*
X144749758Y-66387081D01*
X144749748Y-66387080D01*
X144310252Y-66387080D01*
X144310251Y-66387080D01*
X144310241Y-66387081D01*
X144251772Y-66398712D01*
X144251767Y-66398714D01*
X144235001Y-66409917D01*
X144176113Y-66426525D01*
X144124999Y-66409917D01*
X144108934Y-66399183D01*
X144108231Y-66398713D01*
X144108228Y-66398712D01*
X144108227Y-66398712D01*
X144049758Y-66387081D01*
X144049748Y-66387080D01*
X143610252Y-66387080D01*
X143610251Y-66387080D01*
X143610241Y-66387081D01*
X143551772Y-66398712D01*
X143551767Y-66398714D01*
X143535001Y-66409917D01*
X143476113Y-66426525D01*
X143424999Y-66409917D01*
X143408934Y-66399183D01*
X143408231Y-66398713D01*
X143408228Y-66398712D01*
X143408227Y-66398712D01*
X143349758Y-66387081D01*
X143349748Y-66387080D01*
X142910252Y-66387080D01*
X142910251Y-66387080D01*
X142910241Y-66387081D01*
X142851772Y-66398712D01*
X142851766Y-66398714D01*
X142834552Y-66410217D01*
X142775663Y-66426826D01*
X142724548Y-66410217D01*
X142708035Y-66399183D01*
X142708036Y-66399183D01*
X142649700Y-66387580D01*
X142530001Y-66387580D01*
X142530000Y-66387581D01*
X142530000Y-68787579D01*
X142530001Y-68787580D01*
X142649697Y-68787580D01*
X142649698Y-68787579D01*
X142711185Y-68775349D01*
X142736049Y-68778292D01*
X142761093Y-68778292D01*
X142765967Y-68781833D01*
X142771947Y-68782541D01*
X142790331Y-68799535D01*
X142810593Y-68814256D01*
X142812454Y-68819984D01*
X142816877Y-68824073D01*
X142829500Y-68872447D01*
X142829500Y-68907100D01*
X142810593Y-68965291D01*
X142800504Y-68977104D01*
X141664523Y-70113084D01*
X141610006Y-70140861D01*
X141594519Y-70142080D01*
X141153479Y-70142080D01*
X141153476Y-70142081D01*
X141059700Y-70156932D01*
X141059695Y-70156934D01*
X140946659Y-70214529D01*
X140856949Y-70304239D01*
X140799354Y-70417275D01*
X140784500Y-70511057D01*
X140784500Y-70974100D01*
X140784501Y-70974103D01*
X140799352Y-71067879D01*
X140799354Y-71067884D01*
X140856950Y-71180922D01*
X140946658Y-71270630D01*
X141059696Y-71328226D01*
X141153481Y-71343080D01*
X141445522Y-71343079D01*
X141503711Y-71361986D01*
X141539675Y-71411486D01*
X141539676Y-71472671D01*
X141515525Y-71512082D01*
X141275490Y-71752119D01*
X141275486Y-71752123D01*
X141264521Y-71763087D01*
X141210004Y-71790862D01*
X141194523Y-71792080D01*
X141153477Y-71792080D01*
X141059699Y-71806932D01*
X141059695Y-71806934D01*
X140946659Y-71864529D01*
X140856949Y-71954239D01*
X140799354Y-72067275D01*
X140784500Y-72161057D01*
X140784500Y-72624100D01*
X140784501Y-72624103D01*
X140799352Y-72717879D01*
X140799354Y-72717884D01*
X140856950Y-72830922D01*
X140946658Y-72920630D01*
X141059696Y-72978226D01*
X141153481Y-72993080D01*
X141594520Y-72993079D01*
X141652711Y-73011986D01*
X141664524Y-73022075D01*
X142335525Y-73693076D01*
X142363302Y-73747593D01*
X142353731Y-73808025D01*
X142310466Y-73851290D01*
X142265521Y-73862080D01*
X142144108Y-73862080D01*
X142066200Y-73882955D01*
X142016809Y-73896189D01*
X141902690Y-73962076D01*
X141809496Y-74055270D01*
X141743609Y-74169389D01*
X141709500Y-74296689D01*
X141709500Y-74397100D01*
X141690593Y-74455291D01*
X141680504Y-74467103D01*
X141204525Y-74943083D01*
X141150008Y-74970861D01*
X141134521Y-74972080D01*
X140703951Y-74972080D01*
X140645760Y-74953173D01*
X140615742Y-74918027D01*
X140573050Y-74834238D01*
X140483342Y-74744530D01*
X140370304Y-74686934D01*
X140370305Y-74686934D01*
X140276522Y-74672080D01*
X139663479Y-74672080D01*
X139663476Y-74672081D01*
X139569700Y-74686932D01*
X139569695Y-74686934D01*
X139456659Y-74744529D01*
X139456658Y-74744530D01*
X139366950Y-74834238D01*
X139324257Y-74918026D01*
X139280994Y-74961290D01*
X139236049Y-74972080D01*
X138703951Y-74972080D01*
X138645760Y-74953173D01*
X138615742Y-74918027D01*
X138573050Y-74834238D01*
X138483342Y-74744530D01*
X138370304Y-74686934D01*
X138370305Y-74686934D01*
X138276522Y-74672080D01*
X137663479Y-74672080D01*
X137663476Y-74672081D01*
X137569700Y-74686932D01*
X137569695Y-74686934D01*
X137456659Y-74744529D01*
X137366949Y-74834239D01*
X137309354Y-74947275D01*
X137294500Y-75041057D01*
X132450000Y-75041057D01*
X132450000Y-72601033D01*
X135935000Y-72601033D01*
X135950760Y-72700545D01*
X135950762Y-72700549D01*
X136011881Y-72820501D01*
X136107078Y-72915698D01*
X136227030Y-72976817D01*
X136227029Y-72976817D01*
X136326545Y-72992579D01*
X136510000Y-72992579D01*
X136510000Y-72442581D01*
X136710000Y-72442581D01*
X136710000Y-72992578D01*
X136710001Y-72992579D01*
X136893453Y-72992579D01*
X136992965Y-72976819D01*
X136992969Y-72976817D01*
X137112921Y-72915698D01*
X137208118Y-72820501D01*
X137269237Y-72700549D01*
X137285000Y-72601033D01*
X137560000Y-72601033D01*
X137575760Y-72700545D01*
X137575762Y-72700549D01*
X137636881Y-72820501D01*
X137732078Y-72915698D01*
X137852030Y-72976817D01*
X137852029Y-72976817D01*
X137951545Y-72992579D01*
X138135000Y-72992579D01*
X138135000Y-72442581D01*
X138335000Y-72442581D01*
X138335000Y-72992578D01*
X138335001Y-72992579D01*
X138518453Y-72992579D01*
X138617965Y-72976819D01*
X138617969Y-72976817D01*
X138737921Y-72915698D01*
X138833118Y-72820501D01*
X138894237Y-72700549D01*
X138910000Y-72601033D01*
X138910000Y-72492581D01*
X139185001Y-72492581D01*
X139185001Y-72624065D01*
X139199833Y-72717721D01*
X139199836Y-72717731D01*
X139257358Y-72830623D01*
X139346956Y-72920221D01*
X139459848Y-72977743D01*
X139459852Y-72977744D01*
X139553515Y-72992579D01*
X139759998Y-72992579D01*
X139760000Y-72992578D01*
X139760000Y-72492581D01*
X139960000Y-72492581D01*
X139960000Y-72992578D01*
X139960001Y-72992579D01*
X140166483Y-72992579D01*
X140166485Y-72992578D01*
X140260141Y-72977746D01*
X140260151Y-72977743D01*
X140373043Y-72920221D01*
X140462641Y-72830623D01*
X140520163Y-72717731D01*
X140520164Y-72717727D01*
X140535000Y-72624064D01*
X140535000Y-72492581D01*
X140534999Y-72492580D01*
X139960001Y-72492580D01*
X139960000Y-72492581D01*
X139760000Y-72492581D01*
X139759999Y-72492580D01*
X139185002Y-72492580D01*
X139185001Y-72492581D01*
X138910000Y-72492581D01*
X138910000Y-72442581D01*
X138909999Y-72442580D01*
X138335001Y-72442580D01*
X138335000Y-72442581D01*
X138135000Y-72442581D01*
X138134999Y-72442580D01*
X137560002Y-72442580D01*
X137560001Y-72442581D01*
X137560001Y-72601033D01*
X137560000Y-72601033D01*
X137285000Y-72601033D01*
X137285000Y-72442581D01*
X137284999Y-72442580D01*
X136710001Y-72442580D01*
X136710000Y-72442581D01*
X136510000Y-72442581D01*
X136509999Y-72442580D01*
X135935002Y-72442580D01*
X135935001Y-72442581D01*
X135935001Y-72601033D01*
X135935000Y-72601033D01*
X132450000Y-72601033D01*
X132450000Y-72084126D01*
X135935000Y-72084126D01*
X135935000Y-72242579D01*
X135935001Y-72242580D01*
X136509999Y-72242580D01*
X136510000Y-72242579D01*
X136510000Y-71692581D01*
X136710000Y-71692581D01*
X136710000Y-72242579D01*
X136710001Y-72242580D01*
X137284998Y-72242580D01*
X137284999Y-72242579D01*
X137284999Y-72084127D01*
X137284998Y-72084126D01*
X137560000Y-72084126D01*
X137560000Y-72242579D01*
X137560001Y-72242580D01*
X138134999Y-72242580D01*
X138135000Y-72242579D01*
X138135000Y-71692581D01*
X138335000Y-71692581D01*
X138335000Y-72242579D01*
X138335001Y-72242580D01*
X138909998Y-72242580D01*
X138909999Y-72242579D01*
X138909999Y-72161095D01*
X139185000Y-72161095D01*
X139185000Y-72292579D01*
X139185001Y-72292580D01*
X139759999Y-72292580D01*
X139760000Y-72292579D01*
X139760000Y-71792581D01*
X139960000Y-71792581D01*
X139960000Y-72292579D01*
X139960001Y-72292580D01*
X140534998Y-72292580D01*
X140534999Y-72292579D01*
X140534999Y-72161096D01*
X140534998Y-72161094D01*
X140520166Y-72067438D01*
X140520163Y-72067428D01*
X140462641Y-71954536D01*
X140373043Y-71864938D01*
X140260151Y-71807416D01*
X140260147Y-71807415D01*
X140166484Y-71792580D01*
X139960001Y-71792580D01*
X139960000Y-71792581D01*
X139760000Y-71792581D01*
X139759999Y-71792580D01*
X139553517Y-71792580D01*
X139553514Y-71792581D01*
X139459858Y-71807413D01*
X139459848Y-71807416D01*
X139346956Y-71864938D01*
X139257358Y-71954536D01*
X139199836Y-72067428D01*
X139199835Y-72067432D01*
X139185000Y-72161095D01*
X138909999Y-72161095D01*
X138909999Y-72084126D01*
X138894239Y-71984614D01*
X138894237Y-71984610D01*
X138833118Y-71864658D01*
X138737921Y-71769461D01*
X138617969Y-71708342D01*
X138617970Y-71708342D01*
X138518454Y-71692580D01*
X138335001Y-71692580D01*
X138335000Y-71692581D01*
X138135000Y-71692581D01*
X138134999Y-71692580D01*
X137951547Y-71692580D01*
X137951546Y-71692581D01*
X137852034Y-71708340D01*
X137852030Y-71708342D01*
X137732078Y-71769461D01*
X137636881Y-71864658D01*
X137575762Y-71984610D01*
X137560000Y-72084126D01*
X137284998Y-72084126D01*
X137284998Y-72084125D01*
X137269239Y-71984614D01*
X137269237Y-71984610D01*
X137208118Y-71864658D01*
X137112921Y-71769461D01*
X136992969Y-71708342D01*
X136992970Y-71708342D01*
X136893454Y-71692580D01*
X136710001Y-71692580D01*
X136710000Y-71692581D01*
X136510000Y-71692581D01*
X136509999Y-71692580D01*
X136326547Y-71692580D01*
X136326546Y-71692581D01*
X136227034Y-71708340D01*
X136227030Y-71708342D01*
X136107078Y-71769461D01*
X136011881Y-71864658D01*
X135950762Y-71984610D01*
X135935000Y-72084126D01*
X132450000Y-72084126D01*
X132450000Y-70534090D01*
X135934500Y-70534090D01*
X135934500Y-71051069D01*
X135937163Y-71067884D01*
X135948157Y-71137298D01*
X135950281Y-71150705D01*
X135950283Y-71150712D01*
X135994539Y-71237567D01*
X136011472Y-71270800D01*
X136106780Y-71366108D01*
X136106782Y-71366109D01*
X136226867Y-71427296D01*
X136226869Y-71427296D01*
X136226874Y-71427299D01*
X136301080Y-71439052D01*
X136326510Y-71443080D01*
X136326512Y-71443080D01*
X136893490Y-71443080D01*
X136914885Y-71439691D01*
X136993126Y-71427299D01*
X137113220Y-71366108D01*
X137208528Y-71270800D01*
X137269719Y-71150706D01*
X137285500Y-71051068D01*
X137285500Y-70603058D01*
X137287968Y-70595460D01*
X137286719Y-70587571D01*
X137297243Y-70566915D01*
X137304407Y-70544867D01*
X137314493Y-70533058D01*
X137390766Y-70456784D01*
X137445281Y-70429009D01*
X137505713Y-70438580D01*
X137548978Y-70481845D01*
X137558600Y-70530202D01*
X137559500Y-70530202D01*
X137559500Y-71051069D01*
X137562163Y-71067884D01*
X137573157Y-71137298D01*
X137575281Y-71150705D01*
X137575283Y-71150712D01*
X137619539Y-71237567D01*
X137636472Y-71270800D01*
X137731780Y-71366108D01*
X137731782Y-71366109D01*
X137851867Y-71427296D01*
X137851869Y-71427296D01*
X137851874Y-71427299D01*
X137926080Y-71439052D01*
X137951510Y-71443080D01*
X137951512Y-71443080D01*
X138518490Y-71443080D01*
X138539885Y-71439691D01*
X138618126Y-71427299D01*
X138738220Y-71366108D01*
X138833528Y-71270800D01*
X138894719Y-71150706D01*
X138910500Y-71051068D01*
X138910500Y-70534092D01*
X138910336Y-70533059D01*
X138898688Y-70459515D01*
X138901558Y-70441396D01*
X138908259Y-70399082D01*
X138951524Y-70355817D01*
X139002384Y-70347761D01*
X139011955Y-70346246D01*
X139011956Y-70346246D01*
X139066470Y-70374021D01*
X139155505Y-70463056D01*
X139183281Y-70517571D01*
X139184500Y-70533058D01*
X139184500Y-70974100D01*
X139184501Y-70974103D01*
X139199352Y-71067879D01*
X139199354Y-71067884D01*
X139256950Y-71180922D01*
X139346658Y-71270630D01*
X139459696Y-71328226D01*
X139553481Y-71343080D01*
X140166518Y-71343079D01*
X140166520Y-71343079D01*
X140166521Y-71343078D01*
X140213411Y-71335652D01*
X140260299Y-71328227D01*
X140260299Y-71328226D01*
X140260304Y-71328226D01*
X140373342Y-71270630D01*
X140463050Y-71180922D01*
X140520646Y-71067884D01*
X140535500Y-70974099D01*
X140535499Y-70511062D01*
X140529387Y-70472469D01*
X140520647Y-70417280D01*
X140520646Y-70417278D01*
X140520646Y-70417276D01*
X140463050Y-70304238D01*
X140373342Y-70214530D01*
X140260304Y-70156934D01*
X140260305Y-70156934D01*
X140166522Y-70142080D01*
X140166519Y-70142080D01*
X139725479Y-70142080D01*
X139667288Y-70123173D01*
X139655475Y-70113084D01*
X139259496Y-69717105D01*
X139231719Y-69662588D01*
X139230500Y-69647101D01*
X139230500Y-68872447D01*
X139249407Y-68814256D01*
X139298907Y-68778292D01*
X139348815Y-68775349D01*
X139410301Y-68787579D01*
X139410303Y-68787580D01*
X139529999Y-68787580D01*
X139530000Y-68787579D01*
X139530000Y-67687581D01*
X139730000Y-67687581D01*
X139730000Y-68787579D01*
X139730001Y-68787580D01*
X139849697Y-68787580D01*
X139849700Y-68787579D01*
X139908036Y-68775976D01*
X139908036Y-68775975D01*
X139924997Y-68764643D01*
X139983885Y-68748033D01*
X140035003Y-68764643D01*
X140051963Y-68775975D01*
X140051963Y-68775976D01*
X140110299Y-68787579D01*
X140110303Y-68787580D01*
X140229999Y-68787580D01*
X140230000Y-68787579D01*
X140230000Y-67687581D01*
X140430000Y-67687581D01*
X140430000Y-68787579D01*
X140430001Y-68787580D01*
X140549697Y-68787580D01*
X140549700Y-68787579D01*
X140608036Y-68775976D01*
X140608036Y-68775975D01*
X140624997Y-68764643D01*
X140683885Y-68748033D01*
X140735003Y-68764643D01*
X140751963Y-68775975D01*
X140751963Y-68775976D01*
X140810299Y-68787579D01*
X140810303Y-68787580D01*
X140929999Y-68787580D01*
X140930000Y-68787579D01*
X140930000Y-67687581D01*
X141130000Y-67687581D01*
X141130000Y-68787579D01*
X141130001Y-68787580D01*
X141249697Y-68787580D01*
X141249700Y-68787579D01*
X141308036Y-68775976D01*
X141308036Y-68775975D01*
X141324997Y-68764643D01*
X141383885Y-68748033D01*
X141435003Y-68764643D01*
X141451963Y-68775975D01*
X141451963Y-68775976D01*
X141510299Y-68787579D01*
X141510303Y-68787580D01*
X141629999Y-68787580D01*
X141630000Y-68787579D01*
X141630000Y-67687581D01*
X141830000Y-67687581D01*
X141830000Y-68787579D01*
X141830001Y-68787580D01*
X141949697Y-68787580D01*
X141949700Y-68787579D01*
X142008036Y-68775976D01*
X142008036Y-68775975D01*
X142024997Y-68764643D01*
X142083885Y-68748033D01*
X142135003Y-68764643D01*
X142151963Y-68775975D01*
X142151963Y-68775976D01*
X142210299Y-68787579D01*
X142210303Y-68787580D01*
X142329999Y-68787580D01*
X142330000Y-68787579D01*
X142330000Y-67687581D01*
X142329999Y-67687580D01*
X141830001Y-67687580D01*
X141830000Y-67687581D01*
X141630000Y-67687581D01*
X141629999Y-67687580D01*
X141130001Y-67687580D01*
X141130000Y-67687581D01*
X140930000Y-67687581D01*
X140929999Y-67687580D01*
X140430001Y-67687580D01*
X140430000Y-67687581D01*
X140230000Y-67687581D01*
X140229999Y-67687580D01*
X139730001Y-67687580D01*
X139730000Y-67687581D01*
X139530000Y-67687581D01*
X139530000Y-66387581D01*
X139730000Y-66387581D01*
X139730000Y-67487579D01*
X139730001Y-67487580D01*
X140229999Y-67487580D01*
X140230000Y-67487579D01*
X140230000Y-66387581D01*
X140430000Y-66387581D01*
X140430000Y-67487579D01*
X140430001Y-67487580D01*
X140929999Y-67487580D01*
X140930000Y-67487579D01*
X140930000Y-66387581D01*
X141130000Y-66387581D01*
X141130000Y-67487579D01*
X141130001Y-67487580D01*
X141629999Y-67487580D01*
X141630000Y-67487579D01*
X141630000Y-66387581D01*
X141830000Y-66387581D01*
X141830000Y-67487579D01*
X141830001Y-67487580D01*
X142329999Y-67487580D01*
X142330000Y-67487579D01*
X142330000Y-66387581D01*
X142329999Y-66387580D01*
X142210299Y-66387580D01*
X142151964Y-66399183D01*
X142135001Y-66410518D01*
X142076113Y-66427126D01*
X142024999Y-66410518D01*
X142008035Y-66399183D01*
X142008036Y-66399183D01*
X141949700Y-66387580D01*
X141830001Y-66387580D01*
X141830000Y-66387581D01*
X141630000Y-66387581D01*
X141629999Y-66387580D01*
X141510299Y-66387580D01*
X141451964Y-66399183D01*
X141435001Y-66410518D01*
X141376113Y-66427126D01*
X141324999Y-66410518D01*
X141308035Y-66399183D01*
X141308036Y-66399183D01*
X141249700Y-66387580D01*
X141130001Y-66387580D01*
X141130000Y-66387581D01*
X140930000Y-66387581D01*
X140929999Y-66387580D01*
X140810299Y-66387580D01*
X140751964Y-66399183D01*
X140735001Y-66410518D01*
X140676113Y-66427126D01*
X140624999Y-66410518D01*
X140608035Y-66399183D01*
X140608036Y-66399183D01*
X140549700Y-66387580D01*
X140430001Y-66387580D01*
X140430000Y-66387581D01*
X140230000Y-66387581D01*
X140229999Y-66387580D01*
X140110299Y-66387580D01*
X140051964Y-66399183D01*
X140035001Y-66410518D01*
X139976113Y-66427126D01*
X139924999Y-66410518D01*
X139908035Y-66399183D01*
X139908036Y-66399183D01*
X139849700Y-66387580D01*
X139730001Y-66387580D01*
X139730000Y-66387581D01*
X139530000Y-66387581D01*
X139529999Y-66387580D01*
X139410299Y-66387580D01*
X139351964Y-66399183D01*
X139335450Y-66410218D01*
X139276562Y-66426826D01*
X139225446Y-66410216D01*
X139208234Y-66398715D01*
X139208233Y-66398714D01*
X139208231Y-66398713D01*
X139208227Y-66398712D01*
X139149758Y-66387081D01*
X139149748Y-66387080D01*
X138710252Y-66387080D01*
X138710251Y-66387080D01*
X138710241Y-66387081D01*
X138651772Y-66398712D01*
X138651767Y-66398714D01*
X138635001Y-66409917D01*
X138576113Y-66426525D01*
X138524999Y-66409917D01*
X138508934Y-66399183D01*
X138508231Y-66398713D01*
X138508228Y-66398712D01*
X138508227Y-66398712D01*
X138449758Y-66387081D01*
X138449748Y-66387080D01*
X138010252Y-66387080D01*
X138010251Y-66387080D01*
X138010241Y-66387081D01*
X137951772Y-66398712D01*
X137951767Y-66398714D01*
X137935001Y-66409917D01*
X137876113Y-66426525D01*
X137824999Y-66409917D01*
X137808934Y-66399183D01*
X137808231Y-66398713D01*
X137808228Y-66398712D01*
X137808227Y-66398712D01*
X137749758Y-66387081D01*
X137749748Y-66387080D01*
X137310252Y-66387080D01*
X137310251Y-66387080D01*
X137310241Y-66387081D01*
X137251772Y-66398712D01*
X137251766Y-66398714D01*
X137234552Y-66410217D01*
X137175663Y-66426826D01*
X137124548Y-66410217D01*
X137108035Y-66399183D01*
X137108036Y-66399183D01*
X137049700Y-66387580D01*
X136930001Y-66387580D01*
X136930000Y-66387581D01*
X136930000Y-68787579D01*
X136930001Y-68787580D01*
X137049697Y-68787580D01*
X137049698Y-68787579D01*
X137111185Y-68775349D01*
X137171947Y-68782541D01*
X137216877Y-68824073D01*
X137229500Y-68872447D01*
X137229500Y-69727101D01*
X137210593Y-69785292D01*
X137200504Y-69797105D01*
X136884525Y-70113084D01*
X136830008Y-70140861D01*
X136814521Y-70142080D01*
X136326510Y-70142080D01*
X136226874Y-70157861D01*
X136226867Y-70157863D01*
X136106782Y-70219050D01*
X136011470Y-70314362D01*
X135950283Y-70434447D01*
X135950281Y-70434454D01*
X135934500Y-70534090D01*
X132450000Y-70534090D01*
X132450000Y-67687581D01*
X135730000Y-67687581D01*
X135730000Y-68607280D01*
X135741603Y-68665616D01*
X135785806Y-68731769D01*
X135785810Y-68731773D01*
X135851963Y-68775976D01*
X135910299Y-68787579D01*
X135910303Y-68787580D01*
X136029999Y-68787580D01*
X136030000Y-68787579D01*
X136030000Y-67687581D01*
X136230000Y-67687581D01*
X136230000Y-68787579D01*
X136230001Y-68787580D01*
X136349697Y-68787580D01*
X136349700Y-68787579D01*
X136408036Y-68775976D01*
X136408036Y-68775975D01*
X136424997Y-68764643D01*
X136483885Y-68748033D01*
X136535003Y-68764643D01*
X136551963Y-68775975D01*
X136551963Y-68775976D01*
X136610299Y-68787579D01*
X136610303Y-68787580D01*
X136729999Y-68787580D01*
X136730000Y-68787579D01*
X136730000Y-67687581D01*
X136729999Y-67687580D01*
X136230001Y-67687580D01*
X136230000Y-67687581D01*
X136030000Y-67687581D01*
X136029999Y-67687580D01*
X135730001Y-67687580D01*
X135730000Y-67687581D01*
X132450000Y-67687581D01*
X132450000Y-66567879D01*
X135730000Y-66567879D01*
X135730000Y-67487579D01*
X135730001Y-67487580D01*
X136029999Y-67487580D01*
X136030000Y-67487579D01*
X136030000Y-66387581D01*
X136230000Y-66387581D01*
X136230000Y-67487579D01*
X136230001Y-67487580D01*
X136729999Y-67487580D01*
X136730000Y-67487579D01*
X136730000Y-66387581D01*
X136729999Y-66387580D01*
X136610299Y-66387580D01*
X136551964Y-66399183D01*
X136535001Y-66410518D01*
X136476113Y-66427126D01*
X136424999Y-66410518D01*
X136408035Y-66399183D01*
X136408036Y-66399183D01*
X136349700Y-66387580D01*
X136230001Y-66387580D01*
X136230000Y-66387581D01*
X136030000Y-66387581D01*
X136029999Y-66387580D01*
X135910299Y-66387580D01*
X135851963Y-66399183D01*
X135785810Y-66443386D01*
X135785806Y-66443390D01*
X135741603Y-66509543D01*
X135730000Y-66567879D01*
X132450000Y-66567879D01*
X132450000Y-59042080D01*
X132468907Y-58983889D01*
X132518407Y-58947925D01*
X132549000Y-58943080D01*
X134810500Y-58943080D01*
X134868691Y-58961987D01*
G37*
G04 #@! TD.AperFunction*
M02*
