G04 #@! TF.GenerationSoftware,KiCad,Pcbnew,9.0.4*
G04 #@! TF.CreationDate,2026-03-12T15:02:46+03:00*
G04 #@! TF.ProjectId,mPCIe_Sens,6d504349-655f-4536-956e-732e6b696361,rev?*
G04 #@! TF.SameCoordinates,Original*
G04 #@! TF.FileFunction,Paste,Bot*
G04 #@! TF.FilePolarity,Positive*
%FSLAX46Y46*%
G04 Gerber Fmt 4.6, Leading zero omitted, Abs format (unit mm)*
G04 Created by KiCad (PCBNEW 9.0.4) date 2026-03-12 15:02:46*
%MOMM*%
%LPD*%
G01*
G04 APERTURE LIST*
G04 Aperture macros list*
%AMRoundRect*
0 Rectangle with rounded corners*
0 $1 Rounding radius*
0 $2 $3 $4 $5 $6 $7 $8 $9 X,Y pos of 4 corners*
0 Add a 4 corners polygon primitive as box body*
4,1,4,$2,$3,$4,$5,$6,$7,$8,$9,$2,$3,0*
0 Add four circle primitives for the rounded corners*
1,1,$1+$1,$2,$3*
1,1,$1+$1,$4,$5*
1,1,$1+$1,$6,$7*
1,1,$1+$1,$8,$9*
0 Add four rect primitives between the rounded corners*
20,1,$1+$1,$2,$3,$4,$5,0*
20,1,$1+$1,$4,$5,$6,$7,0*
20,1,$1+$1,$6,$7,$8,$9,0*
20,1,$1+$1,$8,$9,$2,$3,0*%
G04 Aperture macros list end*
%ADD10R,0.600000X2.000000*%
%ADD11RoundRect,0.225000X0.250000X-0.225000X0.250000X0.225000X-0.250000X0.225000X-0.250000X-0.225000X0*%
%ADD12R,0.400000X2.000000*%
%ADD13RoundRect,0.125000X0.125000X-0.125000X0.125000X0.125000X-0.125000X0.125000X-0.125000X-0.125000X0*%
%ADD14RoundRect,0.200000X0.275000X-0.200000X0.275000X0.200000X-0.275000X0.200000X-0.275000X-0.200000X0*%
%ADD15RoundRect,0.200000X-0.275000X0.200000X-0.275000X-0.200000X0.275000X-0.200000X0.275000X0.200000X0*%
%ADD16RoundRect,0.225000X-0.250000X0.225000X-0.250000X-0.225000X0.250000X-0.225000X0.250000X0.225000X0*%
G04 APERTURE END LIST*
D10*
X103435000Y-83690000D03*
X104235000Y-83690000D03*
X105035000Y-83690000D03*
X105835000Y-83690000D03*
X106635000Y-83690000D03*
X107435000Y-83690000D03*
X108235000Y-83690000D03*
X109035000Y-83690000D03*
X113035000Y-83690000D03*
X113835000Y-83690000D03*
X114635000Y-83690000D03*
X115435000Y-83690000D03*
X116235000Y-83690000D03*
X117035000Y-83690000D03*
X117835000Y-83690000D03*
X118635000Y-83690000D03*
X119435000Y-83690000D03*
X120235000Y-83690000D03*
X121035000Y-83690000D03*
X121835000Y-83690000D03*
X122635000Y-83690000D03*
X123435000Y-83690000D03*
X124235000Y-83690000D03*
X125035000Y-83690000D03*
X125835000Y-83690000D03*
X126635000Y-83690000D03*
D11*
X152050000Y-72012580D03*
X152050000Y-70462580D03*
X147610000Y-72052580D03*
X147610000Y-70502580D03*
D12*
X156430000Y-67587580D03*
X155730000Y-67587580D03*
X155030000Y-67587580D03*
X154330000Y-67587580D03*
X153630000Y-67587580D03*
X152930000Y-67587580D03*
X152230000Y-67587580D03*
X151530000Y-67587580D03*
X150830000Y-67587580D03*
X150130000Y-67587580D03*
X149430000Y-67587580D03*
X148730000Y-67587580D03*
X148030000Y-67587580D03*
X147330000Y-67587580D03*
X146630000Y-67587580D03*
X145930000Y-67587580D03*
X145230000Y-67587580D03*
X144530000Y-67587580D03*
X143830000Y-67587580D03*
X143130000Y-67587580D03*
X142430000Y-67587580D03*
X141730000Y-67587580D03*
X141030000Y-67587580D03*
X140330000Y-67587580D03*
X139630000Y-67587580D03*
X138930000Y-67587580D03*
X138230000Y-67587580D03*
X137530000Y-67587580D03*
X136830000Y-67587580D03*
X136130000Y-67587580D03*
D11*
X136610000Y-72342580D03*
X136610000Y-70792580D03*
D13*
X144050000Y-72692580D03*
X144050000Y-70492580D03*
D11*
X150190000Y-72032580D03*
X150190000Y-70482580D03*
D14*
X145910000Y-72152580D03*
X145910000Y-70502580D03*
D15*
X141460000Y-70742580D03*
X141460000Y-72392580D03*
D16*
X138235000Y-70792580D03*
X138235000Y-72342580D03*
D14*
X137970000Y-76922580D03*
X137970000Y-75272580D03*
D15*
X139970000Y-75272580D03*
X139970000Y-76922580D03*
D11*
X155760000Y-72022580D03*
X155760000Y-70472580D03*
X154010000Y-72012580D03*
X154010000Y-70462580D03*
D14*
X139860000Y-72392580D03*
X139860000Y-70742580D03*
M02*
