M48
; DRILL file {KiCad 9.0.4} date 2026-03-12T15:04:06+0300
; FORMAT={-:-/ absolute / inch / decimal}
; #@! TF.CreationDate,2026-03-12T15:04:06+03:00
; #@! TF.GenerationSoftware,Kicad,Pcbnew,9.0.4
; #@! TF.FileFunction,Plated,1,2,PTH
FMAT,2
INCH
; #@! TA.AperFunction,Plated,PTH,ViaDrill
T1C0.0118
; #@! TA.AperFunction,Plated,PTH,ViaDrill
T2C0.0236
; #@! TA.AperFunction,Plated,PTH,ComponentDrill
T3C0.0394
; #@! TA.AperFunction,Plated,PTH,ComponentDrill
T4C0.1024
%
G90
G05
T1
X4.0014Y-2.5331
X4.0014Y-2.6118
X4.0014Y-2.6906
X4.0014Y-2.7693
X4.0014Y-2.848
X4.0014Y-2.9268
X4.0014Y-3.163
X4.0697Y-2.8878
X4.0795Y-3.0028
X4.0801Y-2.5331
X4.0801Y-2.6118
X4.0801Y-2.6906
X4.1366Y-2.911
X4.1402Y-3.0028
X4.1589Y-2.3756
X4.1589Y-2.4543
X4.1823Y-3.2134
X4.1976Y-3.0409
X4.1984Y-2.661
X4.235Y-3.0406
X4.2376Y-2.3756
X4.2724Y-3.0402
X4.2768Y-3.2126
X4.2858Y-2.848
X4.2917Y-2.7323
X4.3098Y-2.9713
X4.3102Y-3.1094
X4.3163Y-2.5331
X4.3622Y-2.3535
X4.3697Y-3.0028
X4.3951Y-2.4543
X4.3951Y-2.5331
X4.3951Y-2.6118
X4.3951Y-2.6906
X4.3951Y-2.9268
X4.4055Y-2.8335
X4.4311Y-3.0035
X4.4504Y-3.2181
X4.4551Y-2.5713
X4.4738Y-2.6906
X4.499Y-3.1809
X4.5165Y-2.4087
X4.5764Y-3.2189
X4.5953Y-3.0024
X4.598Y-2.4518
X4.6228Y-3.2118
X4.6313Y-2.5331
X4.6313Y-2.6118
X4.6313Y-2.6906
X4.6313Y-2.7693
X4.6313Y-2.848
X4.6567Y-3.0028
X4.6701Y-3.202
X4.7012Y-3.2165
X4.71Y-2.5331
X4.71Y-2.6118
X4.7433Y-3.1427
X4.7567Y-3.2201
X4.7693Y-2.7992
X4.7878Y-3.0768
X4.7888Y-2.5331
X4.8272Y-2.9713
X4.8675Y-2.3756
X4.8685Y-2.7173
X4.8736Y-3.1858
X4.8874Y-3.0024
X4.9398Y-3.2201
X4.9413Y-2.898
X4.9472Y-2.6079
X4.9484Y-3.0028
X4.9492Y-3.139
X4.964Y-2.7301
X5.025Y-2.5331
X5.2681Y-2.3757
X5.2681Y-2.4544
X5.2681Y-2.5332
X5.2681Y-2.6119
X5.2681Y-2.6907
X5.2681Y-2.7694
X5.2681Y-2.8481
X5.2681Y-2.9269
X5.2681Y-3.0056
X5.2681Y-3.0844
X5.2681Y-3.1631
X5.2681Y-3.2418
X5.2681Y-3.3206
X5.2681Y-3.3993
X5.2681Y-3.4781
X5.2681Y-3.5568
X5.2681Y-3.6355
X5.2681Y-3.7143
X5.2681Y-3.793
X5.2681Y-3.8718
X5.2681Y-3.9505
X5.3469Y-2.5332
X5.3469Y-2.9269
X5.3469Y-3.0056
X5.3469Y-3.0844
X5.3469Y-3.1631
X5.3469Y-3.2418
X5.3469Y-3.3206
X5.3469Y-3.3993
X5.3469Y-3.4781
X5.3469Y-3.5568
X5.3469Y-3.6355
X5.3469Y-3.7143
X5.3469Y-3.793
X5.3469Y-3.8718
X5.3783Y-2.8832
X5.4256Y-3.1631
X5.4256Y-3.2418
X5.4256Y-3.3206
X5.4256Y-3.3993
X5.4256Y-3.4781
X5.4256Y-3.5568
X5.4256Y-3.6355
X5.4256Y-3.7143
X5.4256Y-3.793
X5.4256Y-3.8718
X5.4319Y-3.0635
X5.4425Y-2.8836
X5.5043Y-2.5332
X5.5043Y-3.1631
X5.5043Y-3.2418
X5.5043Y-3.3206
X5.5043Y-3.3993
X5.5043Y-3.4781
X5.5043Y-3.5568
X5.5043Y-3.6355
X5.5043Y-3.7143
X5.5043Y-3.793
X5.5043Y-3.8718
X5.5063Y-2.8836
X5.5106Y-3.0643
X5.5831Y-2.5332
X5.5831Y-3.0844
X5.5831Y-3.1631
X5.5831Y-3.2418
X5.5831Y-3.3206
X5.5831Y-3.3993
X5.5831Y-3.4781
X5.5831Y-3.5568
X5.5831Y-3.6355
X5.5831Y-3.7143
X5.5831Y-3.793
X5.5988Y-2.9277
X5.6366Y-2.9576
X5.6366Y-3.043
X5.6618Y-2.5332
X5.6807Y-3.0418
X5.6909Y-2.7284
X5.7406Y-2.5332
X5.7406Y-3.0844
X5.7406Y-3.1631
X5.7406Y-3.2418
X5.7406Y-3.3206
X5.7406Y-3.3993
X5.7406Y-3.4781
X5.7406Y-3.5568
X5.7406Y-3.6355
X5.7406Y-3.7143
X5.7406Y-3.793
X5.7406Y-3.8718
X5.7406Y-3.9505
X5.7445Y-2.8781
X5.7476Y-2.7284
X5.8114Y-2.8741
X5.8193Y-2.5332
X5.8193Y-2.9269
X5.8193Y-3.0844
X5.8193Y-3.1631
X5.8193Y-3.2418
X5.8193Y-3.3206
X5.8193Y-3.3993
X5.8193Y-3.4781
X5.8756Y-2.7749
X5.898Y-2.5332
X5.898Y-3.0056
X5.898Y-3.0844
X5.898Y-3.1631
X5.898Y-3.2418
X5.898Y-3.3206
X5.898Y-3.3993
X5.898Y-3.4781
X5.913Y-2.8733
X5.9488Y-2.7533
X5.9768Y-2.5332
X5.9768Y-2.9269
X5.9768Y-3.0056
X5.9768Y-3.0844
X5.9768Y-3.1631
X5.9768Y-3.2418
X5.9768Y-3.3206
X5.9768Y-3.3993
X5.9768Y-3.4781
X5.9862Y-2.8721
X6.0555Y-2.9269
X6.0555Y-3.0056
X6.0555Y-3.0844
X6.0555Y-3.1631
X6.0555Y-3.2418
X6.0555Y-3.3206
X6.0555Y-3.3993
X6.0555Y-3.4781
X6.1343Y-2.5332
X6.1343Y-2.9269
X6.1343Y-3.0056
X6.1343Y-3.0844
X6.1343Y-3.1631
X6.1343Y-3.2418
X6.1343Y-3.3206
X6.1343Y-3.3993
X6.1343Y-3.4781
X6.213Y-2.5332
X6.213Y-2.6119
X6.213Y-2.6907
X6.213Y-2.7694
X6.213Y-2.8481
X6.213Y-2.9269
X6.213Y-3.0056
X6.213Y-3.0844
X6.213Y-3.1631
X6.213Y-3.2418
X6.213Y-3.3206
X6.213Y-3.3993
X6.213Y-3.4781
T2
X5.4441Y-2.5133
X6.074Y-2.5133
T3
X5.3771Y-3.9977
X5.4771Y-3.9977
X5.5771Y-3.9977
X5.6771Y-3.9977
T4
X4.0407Y-2.415
X4.9935Y-2.415
M30
